0
SECTION
2
HEADER
9
$INSUNITS
70
4
9
$ACADVER
1
AC1014
9
$HANDSEED
5
FFFF
0
ENDSEC
0
SECTION
2
TABLES
0
TABLE
2
VPORT
5
8
100
AcDbSymbolTable
0
ENDTAB
0
TABLE
2
LTYPE
5
5
100
AcDbSymbolTable
0
LTYPE
5
14
100
AcDbSymbolTableRecord
100
AcDbLinetypeTableRecord
2
BYBLOCK
70
0
0
LTYPE
5
15
100
AcDbSymbolTableRecord
100
AcDbLinetypeTableRecord
2
BYLAYER
70
0
0
ENDTAB
0
TABLE
2
LAYER
5
2
100
AcDbSymbolTable
70
2
0
LAYER
5
50
100
AcDbSymbolTableRecord
100
AcDbLayerTableRecord
2
0
70
0
6
CONTINUOUS
0
ENDTAB
0
TABLE
2
STYLE
5
3
100
AcDbSymbolTable
70
1
0
STYLE
5
11
100
AcDbSymbolTableRecord
100
AcDbTextStyleTableRecord
2
STANDARD
70
0
0
ENDTAB
0
TABLE
2
VIEW
5
6
100
AcDbSymbolTable
70
0
0
ENDTAB
0
TABLE
2
UCS
5
7
100
AcDbSymbolTable
70
0
0
ENDTAB
0
TABLE
2
APPID
5
9
100
AcDbSymbolTable
70
2
0
APPID
5
12
100
AcDbSymbolTableRecord
100
AcDbRegAppTableRecord
2
ACAD
70
0
0
ENDTAB
0
TABLE
2
DIMSTYLE
5
A
100
AcDbSymbolTable
70
1
0
ENDTAB
0
TABLE
2
BLOCK_RECORD
5
1
100
AcDbSymbolTable
70
1
0
BLOCK_RECORD
5
1F
100
AcDbSymbolTableRecord
100
AcDbBlockTableRecord
2
*MODEL_SPACE
0
BLOCK_RECORD
5
1B
100
AcDbSymbolTableRecord
100
AcDbBlockTableRecord
2
*PAPER_SPACE
0
ENDTAB
0
ENDSEC
0
SECTION
2
BLOCKS
0
BLOCK
5
20
100
AcDbEntity
100
AcDbBlockBegin
2
*MODEL_SPACE
0
ENDBLK
5
21
100
AcDbEntity
100
AcDbBlockEnd
0
BLOCK
5
1C
100
AcDbEntity
100
AcDbBlockBegin
2
*PAPER_SPACE
0
ENDBLK
5
1D
100
AcDbEntity
100
AcDbBlockEnd
0
ENDSEC
0
SECTION
2
ENTITIES
0
LWPOLYLINE
5
100
100
AcDbEntity
8
0
100
AcDbPolyline
90
8
70
1
43
0.0
10
164.42499999999993
20
-261.37524800000051
42
-0.41421356237321988
10
164.92499999999993
20
-261.87524800000051
10
164.92499999999993
20
-274.87524800000051
42
-0.41421356237307422
10
164.42499999999993
20
-275.37524800000057
10
151.42499999999995
20
-275.37524800000057
42
-0.41421356237307422
10
150.92499999999998
20
-274.87524800000057
10
150.92500000000007
20
-261.87524800000057
42
-0.4142135623730846
10
151.42500000000007
20
-261.37524800000051
0
LWPOLYLINE
5
101
100
AcDbEntity
8
0
100
AcDbPolyline
90
8
70
1
43
0.0
10
50.624999999999964
20
-274.87524800000045
10
50.624999999999964
20
-261.87524800000051
42
0.41421356237307422
10
50.124999999999957
20
-261.37524800000051
10
37.124999999999957
20
-261.37524800000051
42
0.41421356237301699
10
36.624999999999943
20
-261.87524800000045
10
36.62499999999995
20
-274.8752480000004
42
0.41421356237313145
10
37.12499999999995
20
-275.37524800000057
10
50.124999999999957
20
-275.37524800000051
42
0.414213562373069
0
LWPOLYLINE
5
102
100
AcDbEntity
8
0
100
AcDbPolyline
90
8
70
1
43
0.0
10
112.825
20
-261.87524800000051
42
-0.41421356237300139
10
113.32499999999999
20
-261.37524800000057
10
126.32499999999995
20
-261.37524800000051
42
-0.41421356237307422
10
126.82499999999993
20
-261.87524800000051
10
126.82499999999996
20
-274.87524800000051
42
-0.4142135623730534
10
126.32499999999995
20
-275.37524800000057
10
113.32499999999996
20
-275.37524800000062
42
-0.41421356237309503
10
112.82499999999996
20
-274.87524800000045
0
LWPOLYLINE
5
103
100
AcDbEntity
8
0
100
AcDbPolyline
90
8
70
1
43
0.0
10
75.224999999999952
20
-275.37524800000051
42
-0.41421356237304302
10
74.724999999999937
20
-274.87524800000051
10
74.724999999999952
20
-261.87524800000057
42
-0.4142135623730846
10
75.224999999999937
20
-261.37524800000051
10
88.22499999999998
20
-261.37524800000051
42
-0.4142135623730846
10
88.724999999999994
20
-261.87524800000051
10
88.724999999999952
20
-274.87524800000051
42
-0.4142135623730534
10
88.224999999999937
20
-275.37524800000051
0
LWPOLYLINE
5
104
100
AcDbEntity
8
0
100
AcDbPolyline
90
8
70
1
43
0.0
10
262.84301993244367
20
-280.92524800000047
42
-0.41421356237328233
10
263.34301993244372
20
-280.42524800000052
10
278.72500000000008
20
-280.42524800000058
42
-0.41421356237313667
10
279.22500000000008
20
-280.92524800000058
10
279.22500000000008
20
-293.92524800000058
42
-0.4142135623731783
10
278.72500000000008
20
-294.42524800000058
10
263.34301993244372
20
-294.42524800000052
42
-0.41421356237309503
10
262.84301993244355
20
-293.92524800000058
0
LWPOLYLINE
5
105
100
AcDbEntity
8
0
100
AcDbPolyline
90
8
70
1
43
0.0
10
88.724999999999937
20
-217.72524800000056
42
-0.4142135623730846
10
88.225000000000023
20
-218.22524800000051
10
75.224999999999966
20
-218.22524800000051
42
-0.41421356237306384
10
74.72499999999998
20
-217.72524800000053
10
74.725000000000023
20
-204.72524800000048
42
-0.41421356237318346
10
75.224999999999966
20
-204.22524800000053
10
88.22499999999998
20
-204.22524800000048
42
-0.41421356237316787
10
88.724999999999952
20
-204.72524800000048
0
LWPOLYLINE
5
106
100
AcDbEntity
8
0
100
AcDbPolyline
90
8
70
1
43
0.0
10
246.17500000000007
20
-261.87524800000057
10
246.17499999999993
20
-274.87524800000057
42
0.41421356237311585
10
246.67500000000004
20
-275.37524800000051
10
259.67500000000001
20
-275.37524800000057
42
0.41421356237299095
10
260.17499999999995
20
-274.87524800000057
10
260.17500000000007
20
-261.87524800000051
42
0.41421356237307422
10
259.67500000000001
20
-261.37524800000057
10
246.67500000000004
20
-261.37524800000057
42
0.41421356237299095
0
CIRCLE
5
107
100
AcDbEntity
8
0
100
AcDbCircle
10
43.673210999999952
20
-299.04229500000048
30
0
40
1.0999999999999943
210
0
220
0
230
1
0
LWPOLYLINE
5
108
100
AcDbEntity
8
0
100
AcDbPolyline
90
8
70
1
43
0.0
10
241.12499999999989
20
-274.87524800000057
10
241.12499999999997
20
-261.87524800000057
42
0.41421356237301177
10
240.62499999999989
20
-261.37524800000057
10
227.62500000000003
20
-261.37524800000051
42
0.41421356237297013
10
227.12499999999991
20
-261.87524800000057
10
227.12499999999991
20
-274.87524800000057
42
0.41421356237313667
10
227.62499999999986
20
-275.37524800000062
10
240.62499999999989
20
-275.37524800000057
42
0.4142135623731783
0
LWPOLYLINE
5
109
100
AcDbEntity
8
0
100
AcDbPolyline
90
20
70
1
43
0.0
10
278.72500000000014
20
-204.22524800000065
10
246.67500000000007
20
-204.22524800000051
42
0.41421356237303258
10
246.1750000000001
20
-204.72524800000059
10
246.17500000000018
20
-217.72524800000059
42
0.4142135623732407
10
246.67500000000007
20
-218.22524800000056
10
247.26200000000006
20
-218.22524800000056
10
247.26200000000003
20
-219.72524800000053
42
0.41421356237303258
10
247.7620000000002
20
-220.22524800000053
10
253.76200000000009
20
-220.22524800000053
42
0.41421356237328233
10
254.26200000000009
20
-219.72524800000053
10
254.26200000000011
20
-218.22524800000056
10
271.13799999999986
20
-218.22524800000056
10
271.13800000000015
20
-219.72524800000059
42
0.41421356237297013
10
271.63800000000015
20
-220.22524800000056
10
277.63800000000009
20
-220.22524800000059
42
0.41421356237346962
10
278.1380000000002
20
-219.72524800000059
10
278.1380000000002
20
-218.22524800000056
10
278.72500000000008
20
-218.22524800000056
42
0.41421356237313667
10
279.22500000000019
20
-217.72524800000056
10
279.22500000000019
20
-204.72524800000059
42
0.41421356237286611
0
LWPOLYLINE
5
110
100
AcDbEntity
8
0
100
AcDbPolyline
90
8
70
1
43
0.0
10
165.21250000000006
20
-242.82524800000056
42
-0.41421356237319906
10
165.71250000000006
20
-242.32524800000056
10
178.71250000000001
20
-242.32524800000053
42
-0.41421356237319906
10
179.21250000000003
20
-242.82524800000047
10
179.21250000000001
20
-255.8252480000005
42
-0.41421356237311585
10
178.71250000000001
20
-256.32524800000056
10
165.71250000000003
20
-256.3252480000005
42
-0.41421356237299095
10
165.21250000000003
20
-255.8252480000005
0
LWPOLYLINE
5
111
100
AcDbEntity
8
0
100
AcDbPolyline
90
8
70
1
43
0.0
10
127.11250000000008
20
-242.82524800000047
10
127.1125
20
-255.82524800000047
42
0.41421356237297013
10
127.61250000000003
20
-256.32524800000056
10
140.61250000000004
20
-256.3252480000005
42
0.41421356237312623
10
141.11250000000007
20
-255.82524800000061
10
141.11250000000007
20
-242.8252480000005
42
0.41421356237315748
10
140.61250000000004
20
-242.32524800000047
10
127.61250000000003
20
-242.32524800000047
42
0.41421356237316787
0
LWPOLYLINE
5
112
100
AcDbEntity
8
0
100
AcDbPolyline
90
8
70
1
43
0.0
10
141.90000000000001
20
-237.27524800000049
10
154.90000000000006
20
-237.27524800000057
42
0.41421356237312623
10
155.40000000000003
20
-236.77524800000054
10
155.40000000000003
20
-223.77524800000054
42
0.41421356237299095
10
154.90000000000006
20
-223.27524800000052
10
141.90000000000001
20
-223.27524800000049
42
0.41421356237299095
10
141.39999999999998
20
-223.77524800000063
10
141.40000000000003
20
-236.77524800000054
42
0.4142135623730534
0
LWPOLYLINE
5
113
100
AcDbEntity
8
0
100
AcDbPolyline
90
8
70
1
43
0.0
10
108.56249999999996
20
-256.32524800000056
10
121.56249999999997
20
-256.32524800000056
42
0.41421356237306384
10
122.06249999999999
20
-255.82524800000056
10
122.0625
20
-242.8252480000005
42
0.41421356237313667
10
121.56249999999997
20
-242.32524800000053
10
108.5625
20
-242.32524800000047
42
0.41421356237307422
10
108.06249999999994
20
-242.82524800000047
10
108.06249999999991
20
-255.8252480000005
42
0.41421356237297013
0
LWPOLYLINE
5
114
100
AcDbEntity
8
0
100
AcDbPolyline
90
8
70
1
43
0.0
10
221.57499999999999
20
-204.22524800000059
10
208.57500000000005
20
-204.22524800000051
42
0.41421356237292856
10
208.07499999999999
20
-204.72524800000059
10
208.07499999999999
20
-217.72524800000059
42
0.41421356237307422
10
208.57499999999999
20
-218.22524800000056
10
221.57499999999996
20
-218.22524800000056
42
0.41421356237313667
10
222.07499999999999
20
-217.72524800000059
10
222.07499999999999
20
-204.72524800000059
42
0.41421356237330315
0
LWPOLYLINE
5
115
100
AcDbEntity
8
0
100
AcDbPolyline
90
12
70
1
43
0.0
10
6.1575930141741022
20
-242.32537249383188
42
-0.0055790138313376618
10
6.1687499999999362
20
-242.32524800000047
10
19.168749999999957
20
-242.32524800000047
42
-0.41421356237316009
10
19.668749999999942
20
-242.82524800000047
10
19.668749999999974
20
-255.82537200000047
42
-0.41421356237301571
10
19.16874999999996
20
-256.32537200000047
10
0.56874999999994469
20
-256.32537200000047
42
-0.41421356237317891
10
0.068749999999971334
20
-255.82537200000047
10
0.068749999999959399
20
-242.82524800000047
42
-0.41421356237313073
10
0.56874999999995635
20
-242.32524800000047
10
1.5687500000889918
20
-242.32524750597551
42
-0.0055790153665836364
10
1.5799069999999682
20
-242.32537200000027
0
LWPOLYLINE
5
116
100
AcDbEntity
8
0
100
AcDbPolyline
90
8
70
1
43
0.0
10
159.66249999999999
20
-242.32524800000056
42
-0.41421356237298057
10
160.16249999999999
20
-242.82524800000056
10
160.16249999999999
20
-255.8252480000005
42
-0.4142135623732407
10
159.66249999999999
20
-256.32524800000056
10
146.66250000000008
20
-256.32524800000056
42
-0.41421356237294937
10
146.16250000000005
20
-255.82524800000058
10
146.16250000000005
20
-242.82524800000056
42
-0.41421356237319906
10
146.66250000000008
20
-242.32524800000056
0
LWPOLYLINE
5
117
100
AcDbEntity
8
0
100
AcDbPolyline
90
8
70
1
43
0.0
10
208.0749999999999
20
-280.92524800000052
42
-0.4142135623730534
10
208.5749999999999
20
-280.42524800000052
10
259.67500000000007
20
-280.42524800000052
42
-0.41421356237311585
10
260.17500000000007
20
-280.92524800000058
10
260.17499999999995
20
-293.92524800000058
42
-0.41421356237303258
10
259.67500000000001
20
-294.42524800000058
10
208.5749999999999
20
-294.42524800000058
42
-0.4142135623731783
10
208.0749999999999
20
-293.92524800000058
0
CIRCLE
5
118
100
AcDbEntity
8
0
100
AcDbCircle
10
234.17321099999992
20
-299.04229500000054
30
0
40
1.0999999999999943
210
0
220
0
230
1
0
LWPOLYLINE
5
119
100
AcDbEntity
8
0
100
AcDbPolyline
90
8
70
1
43
0.0
10
112.825
20
-204.72524800000045
42
-0.41421356237285573
10
113.32499999999999
20
-204.22524800000053
10
126.325
20
-204.22524800000048
42
-0.41421356237314705
10
126.82500000000002
20
-204.72524800000048
10
126.82499999999999
20
-217.72524800000048
42
-0.4142135623730846
10
126.325
20
-218.22524800000053
10
113.32499999999999
20
-218.22524800000053
42
-0.4142135623730222
10
112.825
20
-217.72524800000056
0
LWPOLYLINE
5
120
100
AcDbEntity
8
0
100
AcDbPolyline
90
8
70
1
43
0.0
10
217.60000000000014
20
-223.77524800000063
42
-0.41421356237309503
10
218.10000000000008
20
-223.27524800000052
10
231.10000000000011
20
-223.27524800000049
42
-0.41421356237297013
10
231.59999999999985
20
-223.77524800000054
10
231.60000000000011
20
-236.77524800000057
42
-0.41421356237313667
10
231.10000000000011
20
-237.27524800000057
10
218.10000000000008
20
-237.27524800000054
42
-0.41421356237297013
10
217.60000000000014
20
-236.77524800000057
0
LWPOLYLINE
5
121
100
AcDbEntity
8
0
100
AcDbPolyline
90
20
70
1
43
0.0
10
31.574999999999971
20
-274.87524800000045
10
31.574999999999953
20
-261.87524800000051
42
0.41421356237310542
10
31.074999999999946
20
-261.37524800000051
10
-0.97500000000004583
20
-261.37524800000051
42
0.41421356237313417
10
-1.4750000000000441
20
-261.87524800000051
10
-1.4750000000000467
20
-274.87524800000045
42
0.4142135623731692
10
-0.97500000000003695
20
-275.37524800000051
10
-0.38800000000005497
20
-275.37524800000051
10
-0.38800000000004831
20
-276.87524800000051
42
0.41421356237308099
10
0.11199999999995214
20
-277.37524800000045
10
6.111999999999945
20
-277.37524800000051
42
0.41421356237312756
10
6.6119999999999557
20
-276.87524800000057
10
6.6119999999999557
20
-275.37524800000051
10
23.487999999999953
20
-275.37524800000051
10
23.487999999999953
20
-276.87524800000051
42
0.41421356237307683
10
23.987999999999943
20
-277.37524800000045
10
29.987999999999953
20
-277.37524800000051
42
0.41421356237316009
10
30.487999999999946
20
-276.87524800000051
10
30.487999999999964
20
-275.37524800000051
10
31.074999999999946
20
-275.37524800000051
42
0.41421356237308204
0
LWPOLYLINE
5
122
100
AcDbEntity
8
0
100
AcDbPolyline
90
8
70
1
43
0.0
10
160.45000000000002
20
-223.77524800000054
42
-0.41421356237315748
10
160.95000000000005
20
-223.2752480000006
10
173.95000000000007
20
-223.27524800000066
42
-0.41421356237309503
10
174.45000000000007
20
-223.77524800000054
10
174.45000000000007
20
-236.77524800000057
42
-0.41421356237313667
10
173.95000000000007
20
-237.27524800000057
10
160.95000000000005
20
-237.2752480000006
42
-0.41421356237284529
10
160.45000000000005
20
-236.7752480000006
0
LWPOLYLINE
5
123
100
AcDbEntity
8
0
100
AcDbPolyline
90
8
70
1
43
0.0
10
236.36250000000018
20
-255.82524800000056
42
-0.41421356237303258
10
235.86250000000013
20
-256.32524800000056
10
222.86249999999998
20
-256.3252480000005
42
-0.41421356237311585
10
222.3625000000001
20
-255.82524800000056
10
222.36250000000013
20
-242.82524800000047
42
-0.41421356237315748
10
222.86250000000007
20
-242.3252480000005
10
235.86250000000013
20
-242.32524800000044
42
-0.41421356237321988
10
236.36250000000018
20
-242.82524800000047
0
LWPOLYLINE
5
124
100
AcDbEntity
8
0
100
AcDbPolyline
90
37
70
1
43
0.0
10
262.84375000000006
20
-242.32524800000056
10
241.91250000000008
20
-242.32524800000056
42
0.41421356237301177
10
241.41249999999999
20
-242.82524800000056
10
241.41250000000008
20
-255.82524800000056
42
0.41421356237307422
10
241.91250000000008
20
-256.32524800000056
10
244.88075000000023
20
-256.32524800000056
10
244.88075000000023
20
-257.82524800000056
42
0.41421356237299095
10
245.38074999999995
20
-258.32524800000061
10
251.38075000000018
20
-258.3252480000005
42
0.4142135623730534
10
251.88075000000021
20
-257.82524800000056
10
251.88075000000015
20
-256.32524800000056
10
266.81875000000014
20
-256.32524800000061
42
0.41421356237313667
10
267.31875000000014
20
-255.82524800000056
10
267.31875000000014
20
-255.23824800000057
10
268.75675000000018
20
-255.23824800000057
10
268.75675000000018
20
-257.82524800000056
42
0.41421356237297013
10
269.25675000000007
20
-258.3252480000005
10
275.25675000000012
20
-258.3252480000005
42
0.41421356237303258
10
275.75675000000024
20
-257.82524800000056
10
275.75675000000018
20
-255.02008305814616
42
0.15083409114186985
10
275.84375000000011
20
-254.73824800000062
10
275.84375000000011
20
-246.80024800000055
10
276.34375000000011
20
-246.80024800000055
42
0.4142135623730534
10
276.84375000000006
20
-246.30024800000055
10
276.84375000000006
20
-233.30024800000052
42
0.41421356237311585
10
276.34375000000011
20
-232.80024800000052
10
275.84375000000011
20
-232.80024800000058
10
275.84375000000011
20
-224.86224800000059
42
0.41421356237313667
10
275.34375000000006
20
-224.36224800000059
10
274.46249999999998
20
-224.36224800000053
10
274.46249999999998
20
-223.77524800000054
42
0.41421356237307422
10
273.96250000000015
20
-223.27524800000063
10
260.96250000000009
20
-223.27524800000052
42
0.41421356237321988
10
260.46249999999998
20
-223.77524800000054
10
260.46250000000009
20
-236.7752480000006
42
0.41421356237299095
10
260.96250000000009
20
-237.2752480000006
10
262.84375000000006
20
-237.27524800000057
0
ARC
5
125
100
AcDbEntity
8
0
100
AcDbCircle
10
62.031249999999986
20
-293.92524800000052
30
0
40
0.49999999999997158
210
0
220
0
230
1
100
AcDbArc
50
-90.000000000001634
51
0
0
ARC
5
126
100
AcDbEntity
8
0
100
AcDbCircle
10
62.030519932540749
20
-293.92524813636538
30
0
40
0.49999986363499005
210
0
220
0
230
1
100
AcDbArc
50
269.99999998885085
51
270.08365953170926
0
LINE
5
127
100
AcDbEntity
8
0
100
AcDbLine
10
62.030519932443454
20
-294.42524800000035
30
0
11
49.030519932443468
21
-294.42524800000041
31
0
0
ARC
5
128
100
AcDbEntity
8
0
100
AcDbCircle
10
49.030519932443482
20
-293.92524800000041
30
0
40
0.50000000000001599
210
0
220
0
230
1
100
AcDbArc
50
180
51
269.99999999999835
0
LINE
5
129
100
AcDbEntity
8
0
100
AcDbLine
10
48.530519932443468
20
-293.92524800000047
30
0
11
48.530519932443461
21
-280.92524800000035
31
0
0
ARC
5
130
100
AcDbEntity
8
0
100
AcDbCircle
10
49.03051993244344
20
-280.92524800000041
30
0
40
0.49999999999997158
210
0
220
-0
230
1
100
AcDbArc
50
89.999999999996746
51
180
0
LINE
5
131
100
AcDbEntity
8
0
100
AcDbLine
10
49.030519932443468
20
-280.42524800000047
30
0
11
62.030519932443454
21
-280.42524800000047
31
0
0
ARC
5
132
100
AcDbEntity
8
0
100
AcDbCircle
10
62.030519932443447
20
-280.92524799689113
30
0
40
0.49999999689070762
210
0
220
-0
230
1
100
AcDbArc
50
89.91634047943802
51
89.99999999999919
0
ARC
5
133
100
AcDbEntity
8
0
100
AcDbCircle
10
62.031249999999964
20
-280.92524800000052
30
0
40
0.49999999999999822
210
0
220
0
230
1
100
AcDbArc
50
0
51
90.000000089181029
0
LINE
5
134
100
AcDbEntity
8
0
100
AcDbLine
10
62.531249999999964
20
-280.92524800000058
30
0
11
62.531249999999957
21
-293.92524800000047
31
0
0
ARC
5
135
100
AcDbEntity
8
0
100
AcDbCircle
10
38.218019932467733
20
-293.92524800305432
30
0
40
0.4999999969460589
210
0
220
0
230
1
100
AcDbArc
50
269.99999999721859
51
270.08365951776892
0
LINE
5
136
100
AcDbEntity
8
0
100
AcDbLine
10
38.218019932443461
20
-294.42524800000041
30
0
11
25.218019932443454
21
-294.42524800000035
31
0
0
ARC
5
137
100
AcDbEntity
8
0
100
AcDbCircle
10
25.218019932443379
20
-293.92524800000047
30
0
40
0.49999999999991829
210
0
220
0
230
1
100
AcDbArc
50
180
51
270.00000000000858
0
LINE
5
138
100
AcDbEntity
8
0
100
AcDbLine
10
24.718019932443461
20
-293.92524800000041
30
0
11
24.718019932443465
21
-280.92524800000041
31
0
0
ARC
5
139
100
AcDbEntity
8
0
100
AcDbCircle
10
25.218019932443436
20
-280.92524800000047
30
0
40
0.50000000000000711
210
0
220
-0
230
1
100
AcDbArc
50
89.99999999999838
51
180
0
LINE
5
140
100
AcDbEntity
8
0
100
AcDbLine
10
25.21801993244345
20
-280.42524800000047
30
0
11
38.218019932443511
21
-280.42524800000041
31
0
0
ARC
5
141
100
AcDbEntity
8
0
100
AcDbCircle
10
38.218019932540074
20
-280.92524786501133
30
0
40
0.499999865010885
210
0
220
-0
230
1
100
AcDbArc
50
89.916340557626469
51
90.000000011065296
0
ARC
5
142
100
AcDbEntity
8
0
100
AcDbCircle
10
38.218749999999972
20
-280.92524800000052
30
0
40
0.49999999999998934
210
0
220
0
230
1
100
AcDbArc
50
0
51
90.000000178363649
0
LINE
5
143
100
AcDbEntity
8
0
100
AcDbLine
10
38.718749999999957
20
-280.92524800000052
30
0
11
38.718749999999957
21
-293.92524800000047
31
0
0
ARC
5
144
100
AcDbEntity
8
0
100
AcDbCircle
10
38.218749999999972
20
-293.92524800000047
30
0
40
0.49999946700218345
210
0
220
0
230
1
100
AcDbArc
50
-90.000000089182663
51
0
0
ARC
5
145
100
AcDbEntity
8
0
100
AcDbCircle
10
79.968019932540017
20
-278.92524786512689
30
0
40
0.49999986512645478
210
0
220
-0
230
1
100
AcDbArc
50
89.916340557636019
51
90.000000011062042
0
ARC
5
146
100
AcDbEntity
8
0
100
AcDbCircle
10
79.968749999999915
20
-278.92524800000052
30
0
40
0.50000000000005151
210
0
220
-0
230
1
100
AcDbArc
50
0
51
90.000000178353886
0
LINE
5
147
100
AcDbEntity
8
0
100
AcDbLine
10
80.468749999999972
20
-278.92524800000052
30
0
11
80.468749999999972
21
-292.92524800000052
31
0
0
ARC
5
148
100
AcDbEntity
8
0
100
AcDbCircle
10
79.968749999999957
20
-292.92524800000052
30
0
40
0.50000000000000711
210
0
220
0
230
1
100
AcDbArc
50
-90.000000000001634
51
0
0
ARC
5
149
100
AcDbEntity
8
0
100
AcDbCircle
10
79.968019932443383
20
-292.9252480030367
30
0
40
0.49999999696371589
210
0
220
0
230
1
100
AcDbArc
50
270.00000000000648
51
270.08365952055482
0
LINE
5
150
100
AcDbEntity
8
0
100
AcDbLine
10
79.96801993244344
20
-293.42524800000041
30
0
11
73.968019932443454
21
-293.42524800000041
31
0
0
ARC
5
151
100
AcDbEntity
8
0
100
AcDbCircle
10
73.96801993244344
20
-292.92524800000041
30
0
40
0.5000000000000604
210
0
220
0
230
1
100
AcDbArc
50
180
51
270.00000000000159
0
LINE
5
152
100
AcDbEntity
8
0
100
AcDbLine
10
73.468019932443383
20
-292.92524800000047
30
0
11
73.468019932443482
21
-278.92524800000041
31
0
0
ARC
5
153
100
AcDbEntity
8
0
100
AcDbCircle
10
73.968019932443539
20
-278.92524800000047
30
0
40
0.50000000000004263
210
0
220
0
230
1
100
AcDbArc
50
90.000000000008143
51
180
0
LINE
5
154
100
AcDbEntity
8
0
100
AcDbLine
10
73.968019932443468
20
-278.42524800000041
30
0
11
79.968019932443482
21
-278.42524800000047
31
0
0
LWPOLYLINE
5
155
100
AcDbEntity
8
0
100
AcDbPolyline
90
8
70
1
43
0.0
10
203.31250000000006
20
-242.82524800000056
42
-0.41421356237332396
10
203.81250000000011
20
-242.32524800000056
10
216.81250000000006
20
-242.32524800000064
42
-0.41421356237294937
10
217.31250000000014
20
-242.82524800000056
10
217.31250000000006
20
-255.82524800000056
42
-0.41421356237313667
10
216.81250000000006
20
-256.32524800000056
10
203.81249999999997
20
-256.32524800000061
42
-0.41421356237319906
10
203.31250000000006
20
-255.82524800000056
0
LWPOLYLINE
5
156
100
AcDbEntity
8
0
100
AcDbPolyline
90
8
70
1
43
0.0
10
31.862499999999944
20
-242.82524800000047
42
-0.41421356237313406
10
32.362499999999947
20
-242.32524800000053
10
45.362499999999955
20
-242.32524800000044
42
-0.41421356237309503
10
45.86249999999994
20
-242.82524800000044
10
45.862499999999955
20
-255.8252480000005
42
-0.41421356237300661
10
45.362499999999955
20
-256.3252480000005
10
32.362499999999947
20
-256.3252480000005
42
-0.41421356237304563
10
31.862499999999933
20
-255.82524800000047
0
LWPOLYLINE
5
157
100
AcDbEntity
8
0
100
AcDbPolyline
90
8
70
1
43
0.0
10
183.47500000000011
20
-204.22524800000059
10
170.47499999999999
20
-204.22524800000059
42
0.41421356237311585
10
169.97500000000002
20
-204.72524800000053
10
169.97499999999999
20
-217.72524800000059
42
0.41421356237311585
10
170.47499999999999
20
-218.22524800000056
10
183.47500000000011
20
-218.22524800000056
42
0.41421356237319906
10
183.97500000000008
20
-217.72524800000056
10
183.97500000000008
20
-204.72524800000059
42
0.41421356237319906
0
LWPOLYLINE
5
158
100
AcDbEntity
8
0
100
AcDbPolyline
90
8
70
1
43
0.0
10
164.4250000000001
20
-204.22524800000062
10
151.42500000000007
20
-204.22524800000051
42
0.41421356237313667
10
150.92500000000004
20
-204.72524800000053
10
150.92500000000004
20
-217.72524800000059
42
0.41421356237312623
10
151.42500000000007
20
-218.22524800000056
10
164.4250000000001
20
-218.22524800000056
42
0.41421356237313667
10
164.92499999999995
20
-217.72524800000056
10
164.92500000000007
20
-204.72524800000053
42
0.41421356237311585
0
LWPOLYLINE
5
159
100
AcDbEntity
8
0
100
AcDbPolyline
90
8
70
1
43
0.0
10
202.52500000000001
20
-204.22524800000059
10
189.52500000000003
20
-204.22524800000051
42
0.41421356237309503
10
189.02500000000009
20
-204.72524800000059
10
189.02500000000001
20
-217.72524800000056
42
0.41421356237313667
10
189.52500000000001
20
-218.22524800000056
10
202.52499999999995
20
-218.22524800000056
42
0.41421356237321988
10
203.02499999999998
20
-217.72524800000056
10
203.02499999999998
20
-204.72524800000059
42
0.41421356237319906
0
LWPOLYLINE
5
160
100
AcDbEntity
8
0
100
AcDbPolyline
90
8
70
1
43
0.0
10
241.12500000000006
20
-217.72524800000056
42
-0.41421356237307422
10
240.62499999999994
20
-218.22524800000056
10
227.62500000000006
20
-218.22524800000056
42
-0.41421356237319906
10
227.12500000000006
20
-217.72524800000059
10
227.12500000000017
20
-204.72524800000059
42
-0.4142135623732407
10
227.62500000000006
20
-204.22524800000059
10
240.62499999999994
20
-204.22524800000059
42
-0.41421356237328233
10
241.12500000000006
20
-204.72524800000059
0
CIRCLE
5
161
100
AcDbEntity
8
0
100
AcDbCircle
10
138.97321099999996
20
-299.04229500000054
30
0
40
1.0999999999999943
210
0
220
0
230
1
0
LWPOLYLINE
5
162
100
AcDbEntity
8
0
100
AcDbPolyline
90
8
70
1
43
0.0
10
145.37500000000006
20
-204.22524800000051
10
132.375
20
-204.22524800000053
42
0.41421356237292856
10
131.87500000000006
20
-204.72524800000048
10
131.87499999999997
20
-217.72524800000056
42
0.41421356237310542
10
132.37499999999994
20
-218.22524800000053
10
145.37500000000006
20
-218.22524800000056
42
0.41421356237311585
10
145.875
20
-217.72524800000053
10
145.87499999999997
20
-204.72524800000053
42
0.41421356237307422
0
ARC
5
163
100
AcDbEntity
8
0
100
AcDbCircle
10
14.406249999999963
20
-293.92524800000052
30
0
40
0.49999999999997158
210
0
220
0
230
1
100
AcDbArc
50
-90.000000000001435
51
0
0
ARC
5
164
100
AcDbEntity
8
0
100
AcDbCircle
10
14.405519932443468
20
-293.92524800315834
30
0
40
0.49999999684214202
210
0
220
0
230
1
100
AcDbArc
50
270.00000000000529
51
270.08365952056624
0
LINE
5
165
100
AcDbEntity
8
0
100
AcDbLine
10
14.405519932443514
20
-294.42524800000047
30
0
11
1.4055199324435108
21
-294.42524800000041
31
0
0
ARC
5
166
100
AcDbEntity
8
0
100
AcDbCircle
10
1.4055199324435304
20
-293.92524800000041
30
0
40
0.50000000000002986
210
0
220
0
230
1
100
AcDbArc
50
180
51
269.99999999999773
0
LINE
5
167
100
AcDbEntity
8
0
100
AcDbLine
10
0.90551993244350037
20
-293.92524800000047
30
0
11
0.90551993244346818
21
-280.92524800000047
31
0
0
ARC
5
168
100
AcDbEntity
8
0
100
AcDbCircle
10
1.4055199324434531
20
-280.92524800000041
30
0
40
0.49999999999997158
210
0
220
-0
230
1
100
AcDbArc
50
89.999999999994543
51
180
0
LINE
5
169
100
AcDbEntity
8
0
100
AcDbLine
10
1.4055199324435008
20
-280.42524800000047
30
0
11
14.405519932443536
21
-280.42524746700212
31
0
0
ARC
5
170
100
AcDbEntity
8
0
100
AcDbCircle
10
14.405519932443839
20
-280.92524799609805
30
0
40
0.50000052909592085
210
0
220
-0
230
1
100
AcDbArc
50
89.916340479351319
51
90.000000000034817
0
ARC
5
171
100
AcDbEntity
8
0
100
AcDbCircle
10
14.406249999999904
20
-280.92524800000052
30
0
40
0.50000000000004707
210
0
220
-0
230
1
100
AcDbArc
50
0
51
89.999999999994301
0
LINE
5
172
100
AcDbEntity
8
0
100
AcDbLine
10
14.906249999999952
20
-280.92524800000047
30
0
11
14.906249999999934
21
-293.92524800000047
31
0
0
LWPOLYLINE
5
173
100
AcDbEntity
8
0
100
AcDbPolyline
90
8
70
1
43
0.0
10
103.79999999999998
20
-237.27524800000054
42
-0.4142135623730222
10
103.30000000000001
20
-236.77524800000054
10
103.29999999999998
20
-223.77524800000049
42
-0.41421356237301177
10
103.79999999999998
20
-223.27524800000054
10
116.8
20
-223.27524800000049
42
-0.41421356237314705
10
117.30000000000001
20
-223.77524800000049
10
117.29999999999998
20
-236.77524800000049
42
-0.4142135623732407
10
116.79999999999998
20
-237.27524800000054
0
CIRCLE
5
174
100
AcDbEntity
8
0
100
AcDbCircle
10
43.573210999999958
20
-199.54229500000051
30
0
40
1.0999999999999943
210
0
220
0
230
1
0
LWPOLYLINE
5
175
100
AcDbEntity
8
0
100
AcDbPolyline
90
8
70
1
43
0.0
10
122.34999999999994
20
-223.77524800000046
42
-0.41421356237314705
10
122.85000000000008
20
-223.27524800000049
10
135.85000000000005
20
-223.27524800000049
42
-0.41421356237303258
10
136.35000000000002
20
-223.77524800000049
10
136.35000000000005
20
-236.77524800000057
42
-0.41421356237310542
10
135.85000000000005
20
-237.27524800000054
10
122.85000000000008
20
-237.27524800000049
42
-0.41421356237299095
10
122.34999999999999
20
-236.77524800000049
0
LWPOLYLINE
5
176
100
AcDbEntity
8
0
100
AcDbPolyline
90
8
70
1
43
0.0
10
-0.97500000000002163
20
-218.22524800000056
42
-0.41421356237308188
10
-1.475000000000029
20
-217.72524800000053
10
-1.4750000000000512
20
-204.72524800000048
42
-0.41421356237314538
10
-0.97500000000002807
20
-204.22524800000048
10
12.02499999999997
20
-204.22524800000048
42
-0.41421356237311063
10
12.524999999999951
20
-204.72524800000048
10
12.525000000000006
20
-217.72524800000053
42
-0.41421356237308982
10
12.024999999999936
20
-218.22524800000053
0
LWPOLYLINE
5
177
100
AcDbEntity
8
0
100
AcDbPolyline
90
8
70
1
43
0.0
10
250.15000000000001
20
-223.27524800000049
10
237.15000000000001
20
-223.2752480000006
42
0.41421356237311585
10
236.65000000000009
20
-223.77524800000054
10
236.65000000000009
20
-236.77524800000057
42
0.41421356237301177
10
237.15000000000001
20
-237.2752480000006
10
250.15000000000001
20
-237.27524800000057
42
0.41421356237328233
10
250.65000000000012
20
-236.77524800000057
10
250.65000000000012
20
-223.77524800000054
42
0.41421356237284529
0
LWPOLYLINE
5
178
100
AcDbEntity
8
0
100
AcDbPolyline
90
8
70
1
43
0.0
10
79.199999999999974
20
-236.77524800000057
42
-0.4142135623730846
10
78.699999999999946
20
-237.27524800000054
10
65.69999999999996
20
-237.27524800000054
42
-0.41421356237311585
10
65.199999999999974
20
-236.77524800000057
10
65.199999999999974
20
-223.77524800000049
42
-0.41421356237326151
10
65.699999999999974
20
-223.27524800000049
10
78.699999999999974
20
-223.27524800000054
42
-0.41421356237304302
10
79.199999999999974
20
-223.77524800000049
0
LWPOLYLINE
5
179
100
AcDbEntity
8
0
100
AcDbPolyline
90
8
70
1
43
0.0
10
31.074999999999946
20
-204.22524800000048
10
18.074999999999974
20
-204.22524800000053
42
0.41421356237307555
10
17.574999999999985
20
-204.72524800000048
10
17.57499999999996
20
-217.72524800000053
42
0.41421356237315227
10
18.074999999999974
20
-218.22524800000053
10
31.07499999999995
20
-218.22524800000053
42
0.41421356237304302
10
31.574999999999953
20
-217.72524800000053
10
31.574999999999967
20
-204.72524800000048
42
0.41421356237314966
0
LWPOLYLINE
5
180
100
AcDbEntity
8
0
100
AcDbPolyline
90
8
70
1
43
0.0
10
70.462499999999935
20
-256.32524800000056
10
83.46249999999992
20
-256.32524800000056
42
0.41421356237303258
10
83.962499999999963
20
-255.82524800000056
10
83.962499999999963
20
-242.8252480000005
42
0.41421356237323032
10
83.46249999999992
20
-242.32524800000056
10
70.46249999999992
20
-242.32524800000053
42
0.41421356237307422
10
69.96249999999992
20
-242.82524800000039
10
69.962499999999949
20
-255.8252480000005
42
0.41421356237298057
0
LWPOLYLINE
5
181
100
AcDbEntity
8
0
100
AcDbPolyline
90
8
70
1
43
0.0
10
3.7874999999999304
20
-237.27524800000052
10
16.787499999999937
20
-237.27524800000054
42
0.41421356237313667
10
17.287499999999962
20
-236.77524800000054
10
17.287499999999973
20
-223.77524800000049
42
0.4142135623730846
10
16.787499999999955
20
-223.27524800000049
10
3.7874999999999357
20
-223.27524800000049
42
0.41421356237308204
10
3.2874999999999943
20
-223.77524800000049
10
3.2874999999999623
20
-236.77524800000054
42
0.41421356237317797
0
LWPOLYLINE
5
182
100
AcDbEntity
8
0
100
AcDbPolyline
90
8
70
1
43
0.0
10
103.01249999999999
20
-255.82524800000056
42
-0.41421356237321988
10
102.51249999999992
20
-256.32524800000056
10
89.512500000000003
20
-256.32524800000056
42
-0.41421356237293894
10
89.01249999999996
20
-255.82524800000044
10
89.01249999999996
20
-242.82524800000047
42
-0.41421356237307422
10
89.512500000000003
20
-242.32524800000053
10
102.5125
20
-242.3252480000005
42
-0.41421356237321988
10
103.01249999999999
20
-242.8252480000005
0
LWPOLYLINE
5
183
100
AcDbEntity
8
0
100
AcDbPolyline
90
8
70
1
43
0.0
10
60.149999999999942
20
-236.77524800000057
42
-0.41421356237314705
10
59.649999999999956
20
-237.27524800000054
10
46.649999999999956
20
-237.27524800000054
42
-0.41421356237304302
10
46.149999999999956
20
-236.77524800000054
10
46.149999999999949
20
-223.77524800000049
42
-0.4142135623730534
10
46.649999999999956
20
-223.27524800000054
10
59.649999999999963
20
-223.27524800000052
42
-0.41421356237307944
10
60.149999999999942
20
-223.77524800000046
0
LWPOLYLINE
5
184
100
AcDbEntity
8
0
100
AcDbPolyline
90
8
70
1
43
0.0
10
51.412499999999959
20
-256.3252480000005
10
64.412499999999966
20
-256.3252480000005
42
0.41421356237303258
10
64.912499999999952
20
-255.8252480000005
10
64.912499999999952
20
-242.82524800000047
42
0.41421356237310025
10
64.412499999999966
20
-242.32524800000056
10
51.412499999999952
20
-242.32524800000047
42
0.41421356237314705
10
50.912499999999952
20
-242.82524800000047
10
50.912499999999952
20
-255.8252480000005
42
0.41421356237302737
0
LWPOLYLINE
5
185
100
AcDbEntity
8
0
100
AcDbPolyline
90
8
70
1
43
0.0
10
37.124999999999972
20
-218.22524800000048
42
-0.41421356237327195
10
36.624999999999957
20
-217.72524800000056
10
36.624999999999972
20
-204.72524800000048
42
-0.41421356237317569
10
37.124999999999979
20
-204.22524800000048
10
50.124999999999957
20
-204.22524800000051
42
-0.41421356237323553
10
50.624999999999964
20
-204.72524800000048
10
50.624999999999936
20
-217.72524800000053
42
-0.41421356237309503
10
50.124999999999964
20
-218.22524800000051
0
LWPOLYLINE
5
186
100
AcDbEntity
8
0
100
AcDbPolyline
90
8
70
1
43
0.0
10
97.749999999999915
20
-223.27524800000049
42
-0.41421356237314705
10
98.249999999999915
20
-223.77524800000049
10
98.249999999999915
20
-236.77524800000049
42
-0.4142135623730846
10
97.75
20
-237.27524800000052
10
84.749999999999957
20
-237.27524800000054
42
-0.4142135623730846
10
84.249999999999886
20
-236.77524800000049
10
84.249999999999886
20
-223.77524800000049
42
-0.41421356237313667
10
84.749999999999957
20
-223.27524800000049
0
LWPOLYLINE
5
187
100
AcDbEntity
8
0
100
AcDbPolyline
90
8
70
1
43
0.0
10
93.775000000000091
20
-204.72524800000048
42
-0.41421356237311585
10
94.274999999999977
20
-204.22524800000053
10
107.27500000000003
20
-204.22524800000051
42
-0.41421356237307422
10
107.77499999999996
20
-204.72524800000056
10
107.77499999999992
20
-217.72524800000056
42
-0.41421356237313667
10
107.27499999999999
20
-218.22524800000051
10
94.274999999999977
20
-218.22524800000048
42
-0.41421356237315748
10
93.775000000000091
20
-217.72524800000045
0
LWPOLYLINE
5
188
100
AcDbEntity
8
0
100
AcDbPolyline
90
8
70
1
43
0.0
10
40.599999999999952
20
-223.27524800000054
10
27.599999999999962
20
-223.27524800000052
42
0.41421356237319651
10
27.099999999999955
20
-223.77524800000049
10
27.099999999999977
20
-236.77524800000054
42
0.41421356237313145
10
27.599999999999962
20
-237.27524800000052
10
40.599999999999952
20
-237.27524800000054
42
0.41421356237316787
10
41.099999999999959
20
-236.77524800000054
10
41.099999999999952
20
-223.77524800000049
42
0.41421356237319906
0
LWPOLYLINE
5
189
100
AcDbEntity
8
0
100
AcDbPolyline
90
8
70
1
43
0.0
10
199.05000000000004
20
-237.27524800000054
10
212.05000000000007
20
-237.27524800000057
42
0.41421356237313667
10
212.55000000000007
20
-236.77524800000057
10
212.55000000000007
20
-223.77524800000054
42
0.41421356237297013
10
212.05000000000007
20
-223.27524800000052
10
199.05000000000004
20
-223.2752480000006
42
0.41421356237313667
10
198.55000000000007
20
-223.77524800000054
10
198.55000000000007
20
-236.77524800000057
42
0.4142135623733656
0
LWPOLYLINE
5
190
100
AcDbEntity
8
0
100
AcDbPolyline
90
8
70
1
43
0.0
10
193.00000000000006
20
-223.27524800000052
10
180.00000000000003
20
-223.2752480000006
42
0.4142135623731783
10
179.50000000000003
20
-223.77524800000054
10
179.50000000000003
20
-236.77524800000057
42
0.41421356237313667
10
180.00000000000003
20
-237.27524800000057
10
193.00000000000006
20
-237.27524800000057
42
0.41421356237313667
10
193.50000000000006
20
-236.77524800000057
10
193.50000000000006
20
-223.77524800000054
42
0.41421356237297013
0
LWPOLYLINE
5
191
100
AcDbEntity
8
0
100
AcDbPolyline
90
8
70
1
43
0.0
10
197.76250000000007
20
-242.32524800000061
42
-0.41421356237311585
10
198.26249999999999
20
-242.82524800000056
10
198.26249999999999
20
-255.8252480000005
42
-0.4142135623732407
10
197.76250000000007
20
-256.3252480000005
10
184.76249999999993
20
-256.32524800000061
42
-0.41421356237313667
10
184.26249999999996
20
-255.82524800000056
10
184.26249999999996
20
-242.82524800000056
42
-0.4142135623732407
10
184.76250000000007
20
-242.32524800000061
0
LWPOLYLINE
5
192
100
AcDbEntity
8
0
100
AcDbPolyline
90
8
70
1
43
0.0
10
55.674999999999969
20
-204.72524800000045
42
-0.4142135623730846
10
56.174999999999855
20
-204.22524800000048
10
69.174999999999969
20
-204.22524800000051
42
-0.41421356237313145
10
69.675000000000068
20
-204.72524800000048
10
69.674999999999955
20
-217.72524800000053
42
-0.41421356237316265
10
69.174999999999969
20
-218.22524800000053
10
56.174999999999962
20
-218.22524800000053
42
-0.41421356237306384
10
55.674999999999969
20
-217.72524800000056
0
ARC
5
193
100
AcDbEntity
8
0
100
AcDbCircle
10
133.46801993244341
20
-293.92524800296974
30
0
40
0.49999999703068454
210
0
220
0
230
1
100
AcDbArc
50
270.00000000001955
51
270.08365952055078
0
LINE
5
194
100
AcDbEntity
8
0
100
AcDbLine
10
133.46801993244358
20
-294.42524800000041
30
0
11
120.46801993244355
21
-294.42524800000047
31
0
0
ARC
5
195
100
AcDbEntity
8
0
100
AcDbCircle
10
120.4680199324435
20
-293.92524800000041
30
0
40
0.50000000000000711
210
0
220
0
230
1
100
AcDbArc
50
180
51
270.00000000000648
0
LINE
5
196
100
AcDbEntity
8
0
100
AcDbLine
10
119.96801993244348
20
-293.92524800000052
30
0
11
119.96801993244355
21
-280.92524800000041
31
0
0
ARC
5
197
100
AcDbEntity
8
0
100
AcDbCircle
10
120.46801993244357
20
-280.92524800000041
30
0
40
0.50000000000000711
210
0
220
0
230
1
100
AcDbArc
50
90.000000000004889
51
180
0
LINE
5
198
100
AcDbEntity
8
0
100
AcDbLine
10
120.46801993244353
20
-280.42524800000035
30
0
11
133.46801993244355
21
-280.42524800000052
31
0
0
ARC
5
199
100
AcDbEntity
8
0
100
AcDbCircle
10
133.46801993254013
20
-280.92524786497495
30
0
40
0.49999986497439863
210
0
220
-0
230
1
100
AcDbArc
50
89.916340557623613
51
90.00000001106693
0
ARC
5
200
100
AcDbEntity
8
0
100
AcDbCircle
10
133.46874999999997
20
-280.92524800000058
30
0
40
0.50000000000002487
210
0
220
0
230
1
100
AcDbArc
50
0
51
90.000000178360395
0
LINE
5
201
100
AcDbEntity
8
0
100
AcDbLine
10
133.96875
20
-280.92524800000058
30
0
11
133.96875
21
-293.92524800000052
31
0
0
ARC
5
202
100
AcDbEntity
8
0
100
AcDbCircle
10
133.46874999999997
20
-293.92524800000052
30
0
40
0.49999946700207687
210
0
220
0
230
1
100
AcDbArc
50
-90.000000089173682
51
0
0
LWPOLYLINE
5
203
100
AcDbEntity
8
0
100
AcDbPolyline
90
8
70
1
43
0.0
10
189.02499999999998
20
-261.87524800000051
10
189.02499999999989
20
-274.87524800000051
42
0.41421356237311585
10
189.52499999999998
20
-275.37524800000057
10
202.52499999999998
20
-275.37524800000057
42
0.41421356237301177
10
203.02499999999995
20
-274.87524800000051
10
203.02500000000003
20
-261.87524800000051
42
0.41421356237311585
10
202.52500000000003
20
-261.37524800000057
10
189.52500000000001
20
-261.37524800000051
42
0.41421356237307422
0
CIRCLE
5
204
100
AcDbEntity
8
0
100
AcDbCircle
10
138.976517
20
-199.46110700000048
30
0
40
1.0999999999999943
210
0
220
0
230
1
0
LWPOLYLINE
5
205
100
AcDbEntity
8
0
100
AcDbPolyline
90
8
70
1
43
0.0
10
279.22500000000008
20
-274.87524800000057
42
-0.4142135623731783
10
278.72500000000008
20
-275.37524800000057
10
265.72500000000002
20
-275.37524800000057
42
-0.41421356237313667
10
265.22500000000008
20
-274.87524800000057
10
265.22500000000014
20
-261.87524800000051
42
-0.41421356237299095
10
265.72500000000002
20
-261.37524800000057
10
278.72500000000008
20
-261.37524800000057
42
-0.4142135623730534
10
279.22500000000008
20
-261.87524800000057
0
LWPOLYLINE
5
206
100
AcDbEntity
8
0
100
AcDbPolyline
90
8
70
1
43
0.0
10
107.27499999999999
20
-261.37524800000051
42
-0.4142135623730846
10
107.77500000000001
20
-261.87524800000051
10
107.77499999999996
20
-274.87524800000051
42
-0.41421356237309503
10
107.27499999999995
20
-275.37524800000057
10
94.274999999999963
20
-275.37524800000057
42
-0.41421356237311585
10
93.774999999999949
20
-274.87524800000045
10
93.774999999999991
20
-261.87524800000051
42
-0.41421356237300139
10
94.274999999999977
20
-261.37524800000057
0
LWPOLYLINE
5
207
100
AcDbEntity
8
0
100
AcDbPolyline
90
8
70
1
43
0.0
10
170.47499999999991
20
-275.37524800000057
10
183.47499999999994
20
-275.37524800000057
42
0.4142135623730534
10
183.97499999999994
20
-274.87524800000057
10
183.97499999999994
20
-261.87524800000051
42
0.41421356237319906
10
183.47499999999994
20
-261.37524800000057
10
170.47499999999997
20
-261.37524800000051
42
0.41421356237311585
10
169.97499999999997
20
-261.87524800000051
10
169.97499999999991
20
-274.87524800000051
42
0.41421356237309503
0
LWPOLYLINE
5
208
100
AcDbEntity
8
0
100
AcDbPolyline
90
8
70
1
43
0.0
10
208.0749999999999
20
-261.87524800000051
10
208.0749999999999
20
-274.87524800000051
42
0.41421356237319906
10
208.5749999999999
20
-275.37524800000057
10
221.57499999999993
20
-275.37524800000057
42
0.41421356237297013
10
222.07499999999987
20
-274.87524800000057
10
222.07499999999996
20
-261.87524800000051
42
0.41421356237319906
10
221.57499999999996
20
-261.37524800000057
10
208.57499999999993
20
-261.37524800000051
42
0.41421356237303258
0
ARC
5
209
100
AcDbEntity
8
0
100
AcDbCircle
10
179.96875000000003
20
-278.92524800000052
30
0
40
0.49999999999993605
210
0
220
0
230
1
100
AcDbArc
50
0
51
90.000000089189882
0
LINE
5
210
100
AcDbEntity
8
0
100
AcDbLine
10
180.46874999999997
20
-278.92524800000052
30
0
11
180.46874999999997
21
-292.92524800000058
31
0
0
ARC
5
211
100
AcDbEntity
8
0
100
AcDbCircle
10
179.96875
20
-292.92524800000058
30
0
40
0.49999999999997158
210
0
220
0
230
1
100
AcDbArc
50
-90.000000000009777
51
0
0
ARC
5
212
100
AcDbEntity
8
0
100
AcDbCircle
10
179.96801993246774
20
-292.92524800316392
30
0
40
0.49999999683656426
210
0
220
0
230
1
100
AcDbArc
50
269.99999999721535
51
270.08365951778171
0
LINE
5
213
100
AcDbEntity
8
0
100
AcDbLine
10
179.96801993244344
20
-293.42524800000047
30
0
11
173.96801993244344
21
-293.42524800000047
31
0
0
ARC
5
214
100
AcDbEntity
8
0
100
AcDbCircle
10
173.96801993244353
20
-292.92524800000047
30
0
40
0.49999999999997158
210
0
220
0
230
1
100
AcDbArc
50
180
51
269.99999999999022
0
LINE
5
215
100
AcDbEntity
8
0
100
AcDbLine
10
173.46801993244355
20
-292.92524800000047
30
0
11
173.46801993244355
21
-278.92524800000041
31
0
0
ARC
5
216
100
AcDbEntity
8
0
100
AcDbCircle
10
173.96801993244353
20
-278.92524800000035
30
0
40
0.49999999999993605
210
0
220
-0
230
1
100
AcDbArc
50
90
51
180
0
LINE
5
217
100
AcDbEntity
8
0
100
AcDbLine
10
173.96801993244353
20
-278.42524800000041
30
0
11
179.96801993244344
21
-278.42524800000041
31
0
0
ARC
5
218
100
AcDbEntity
8
0
100
AcDbCircle
10
179.96801993244344
20
-278.92524799677557
30
0
40
0.50000052977221587
210
0
220
-0
230
1
100
AcDbArc
50
89.916340568600006
51
90
0
LWPOLYLINE
5
219
100
AcDbEntity
8
0
100
AcDbPolyline
90
8
70
1
43
0.0
10
131.87499999999997
20
-261.87524800000051
10
131.87499999999997
20
-274.87524800000051
42
0.41421356237309503
10
132.375
20
-275.37524800000057
10
145.37499999999997
20
-275.37524800000057
42
0.41421356237307422
10
145.87499999999994
20
-274.87524800000057
10
145.875
20
-261.87524800000057
42
0.41421356237316787
10
145.37499999999997
20
-261.37524800000057
10
132.375
20
-261.37524800000057
42
0.41421356237309503
0
CIRCLE
5
220
100
AcDbEntity
8
0
100
AcDbCircle
10
234.07321100000007
20
-199.74229500000052
30
0
40
1.0999999999999943
210
0
220
0
230
1
0
LWPOLYLINE
5
221
100
AcDbEntity
8
0
100
AcDbPolyline
90
8
70
1
43
0.0
10
189.52499999999998
20
-294.42524800000058
10
204.9055199324435
20
-294.42524800000047
42
0.4142135623730534
10
205.40551993244353
20
-293.92524800000058
10
205.40551993244353
20
-280.92524800000041
42
0.41421356237299095
10
204.9055199324435
20
-280.42524800000041
10
189.52499999999998
20
-280.42524800000052
42
0.41421356237299095
10
189.02499999999989
20
-280.92524800000058
10
189.02499999999989
20
-293.92524800000058
42
0.41421356237309503
0
LWPOLYLINE
5
222
100
AcDbEntity
8
0
100
AcDbPolyline
90
8
70
1
43
0.0
10
69.174999999999955
20
-261.37524800000051
42
-0.41421356237310025
10
69.674999999999955
20
-261.87524800000051
10
69.674999999999955
20
-274.87524800000045
42
-0.4142135623730846
10
69.174999999999955
20
-275.37524800000057
10
56.174999999999962
20
-275.37524800000057
42
-0.41421356237316265
10
55.674999999999962
20
-274.87524800000045
10
55.674999999999947
20
-261.87524800000051
42
-0.41421356237305862
10
56.174999999999962
20
-261.37524800000051
0
LWPOLYLINE
5
223
100
AcDbEntity
8
0
100
AcDbPolyline
90
44
70
1
43
0.0
10
144.35268498061004
20
-201.70024750610051
42
-0.41094929877148512
10
142.375
20
-199.70037200000053
10
142.37500000000006
20
-199.60037200000059
42
0.99999999999999989
10
135.37499999999997
20
-199.60037200000056
10
135.37500049365005
20
-199.70037202489044
42
-0.41094929877287262
10
133.39731500000002
20
-201.70024800000027
10
49.102684980609972
20
-201.7002475061004
42
-0.4109492987714361
10
47.124999999999972
20
-199.7003720000005
10
47.124999999999915
20
-199.60037200000048
42
0.99999999999999989
10
40.124999999999964
20
-199.60037200000056
10
40.125000493650006
20
-199.70037202489044
42
-0.41094929877283065
10
38.147314999999942
20
-201.70024800000027
10
-2.0261735686769811
20
-201.70024800000027
42
0.41421356237306917
10
-4.0261735686769571
20
-203.70024800000024
10
-4.0261735686770095
20
-294.95037200000047
42
0.41421356237309631
10
-2.0261735686769944
20
-296.95037200000041
10
38.124999999999943
20
-296.95037200000047
42
-0.41421356237309959
10
40.12499999999995
20
-298.95037200000053
10
40.124999999999957
20
-299.05037200000055
42
0.99999999999999989
10
47.12499999999995
20
-299.05037200000049
10
47.125
20
-298.95037200000053
42
-0.41421356237311324
10
49.124999999999943
20
-296.95037200000053
10
133.375
20
-296.95037200000058
42
-0.41421356237317308
10
135.37499999999997
20
-298.95037200000053
10
135.375
20
-299.05037200000049
42
0.99999999999999989
10
142.375
20
-299.05037200000049
10
142.37499999999997
20
-298.95037200000053
42
-0.41421356237309503
10
144.37499999999997
20
-296.95037200000053
10
228.62499999999994
20
-296.95037200000058
42
-0.41421356237312101
10
230.62499999999989
20
-298.95037200000058
10
230.62499999999994
20
-299.05037200000055
42
0.99999999999999989
10
237.62500000000011
20
-299.05037200000055
10
237.62499999999974
20
-298.95037200000053
42
-0.41421356237310542
10
239.62499999999994
20
-296.95037200000047
10
279.74999999999994
20
-296.95037200000058
42
0.41421356237306384
10
281.75
20
-294.95037200000058
10
281.75
20
-203.70024750610045
42
0.414213562373069
10
279.75
20
-201.70024750610057
10
239.60268498060992
20
-201.7002475061006
42
-0.41094929877144881
10
237.62500000000014
20
-199.70037200000053
10
237.62500000000017
20
-199.6003720000005
42
0.99999999999999989
10
230.62500000000014
20
-199.6003720000005
10
230.62500049365008
20
-199.70037202489056
42
-0.41094929877286485
10
228.64731500000008
20
-201.70024800000044
0
ENDSEC
0
SECTION
2
OBJECTS
0
DICTIONARY
5
C
100
AcDbDictionary
3
ACAD_GROUP
350
D
3
ACAD_MLINESTYLE
350
17
0
DICTIONARY
5
D
100
AcDbDictionary
0
DICTIONARY
5
1A
330
C
100
AcDbDictionary
0
DICTIONARY
5
17
100
AcDbDictionary
0
ENDSEC
0
EOF
