0
SECTION
2
HEADER
9
$INSUNITS
70
4
9
$ACADVER
1
AC1014
9
$HANDSEED
5
FFFF
0
ENDSEC
0
SECTION
2
TABLES
0
TABLE
2
VPORT
5
8
100
AcDbSymbolTable
0
ENDTAB
0
TABLE
2
LTYPE
5
5
100
AcDbSymbolTable
0
LTYPE
5
14
100
AcDbSymbolTableRecord
100
AcDbLinetypeTableRecord
2
BYBLOCK
70
0
0
LTYPE
5
15
100
AcDbSymbolTableRecord
100
AcDbLinetypeTableRecord
2
BYLAYER
70
0
0
ENDTAB
0
TABLE
2
LAYER
5
2
100
AcDbSymbolTable
70
2
0
LAYER
5
50
100
AcDbSymbolTableRecord
100
AcDbLayerTableRecord
2
0
70
0
6
CONTINUOUS
0
ENDTAB
0
TABLE
2
STYLE
5
3
100
AcDbSymbolTable
70
1
0
STYLE
5
11
100
AcDbSymbolTableRecord
100
AcDbTextStyleTableRecord
2
STANDARD
70
0
0
ENDTAB
0
TABLE
2
VIEW
5
6
100
AcDbSymbolTable
70
0
0
ENDTAB
0
TABLE
2
UCS
5
7
100
AcDbSymbolTable
70
0
0
ENDTAB
0
TABLE
2
APPID
5
9
100
AcDbSymbolTable
70
2
0
APPID
5
12
100
AcDbSymbolTableRecord
100
AcDbRegAppTableRecord
2
ACAD
70
0
0
ENDTAB
0
TABLE
2
DIMSTYLE
5
A
100
AcDbSymbolTable
70
1
0
ENDTAB
0
TABLE
2
BLOCK_RECORD
5
1
100
AcDbSymbolTable
70
1
0
BLOCK_RECORD
5
1F
100
AcDbSymbolTableRecord
100
AcDbBlockTableRecord
2
*MODEL_SPACE
0
BLOCK_RECORD
5
1B
100
AcDbSymbolTableRecord
100
AcDbBlockTableRecord
2
*PAPER_SPACE
0
ENDTAB
0
ENDSEC
0
SECTION
2
BLOCKS
0
BLOCK
5
20
100
AcDbEntity
100
AcDbBlockBegin
2
*MODEL_SPACE
0
ENDBLK
5
21
100
AcDbEntity
100
AcDbBlockEnd
0
BLOCK
5
1C
100
AcDbEntity
100
AcDbBlockBegin
2
*PAPER_SPACE
0
ENDBLK
5
1D
100
AcDbEntity
100
AcDbBlockEnd
0
ENDSEC
0
SECTION
2
ENTITIES
0
LWPOLYLINE
5
100
100
AcDbEntity
8
0
100
AcDbPolyline
90
20
70
1
43
0.0
10
27.540347137353891
20
128.02524800000003
10
27.540347137353891
20
126.52524800000006
42
0.41421356237310542
10
28.040347137353898
20
126.02524800000009
10
34.040347137353891
20
126.02524800000005
42
0.41421356237310542
10
34.540347137353884
20
126.52524800000006
10
34.540347137353884
20
128.02524800000003
10
35.12734713735388
20
128.02524800000009
42
0.41421356237310542
10
35.627347137353887
20
128.52524800000009
10
35.62734713735388
20
141.52524800000006
42
0.41421356237310542
10
35.12734713735388
20
142.02524800000003
10
3.0773471373538897
20
142.02524800000006
42
0.41421356237310542
10
2.5773471373538914
20
141.52524800000006
10
2.5773471373538897
20
128.52524800000009
42
0.41421356237310542
10
3.0773471373538897
20
128.02524800000003
10
3.6643471373538894
20
128.02524800000003
10
3.6643471373538876
20
126.52524800000006
42
0.41421356237310542
10
4.1643471373538876
20
126.02524800000009
10
10.164347137353884
20
126.02524800000005
42
0.41421356237310414
10
10.664347137353891
20
126.52524800000006
10
10.664347137353891
20
128.02524800000003
0
LWPOLYLINE
5
101
100
AcDbEntity
8
0
100
AcDbPolyline
90
8
70
1
43
0.0
10
263.72734713735395
20
122.97524800000005
10
212.62734713735387
20
122.97524800000005
42
0.4142135623730534
10
212.12734713735387
20
122.47524800000005
10
212.12734713735387
20
109.47524800000004
42
0.41421356237311585
10
212.62734713735384
20
108.97524800000002
10
263.72734713735395
20
108.97524800000002
42
0.41421356237310542
10
264.22734713735395
20
109.47524800000004
10
264.227347137354
20
122.47524800000005
42
0.41421356237310542
0
ARC
5
102
100
AcDbEntity
8
0
100
AcDbCircle
10
42.271097137353884
20
109.47524800000008
30
0
40
0.50000000000000711
210
0
220
0
230
1
100
AcDbArc
50
-90
51
0
0
ARC
5
103
100
AcDbEntity
8
0
100
AcDbCircle
10
42.270367069802049
20
109.47524799047352
30
0
40
0.49999999047335209
210
0
220
0
230
1
100
AcDbArc
50
269.9999999994667
51
270.08365952109932
0
LINE
5
104
100
AcDbEntity
8
0
100
AcDbLine
10
42.270367069797395
20
108.97524800000016
30
0
11
29.270367069797388
21
108.97524800000016
31
0
0
ARC
5
105
100
AcDbEntity
8
0
100
AcDbCircle
10
29.270367069797341
20
109.47524800000011
30
0
40
0.49999999999994049
210
0
220
0
230
1
100
AcDbArc
50
180
51
270.00000000000529
0
LINE
5
106
100
AcDbEntity
8
0
100
AcDbLine
10
28.770367069797402
20
109.47524800000008
30
0
11
28.770367069797402
21
122.47524800000015
31
0
0
ARC
5
107
100
AcDbEntity
8
0
100
AcDbCircle
10
29.270367069797352
20
122.47524800000016
30
0
40
0.49999999999995381
210
0
220
-0
230
1
100
AcDbArc
50
89.999999999995936
51
180
0
LINE
5
108
100
AcDbEntity
8
0
100
AcDbLine
10
29.270367069797388
20
122.97524800000012
30
0
11
42.270367069797395
21
122.97524800000016
31
0
0
ARC
5
109
100
AcDbEntity
8
0
100
AcDbCircle
10
42.270367069802049
20
122.47524800952681
30
0
40
0.49999999047335209
210
0
220
-0
230
1
100
AcDbArc
50
89.91634047890166
51
90.000000000533319
0
ARC
5
110
100
AcDbEntity
8
0
100
AcDbCircle
10
42.271097137353877
20
122.47524800000005
30
0
40
0.50000000000000711
210
0
220
0
230
1
100
AcDbArc
50
0
51
90.000000089181029
0
LINE
5
111
100
AcDbEntity
8
0
100
AcDbLine
10
42.771097137353884
20
122.47524800000005
30
0
11
42.771097137353891
21
109.47524800000008
31
0
0
ARC
5
112
100
AcDbEntity
8
0
100
AcDbCircle
10
66.083597137353905
20
109.47524800000008
30
0
40
0.50000000000000711
210
0
220
0
230
1
100
AcDbArc
50
-90
51
0
0
ARC
5
113
100
AcDbEntity
8
0
100
AcDbCircle
10
66.082867069802006
20
109.47524799055869
30
0
40
0.49999999055851063
210
0
220
0
230
1
100
AcDbArc
50
269.99999999947073
51
270.08365952109239
0
LINE
5
114
100
AcDbEntity
8
0
100
AcDbLine
10
66.082867069797388
20
108.97524800000016
30
0
11
53.082867069797402
21
108.97524800000016
31
0
0
ARC
5
115
100
AcDbEntity
8
0
100
AcDbCircle
10
53.082867069797359
20
109.47524800000014
30
0
40
0.4999999999999627
210
0
220
0
230
1
100
AcDbArc
50
180
51
270.00000000000489
0
LINE
5
116
100
AcDbEntity
8
0
100
AcDbLine
10
52.582867069797395
20
109.47524800000008
30
0
11
52.582867069797395
21
122.47524800000015
31
0
0
ARC
5
117
100
AcDbEntity
8
0
100
AcDbCircle
10
53.082867069797388
20
122.47524800000016
30
0
40
0.49999999999998934
210
0
220
-0
230
1
100
AcDbArc
50
89.99999999999838
51
180
0
LINE
5
118
100
AcDbEntity
8
0
100
AcDbLine
10
53.082867069797402
20
122.97524800000016
30
0
11
66.082867069797388
21
122.97524800000016
31
0
0
ARC
5
119
100
AcDbEntity
8
0
100
AcDbCircle
10
66.082867069801935
20
122.47524800934428
30
0
40
0.49999999065583722
210
0
220
-0
230
1
100
AcDbArc
50
89.916340478916709
51
90.000000000521098
0
ARC
5
120
100
AcDbEntity
8
0
100
AcDbCircle
10
66.083597137353891
20
122.47524800000005
30
0
40
0.50000000000000711
210
0
220
0
230
1
100
AcDbArc
50
0
51
90.000000089180205
0
LINE
5
121
100
AcDbEntity
8
0
100
AcDbLine
10
66.583597137353905
20
122.47524800000005
30
0
11
66.583597137353905
21
109.47524800000008
31
0
0
ARC
5
122
100
AcDbEntity
8
0
100
AcDbCircle
10
84.021097137353877
20
110.47524800000005
30
0
40
0.50000000000000711
210
0
220
0
230
1
100
AcDbArc
50
-90
51
0
0
ARC
5
123
100
AcDbEntity
8
0
100
AcDbCircle
10
84.020367069801836
20
110.47524799076547
30
0
40
0.49999999076533186
210
0
220
0
230
1
100
AcDbArc
50
269.99999999949193
51
270.08365952107408
0
LINE
5
124
100
AcDbEntity
8
0
100
AcDbLine
10
84.020367069797402
20
109.97524800000014
30
0
11
78.020367069797373
21
109.97524800000011
31
0
0
ARC
5
125
100
AcDbEntity
8
0
100
AcDbCircle
10
78.020367069797373
20
110.47524800000019
30
0
40
0.50000000000006928
210
0
220
0
230
1
100
AcDbArc
50
180
51
270
0
LINE
5
126
100
AcDbEntity
8
0
100
AcDbLine
10
77.520367069797317
20
110.47524800000012
30
0
11
77.520367069797402
21
124.47524800000014
31
0
0
ARC
5
127
100
AcDbEntity
8
0
100
AcDbCircle
10
78.020367069797459
20
124.47524800000008
30
0
40
0.5000000000000604
210
0
220
0
230
1
100
AcDbArc
50
90.000000000008143
51
180
0
LINE
5
128
100
AcDbEntity
8
0
100
AcDbLine
10
78.020367069797388
20
124.97524800000014
30
0
11
84.020367069797402
21
124.97524800000015
31
0
0
ARC
5
129
100
AcDbEntity
8
0
100
AcDbCircle
10
84.020367069802106
20
124.47524800957547
30
0
40
0.49999999042467991
210
0
220
-0
230
1
100
AcDbArc
50
89.916340478897581
51
90.000000000539018
0
ARC
5
130
100
AcDbEntity
8
0
100
AcDbCircle
10
84.021097137353877
20
124.47524800000008
30
0
40
0.50000000000000711
210
0
220
0
230
1
100
AcDbArc
50
0
51
90.00000008917857
0
LINE
5
131
100
AcDbEntity
8
0
100
AcDbLine
10
84.521097137353891
20
124.47524800000008
30
0
11
84.521097137353891
21
110.47524800000005
31
0
0
LWPOLYLINE
5
132
100
AcDbEntity
8
0
100
AcDbPolyline
90
37
70
1
43
0.0
10
266.89609713735393
20
161.07524800000004
10
245.96484713735393
20
161.07524800000004
42
0.41421356237297013
10
245.4648471373539
20
160.57524800000004
10
245.46484713735393
20
147.57524800000002
42
0.41421356237310542
10
245.96484713735393
20
147.07524800000004
10
248.93309713735414
20
147.07524800000004
10
248.93309713735414
20
145.57524800000004
42
0.41421356237301177
10
249.43309713735388
20
145.07524799999999
10
255.43309713735411
20
145.0752480000001
42
0.41421356237309503
10
255.93309713735403
20
145.57524800000004
10
255.93309713735403
20
147.07524800000004
10
270.87109713735407
20
147.07524799999999
42
0.41421356237310542
10
271.37109713735407
20
147.57524800000002
10
271.37109713735407
20
148.16224800000003
10
272.80909713735406
20
148.16224800000003
10
272.80909713735406
20
145.57524800000004
42
0.41421356237299095
10
273.30909713735394
20
145.07524800000013
10
279.30909713735394
20
145.07524800000002
42
0.4142135623730534
10
279.80909713735406
20
145.57524800000004
10
279.80909713735406
20
148.38041294185447
42
0.15083409114165092
10
279.89609713735399
20
148.66224800000001
10
279.89609713735399
20
156.60024800000002
10
280.39609713735393
20
156.60024800000002
42
0.4142135623730222
10
280.89609713735393
20
157.10024800000002
10
280.89609713735393
20
170.10024800000002
42
0.41421356237313667
10
280.39609713735393
20
170.60024800000005
10
279.89609713735399
20
170.60024800000005
10
279.89609713735393
20
178.53824800000001
42
0.41421356237313667
10
279.39609713735393
20
179.03824800000007
10
278.51484713735385
20
179.03824800000007
10
278.51484713735385
20
179.62524800000006
42
0.41421356237301177
10
278.01484713735397
20
180.12524799999997
10
265.01484713735402
20
180.12524800000006
42
0.41421356237319906
10
264.51484713735391
20
179.62524800000006
10
264.51484713735402
20
166.625248
42
0.41421356237309503
10
265.01484713735402
20
166.125248
10
266.89609713735393
20
166.12524800000003
0
LWPOLYLINE
5
133
100
AcDbEntity
8
0
100
AcDbPolyline
90
8
70
1
43
0.0
10
208.95786706979746
20
122.97524800000012
10
193.57734713735391
20
122.97524800000005
42
0.4142135623730222
10
193.07734713735388
20
122.47524800000005
10
193.07734713735388
20
109.47524800000004
42
0.41421356237310542
10
193.57734713735391
20
108.97524800000002
10
208.95786706979746
20
108.97524800000014
42
0.4142135623730534
10
209.45786706979749
20
109.47524800000004
10
209.45786706979749
20
122.47524800000014
42
0.41421356237306384
0
ARC
5
134
100
AcDbEntity
8
0
100
AcDbCircle
10
184.02109713735393
20
110.47524800000002
30
0
40
0.49999999999997158
210
0
220
0
230
1
100
AcDbArc
50
-90.000000000006523
51
0
0
ARC
5
135
100
AcDbEntity
8
0
100
AcDbCircle
10
184.02036706980203
20
110.47524799047346
30
0
40
0.49999999047335209
210
0
220
0
230
1
100
AcDbArc
50
269.99999999946914
51
270.08365952110012
0
LINE
5
136
100
AcDbEntity
8
0
100
AcDbLine
10
184.0203670697974
20
109.97524800000011
30
0
11
178.02036706979737
21
109.97524800000011
31
0
0
ARC
5
137
100
AcDbEntity
8
0
100
AcDbCircle
10
178.02036706979746
20
110.47524800000008
30
0
40
0.49999999999997158
210
0
220
0
230
1
100
AcDbArc
50
180
51
269.99999999999022
0
LINE
5
138
100
AcDbEntity
8
0
100
AcDbLine
10
177.52036706979749
20
110.47524800000012
30
0
11
177.52036706979749
21
124.47524800000014
31
0
0
ARC
5
139
100
AcDbEntity
8
0
100
AcDbCircle
10
178.02036706979746
20
124.47524800000016
30
0
40
0.49999999999998934
210
0
220
-0
230
1
100
AcDbArc
50
90
51
180
0
LINE
5
140
100
AcDbEntity
8
0
100
AcDbLine
10
178.02036706979746
20
124.97524800000015
30
0
11
184.02036706979746
21
124.97524800000011
31
0
0
ARC
5
141
100
AcDbEntity
8
0
100
AcDbCircle
10
184.02036706980215
20
124.47524800967278
30
0
40
0.49999999032735332
210
0
220
-0
230
1
100
AcDbArc
50
89.916340478887818
51
90.000000000537383
0
ARC
5
142
100
AcDbEntity
8
0
100
AcDbCircle
10
184.02109713735393
20
124.47524800000008
30
0
40
0.49999999999997158
210
0
220
0
230
1
100
AcDbArc
50
0
51
90.000000089186713
0
LINE
5
143
100
AcDbEntity
8
0
100
AcDbLine
10
184.52109713735388
20
124.47524800000004
30
0
11
184.52109713735388
21
110.47524800000005
31
0
0
ARC
5
144
100
AcDbEntity
8
0
100
AcDbCircle
10
137.52109713735391
20
109.47524800000004
30
0
40
0.50000000000000711
210
0
220
0
230
1
100
AcDbArc
50
-90
51
0
0
ARC
5
145
100
AcDbEntity
8
0
100
AcDbCircle
10
137.52036706980226
20
109.47524799018151
30
0
40
0.49999999018137231
210
0
220
0
230
1
100
AcDbArc
50
269.99999999945283
51
270.08365952112621
0
LINE
5
146
100
AcDbEntity
8
0
100
AcDbLine
10
137.52036706979749
20
108.97524800000014
30
0
11
124.52036706979747
21
108.97524800000014
31
0
0
ARC
5
147
100
AcDbEntity
8
0
100
AcDbCircle
10
124.52036706979743
20
109.47524800000018
30
0
40
0.50000000000004263
210
0
220
0
230
1
100
AcDbArc
50
180
51
270.00000000000489
0
LINE
5
148
100
AcDbEntity
8
0
100
AcDbLine
10
124.0203670697974
20
109.47524800000004
30
0
11
124.02036706979746
21
122.47524800000015
31
0
0
ARC
5
149
100
AcDbEntity
8
0
100
AcDbCircle
10
124.52036706979743
20
122.47524800000019
30
0
40
0.49999999999997158
210
0
220
-0
230
1
100
AcDbArc
50
90
51
180
0
LINE
5
150
100
AcDbEntity
8
0
100
AcDbLine
10
124.52036706979743
20
122.97524800000016
30
0
11
137.52036706979749
21
122.97524800000008
31
0
0
ARC
5
151
100
AcDbEntity
8
0
100
AcDbCircle
10
137.52036706980221
20
122.47524800972135
30
0
40
0.4999999902786989
210
0
220
-0
230
1
100
AcDbArc
50
89.916340478886184
51
90.000000000540652
0
ARC
5
152
100
AcDbEntity
8
0
100
AcDbCircle
10
137.52109713735391
20
122.47524800000005
30
0
40
0.50000000000000711
210
0
220
0
230
1
100
AcDbArc
50
0
51
90.000000089183459
0
LINE
5
153
100
AcDbEntity
8
0
100
AcDbLine
10
138.02109713735391
20
122.47524800000005
30
0
11
138.02109713735391
21
109.47524800000004
31
0
0
LWPOLYLINE
5
154
100
AcDbEntity
8
0
100
AcDbPolyline
90
8
70
1
43
0.0
10
60.227347137353895
20
128.02524800000003
10
73.227347137353888
20
128.02524800000003
42
0.41421356237308982
10
73.727347137353874
20
128.52524800000009
10
73.727347137353888
20
141.52524800000006
42
0.41421356237308982
10
73.227347137353888
20
142.02524800000003
10
60.227347137353895
20
142.02524800000006
42
0.41421356237308982
10
59.727347137353888
20
141.52524800000006
10
59.727347137353902
20
128.52524800000009
42
0.41421356237308982
0
LWPOLYLINE
5
155
100
AcDbEntity
8
0
100
AcDbPolyline
90
8
70
1
43
0.0
10
136.42734713735391
20
128.02524800000003
10
149.42734713735388
20
128.02524800000003
42
0.41421356237309503
10
149.92734713735388
20
128.52524800000003
10
149.92734713735391
20
141.52524800000006
42
0.41421356237309503
10
149.42734713735391
20
142.02524800000003
10
136.42734713735393
20
142.02524800000006
42
0.41421356237309503
10
135.92734713735393
20
141.52524800000006
10
135.92734713735388
20
128.52524800000009
42
0.41421356237309503
0
LWPOLYLINE
5
156
100
AcDbEntity
8
0
100
AcDbPolyline
90
8
70
1
43
0.0
10
168.97734713735389
20
128.52524800000003
42
-0.4142135623730534
10
168.47734713735389
20
128.02524800000003
10
155.47734713735392
20
128.02524800000003
42
-0.41421356237309503
10
154.97734713735389
20
128.52524800000003
10
154.97734713735395
20
141.52524800000006
42
-0.41421356237309503
10
155.47734713735395
20
142.02524800000006
10
168.47734713735392
20
142.02524800000009
42
-0.41421356237310542
10
168.97734713735392
20
141.52524800000006
0
LWPOLYLINE
5
157
100
AcDbEntity
8
0
100
AcDbPolyline
90
8
70
1
43
0.0
10
40.677347137353877
20
141.52524800000006
10
40.677347137353877
20
128.52524800000009
42
0.41421356237308982
10
41.177347137353884
20
128.02524800000003
10
54.177347137353891
20
128.02524800000009
42
0.41421356237308982
10
54.677347137353898
20
128.52524800000009
10
54.677347137353891
20
141.52524800000006
42
0.41421356237308982
10
54.177347137353891
20
142.02524800000003
10
41.177347137353884
20
142.02524800000006
42
0.41421356237308982
0
LWPOLYLINE
5
158
100
AcDbEntity
8
0
100
AcDbPolyline
90
8
70
1
43
0.0
10
269.77734713735396
20
128.02524800000003
10
282.77734713735401
20
128.02524800000003
42
0.4142135623730222
10
283.27734713735396
20
128.52524800000003
10
283.27734713735401
20
141.52524800000006
42
0.41421356237310542
10
282.77734713735401
20
142.02524800000003
10
269.77734713735396
20
142.02524800000006
42
0.4142135623730222
10
269.27734713735396
20
141.52524800000006
10
269.27734713735396
20
128.52524800000003
42
0.41421356237310542
0
LWPOLYLINE
5
159
100
AcDbEntity
8
0
100
AcDbPolyline
90
8
70
1
43
0.0
10
174.0273471373539
20
141.52524800000006
10
174.02734713735387
20
128.52524800000003
42
0.41421356237310542
10
174.5273471373539
20
128.02524800000003
10
187.52734713735384
20
128.02524800000003
42
0.4142135623730222
10
188.02734713735387
20
128.52524800000003
10
188.0273471373539
20
141.52524800000006
42
0.41421356237313667
10
187.5273471373539
20
142.02524800000003
10
174.52734713735393
20
142.02524800000006
42
0.4142135623730534
0
LWPOLYLINE
5
160
100
AcDbEntity
8
0
100
AcDbPolyline
90
8
70
1
43
0.0
10
193.57734713735391
20
128.02524800000003
10
206.57734713735391
20
128.02524800000003
42
0.4142135623730534
10
207.07734713735391
20
128.52524800000003
10
207.07734713735394
20
141.52524800000006
42
0.41421356237310542
10
206.57734713735394
20
142.02524800000003
10
193.57734713735394
20
142.02524800000006
42
0.4142135623730534
10
193.07734713735391
20
141.52524800000006
10
193.07734713735388
20
128.52524800000003
42
0.41421356237310542
0
LWPOLYLINE
5
161
100
AcDbEntity
8
0
100
AcDbPolyline
90
8
70
1
43
0.0
10
98.327347137353883
20
128.02524800000003
10
111.32734713735388
20
128.02524800000003
42
0.41421356237309503
10
111.82734713735388
20
128.52524800000009
10
111.82734713735393
20
141.52524800000006
42
0.41421356237309503
10
111.32734713735391
20
142.02524800000006
10
98.327347137353911
20
142.02524800000006
42
0.41421356237309503
10
97.827347137353911
20
141.52524800000006
10
97.827347137353868
20
128.52524800000009
42
0.41421356237309503
0
LWPOLYLINE
5
162
100
AcDbEntity
8
0
100
AcDbPolyline
90
8
70
1
43
0.0
10
212.62734713735387
20
128.02524800000003
10
225.62734713735387
20
128.02524800000003
42
0.4142135623730222
10
226.12734713735389
20
128.52524800000003
10
226.12734713735392
20
141.52524800000006
42
0.41421356237313667
10
225.62734713735392
20
142.02524800000003
10
212.62734713735392
20
142.02524800000006
42
0.4142135623730222
10
212.12734713735389
20
141.52524800000006
10
212.12734713735387
20
128.52524800000003
42
0.41421356237313667
0
LWPOLYLINE
5
163
100
AcDbEntity
8
0
100
AcDbPolyline
90
8
70
1
43
0.0
10
250.72734713735395
20
128.02524800000003
10
263.72734713735395
20
128.02524800000003
42
0.4142135623730222
10
264.22734713735395
20
128.52524800000003
10
264.227347137354
20
141.52524800000006
42
0.41421356237310542
10
263.72734713735395
20
142.02524800000003
10
250.72734713735395
20
142.02524800000006
42
0.4142135623730222
10
250.22734713735395
20
141.52524800000006
10
250.22734713735392
20
128.52524800000003
42
0.41421356237310542
0
LWPOLYLINE
5
164
100
AcDbEntity
8
0
100
AcDbPolyline
90
8
70
1
43
0.0
10
231.17734713735391
20
141.52524800000006
10
231.17734713735388
20
128.52524800000003
42
0.41421356237311585
10
231.67734713735385
20
128.02524800000003
10
244.67734713735388
20
128.02524800000003
42
0.4142135623730222
10
245.17734713735388
20
128.52524800000003
10
245.17734713735391
20
141.52524800000006
42
0.41421356237310542
10
244.67734713735388
20
142.02524800000003
10
231.67734713735393
20
142.02524800000006
42
0.4142135623730222
0
LWPOLYLINE
5
165
100
AcDbEntity
8
0
100
AcDbPolyline
90
8
70
1
43
0.0
10
117.37734713735389
20
128.02524800000003
10
130.37734713735387
20
128.02524800000003
42
0.41421356237309503
10
130.87734713735387
20
128.52524800000009
10
130.87734713735389
20
141.52524800000006
42
0.41421356237309503
10
130.37734713735389
20
142.02524800000006
10
117.37734713735392
20
142.02524800000006
42
0.41421356237309503
10
116.87734713735392
20
141.52524800000006
10
116.87734713735388
20
128.52524800000009
42
0.41421356237309503
0
LWPOLYLINE
5
166
100
AcDbEntity
8
0
100
AcDbPolyline
90
8
70
1
43
0.0
10
92.777347137353871
20
128.52524800000009
42
-0.41421356237309503
10
92.277347137353871
20
128.02524800000009
10
79.277347137353885
20
128.02524800000009
42
-0.41421356237309503
10
78.777347137353871
20
128.52524800000009
10
78.777347137353871
20
141.52524800000006
42
-0.41421356237308982
10
79.277347137353871
20
142.02524800000006
10
92.2773471373539
20
142.02524800000006
42
-0.41421356237309503
10
92.777347137353914
20
141.52524800000006
0
CIRCLE
5
167
100
AcDbEntity
8
0
100
AcDbCircle
10
143.02886413735393
20
203.93938900000006
30
0
40
1.0999999999999943
210
0
220
-0
230
1
0
LWPOLYLINE
5
168
100
AcDbEntity
8
0
100
AcDbPolyline
90
8
70
1
43
0.0
10
282.77734713735401
20
122.97524800000005
10
267.39536706979766
20
122.97524800000008
42
0.41421356237326151
10
266.89536706979754
20
122.47524800000011
10
266.89536706979749
20
109.47524800000004
42
0.41421356237306384
10
267.39536706979766
20
108.97524800000014
10
282.77734713735401
20
108.97524800000002
42
0.41421356237310542
10
283.27734713735396
20
109.47524800000004
10
283.27734713735401
20
122.47524800000005
42
0.41421356237310542
0
CIRCLE
5
169
100
AcDbEntity
8
0
100
AcDbCircle
10
238.12555813735395
20
203.65820100000005
30
0
40
1.0999999999999943
210
0
220
-0
230
1
0
LWPOLYLINE
5
170
100
AcDbEntity
8
0
100
AcDbPolyline
90
8
70
1
43
0.0
10
79.2773471373539
20
185.17524800000007
10
92.277347137353942
20
185.17524800000007
42
0.41421356237310542
10
92.777347137353871
20
185.67524800000004
10
92.777347137353871
20
198.6752480000001
42
0.41421356237312623
10
92.2773471373539
20
199.17524800000007
10
79.277347137353885
20
199.17524800000001
42
0.41421356237310025
10
78.777347137353914
20
198.67524800000007
10
78.7773471373539
20
185.67524800000004
42
0.4142135623730846
0
LWPOLYLINE
5
171
100
AcDbEntity
8
0
100
AcDbPolyline
90
8
70
1
43
0.0
10
98.327347137353911
20
185.17524800000007
10
111.32734713735391
20
185.17524800000007
42
0.41421356237314705
10
111.82734713735388
20
185.67524800000004
10
111.82734713735388
20
198.67524800000001
42
0.41421356237307422
10
111.32734713735395
20
199.17524800000001
10
98.327347137353911
20
199.17524800000001
42
0.41421356237311585
10
97.82734713735401
20
198.67524800000007
10
97.82734713735401
20
185.67524800000007
42
0.41421356237311585
0
LWPOLYLINE
5
172
100
AcDbEntity
8
0
100
AcDbPolyline
90
8
70
1
43
0.0
10
83.252347137353865
20
166.625248
42
-0.41421356237314705
10
82.75234713735388
20
166.12524800000003
10
69.752347137353894
20
166.12524800000003
42
-0.4142135623731783
10
69.252347137353894
20
166.62524800000003
10
69.252347137353908
20
179.62524800000008
42
-0.4142135623731939
10
69.752347137353908
20
180.12524800000006
10
82.752347137353894
20
180.125248
42
-0.41421356237307422
10
83.252347137353894
20
179.62524800000006
0
LWPOLYLINE
5
173
100
AcDbEntity
8
0
100
AcDbPolyline
90
8
70
1
43
0.0
10
2.5773471373539003
20
198.67524800000007
10
2.5773471373539003
20
185.67524800000004
42
0.41421356237311324
10
3.0773471373539074
20
185.17524800000007
10
16.077347137353868
20
185.17524800000004
42
0.4142135623730781
10
16.577347137353897
20
185.67524800000004
10
16.577347137353875
20
198.67524800000007
42
0.41421356237303647
10
16.077347137353904
20
199.17524800000007
10
3.0773471373538985
20
199.17524800000007
42
0.41421356237313145
0
LWPOLYLINE
5
174
100
AcDbEntity
8
0
100
AcDbPolyline
90
8
70
1
43
0.0
10
7.3398471373539032
20
179.62524800000008
10
7.3398471373538943
20
166.62524800000003
42
0.41421356237312495
10
7.8398471373538658
20
166.12524800000006
10
20.839847137353871
20
166.12524800000003
42
0.41421356237305862
10
21.3398471373539
20
166.62524800000003
10
21.3398471373539
20
179.62524800000008
42
0.41421356237304041
10
20.839847137353892
20
180.12524800000006
10
7.8398471373538658
20
180.12524800000008
42
0.41421356237307294
0
CIRCLE
5
175
100
AcDbEntity
8
0
100
AcDbCircle
10
47.625558137353885
20
203.85820100000007
30
0
40
1.0999999999999943
210
0
220
-0
230
1
0
LWPOLYLINE
5
176
100
AcDbEntity
8
0
100
AcDbPolyline
90
8
70
1
43
0.0
10
35.627347137353873
20
185.67524800000004
10
35.627347137353887
20
198.67524800000007
42
0.41421356237308204
10
35.12734713735388
20
199.1752480000001
10
22.127347137353894
20
199.17524800000001
42
0.41421356237309764
10
21.627347137353922
20
198.67524800000007
10
21.627347137353887
20
185.67524800000004
42
0.41421356237313145
10
22.127347137353894
20
185.17524800000004
10
35.12734713735388
20
185.17524800000004
42
0.41421356237307944
0
LWPOLYLINE
5
177
100
AcDbEntity
8
0
100
AcDbPolyline
90
8
70
1
43
0.0
10
106.56484713735392
20
161.07524800000004
10
93.564847137353908
20
161.07524800000004
42
0.41421356237311585
10
93.064847137353894
20
160.57524800000007
10
93.064847137353894
20
147.57524800000007
42
0.41421356237298057
10
93.564847137353908
20
147.07524800000004
10
106.56484713735384
20
147.07524800000004
42
0.41421356237319906
10
107.06484713735392
20
147.57524800000004
10
107.06484713735392
20
160.57524800000004
42
0.41421356237325113
0
LWPOLYLINE
5
178
100
AcDbEntity
8
0
100
AcDbPolyline
90
8
70
1
43
0.0
10
102.30234713735383
20
166.62524800000006
42
-0.41421356237316787
10
101.80234713735391
20
166.12524800000006
10
88.802347137353905
20
166.12524800000006
42
-0.41421356237309503
10
88.30234713735382
20
166.62524800000006
10
88.302347137353806
20
179.62524800000006
42
-0.41421356237314705
10
88.802347137353905
20
180.12524800000008
10
101.80234713735385
20
180.12524800000006
42
-0.41421356237313667
10
102.30234713735385
20
179.62524800000006
0
LWPOLYLINE
5
179
100
AcDbEntity
8
0
100
AcDbPolyline
90
8
70
1
43
0.0
10
87.514847137353868
20
161.07524800000004
10
74.514847137353868
20
161.07524800000004
42
0.41421356237317308
10
74.014847137353883
20
160.57524800000007
10
74.014847137353883
20
147.57524800000004
42
0.41421356237301699
10
74.514847137353854
20
147.07524800000004
10
87.514847137353868
20
147.07524800000004
42
0.41421356237309503
10
88.014847137353911
20
147.57524800000004
10
88.014847137353897
20
160.57524800000004
42
0.41421356237315748
0
LWPOLYLINE
5
180
100
AcDbEntity
8
0
100
AcDbPolyline
90
8
70
1
43
0.0
10
31.6523471373539
20
166.12524800000006
42
-0.41421356237313406
10
31.152347137353892
20
166.62524800000006
10
31.152347137353878
20
179.62524800000008
42
-0.41421356237314444
10
31.6523471373539
20
180.125248
10
44.652347137353885
20
180.125248
42
-0.41421356237318346
10
45.152347137353878
20
179.62524800000006
10
45.152347137353885
20
166.62524800000003
42
-0.41421356237317308
10
44.652347137353885
20
166.12524800000003
0
LWPOLYLINE
5
181
100
AcDbEntity
8
0
100
AcDbPolyline
90
8
70
1
43
0.0
10
63.702347137353883
20
180.12524800000006
42
-0.41421356237313145
10
64.202347137353868
20
179.62524800000006
10
64.202347137353883
20
166.62524800000003
42
-0.41421356237317308
10
63.702347137353883
20
166.12524800000003
10
50.702347137353875
20
166.12524800000003
42
-0.41421356237307944
10
50.202347137353883
20
166.62524800000003
10
50.202347137353911
20
179.62524800000008
42
-0.41421356237315227
10
50.702347137353875
20
180.125248
0
LWPOLYLINE
5
182
100
AcDbEntity
8
0
100
AcDbPolyline
90
8
70
1
43
0.0
10
54.677347137353898
20
185.67524800000004
10
54.677347137353884
20
198.67524800000007
42
0.41421356237318868
10
54.177347137353891
20
199.17524800000007
10
41.177347137353905
20
199.17524800000007
42
0.4142135623731783
10
40.677347137353877
20
198.67524800000007
10
40.677347137353877
20
185.67524800000001
42
0.4142135623731939
10
41.177347137353884
20
185.17524800000007
10
54.177347137353877
20
185.17524800000007
42
0.41421356237311063
0
LWPOLYLINE
5
183
100
AcDbEntity
8
0
100
AcDbPolyline
90
8
70
1
43
0.0
10
59.727347137353874
20
198.67524800000007
42
-0.4142135623730378
10
60.227347137353782
20
199.17524800000007
10
73.227347137353902
20
199.17524800000001
42
-0.41421356237309503
10
73.727347137354002
20
198.67524800000007
10
73.72734713735386
20
185.67524800000004
42
-0.41421356237307944
10
73.227347137353888
20
185.17524800000004
10
60.227347137353881
20
185.17524800000004
42
-0.41421356237307944
10
59.727347137353888
20
185.67524800000004
0
LWPOLYLINE
5
184
100
AcDbEntity
8
0
100
AcDbPolyline
90
8
70
1
43
0.0
10
188.81484713735389
20
147.07524799999999
42
-0.41421356237309503
10
188.31484713735392
20
147.57524800000004
10
188.31484713735392
20
160.57524800000004
42
-0.41421356237328233
10
188.81484713735398
20
161.07524800000004
10
201.81484713735398
20
161.07524799999999
42
-0.41421356237311585
10
202.31484713735392
20
160.57524800000004
10
202.31484713735392
20
147.57524800000002
42
-0.41421356237316787
10
201.81484713735398
20
147.07524800000002
0
LWPOLYLINE
5
185
100
AcDbEntity
8
0
100
AcDbPolyline
90
8
70
1
43
0.0
10
184.05234713735393
20
166.12524800000003
42
-0.41421356237326151
10
183.55234713735393
20
166.62524800000003
10
183.55234713735393
20
179.62524800000006
42
-0.41421356237319906
10
184.05234713735393
20
180.125248
10
197.05234713735393
20
180.12524800000006
42
-0.41421356237297013
10
197.55234713735393
20
179.62524800000006
10
197.55234713735393
20
166.62524800000003
42
-0.41421356237313667
10
197.05234713735393
20
166.12524800000003
0
LWPOLYLINE
5
186
100
AcDbEntity
8
0
100
AcDbPolyline
90
8
70
1
43
0.0
10
202.60234713735395
20
179.62524800000006
10
202.60234713735395
20
166.62524800000003
42
0.41421356237326151
10
203.10234713735395
20
166.12524800000003
10
216.10234713735395
20
166.12524800000003
42
0.41421356237313667
10
216.60234713735395
20
166.62524800000003
10
216.60234713735395
20
179.62524800000006
42
0.41421356237297013
10
216.10234713735395
20
180.12524800000006
10
203.10234713735395
20
180.125248
42
0.41421356237319906
0
LWPOLYLINE
5
187
100
AcDbEntity
8
0
100
AcDbPolyline
90
8
70
1
43
0.0
10
55.464847137353878
20
147.07524800000004
10
68.4648471373539
20
147.07524800000004
42
0.4142135623730222
10
68.964847137353885
20
147.57524800000004
10
68.964847137353885
20
160.57524800000007
42
0.41421356237307422
10
68.4648471373539
20
161.07524800000004
10
55.464847137353878
20
161.07524800000007
42
0.41421356237317308
10
54.964847137353885
20
160.57524800000007
10
54.964847137353885
20
147.57524800000004
42
0.41421356237310025
0
LWPOLYLINE
5
188
100
AcDbEntity
8
0
100
AcDbPolyline
90
8
70
1
43
0.0
10
49.914847137353881
20
147.57524800000004
42
-0.4142135623730222
10
49.414847137353888
20
147.07524800000004
10
36.414847137353881
20
147.0752480000001
42
-0.41421356237305862
10
35.914847137353874
20
147.57524800000007
10
35.914847137353881
20
160.57524800000007
42
-0.41421356237311324
10
36.414847137353881
20
161.07524800000004
10
49.414847137353888
20
161.07524800000007
42
-0.4142135623730846
10
49.914847137353881
20
160.57524800000007
0
LWPOLYLINE
5
189
100
AcDbEntity
8
0
100
AcDbPolyline
90
8
70
1
43
0.0
10
207.36484713735393
20
160.57524800000004
42
-0.41421356237328233
10
207.86484713735399
20
161.07524800000004
10
220.86484713735393
20
161.07524799999996
42
-0.41421356237303258
10
221.36484713735405
20
160.57524800000004
10
221.36484713735393
20
147.57524800000002
42
-0.4142135623730846
10
220.86484713735393
20
147.07524800000002
10
207.86484713735391
20
147.07524799999999
42
-0.41421356237309503
10
207.36484713735393
20
147.57524800000004
0
LWPOLYLINE
5
190
100
AcDbEntity
8
0
100
AcDbPolyline
90
8
70
1
43
0.0
10
221.65234713735396
20
179.62524799999997
10
221.65234713735404
20
166.62524800000003
42
0.41421356237294937
10
222.15234713735398
20
166.12524800000006
10
235.15234713735401
20
166.12524800000003
42
0.41421356237313667
10
235.65234713735401
20
166.62524800000003
10
235.65234713735376
20
179.62524800000006
42
0.41421356237292856
10
235.15234713735401
20
180.12524800000006
10
222.15234713735401
20
180.12524800000006
42
0.41421356237307422
0
LWPOLYLINE
5
191
100
AcDbEntity
8
0
100
AcDbPolyline
90
8
70
1
43
0.0
10
193.07734713735397
20
198.67524800000001
10
193.07734713735391
20
185.67524800000004
42
0.41421356237311585
10
193.57734713735391
20
185.17524800000004
10
206.57734713735385
20
185.17524800000004
42
0.41421356237315748
10
207.07734713735391
20
185.67524800000004
10
207.07734713735391
20
198.67524800000001
42
0.4142135623731783
10
206.57734713735391
20
199.17524800000001
10
193.57734713735394
20
199.17524800000007
42
0.41421356237307422
0
LWPOLYLINE
5
192
100
AcDbEntity
8
0
100
AcDbPolyline
90
8
70
1
43
0.0
10
240.41484713735406
20
147.57524800000002
10
240.41484713735406
20
160.57524800000013
42
0.41421356237313667
10
239.91484713735403
20
161.07524800000016
10
226.91484713735395
20
161.0752480000001
42
0.41421356237313667
10
226.41484713735397
20
160.57524800000013
10
226.414847137354
20
147.57524800000002
42
0.41421356237312623
10
226.91484713735392
20
147.0752480000001
10
239.91484713735403
20
147.07524800000002
42
0.41421356237310542
0
LWPOLYLINE
5
193
100
AcDbEntity
8
0
100
AcDbPolyline
90
8
70
1
43
0.0
10
158.95234713735397
20
180.12524800000006
42
-0.41421356237303258
10
159.45234713735397
20
179.62524800000006
10
159.45234713735394
20
166.62524800000006
42
-0.41421356237306384
10
158.95234713735397
20
166.12524800000003
10
145.95234713735394
20
166.12524800000014
42
-0.41421356237303258
10
145.45234713735394
20
166.62524800000003
10
145.45234713735391
20
179.62524799999997
42
-0.4142135623730846
10
145.95234713735394
20
180.12524800000006
0
LWPOLYLINE
5
194
100
AcDbEntity
8
0
100
AcDbPolyline
90
8
70
1
43
0.0
10
178.50234713735398
20
166.62524800000003
10
178.50234713735398
20
179.62524800000006
42
0.41421356237311585
10
178.00234713735395
20
180.12524799999997
10
165.00234713735395
20
180.125248
42
0.41421356237309503
10
164.50234713735398
20
179.62524800000006
10
164.50234713735395
20
166.625248
42
0.41421356237297013
10
165.00234713735395
20
166.125248
10
178.00234713735395
20
166.12524800000003
42
0.41421356237326151
0
CIRCLE
5
195
100
AcDbEntity
8
0
100
AcDbCircle
10
47.7255581373539
20
104.35820100000008
30
0
40
1.0999999999999943
210
0
220
-0
230
1
0
LWPOLYLINE
5
196
100
AcDbEntity
8
0
100
AcDbPolyline
90
8
70
1
43
0.0
10
188.02734713735396
20
185.67524800000004
10
188.02734713735396
20
198.67524800000001
42
0.4142135623731783
10
187.52734713735396
20
199.17524800000001
10
174.5273471373539
20
199.17524800000001
42
0.4142135623731783
10
174.0273471373539
20
198.67524800000007
10
174.0273471373539
20
185.67524800000001
42
0.41421356237309503
10
174.5273471373539
20
185.17524800000004
10
187.52734713735396
20
185.17524800000004
42
0.41421356237313667
0
LWPOLYLINE
5
197
100
AcDbEntity
8
0
100
AcDbPolyline
90
8
70
1
43
0.0
10
155.47734713735395
20
185.17524800000004
10
168.477347137354
20
185.17524800000004
42
0.41421356237311585
10
168.97734713735392
20
185.67524800000004
10
168.97734713735395
20
198.67524800000007
42
0.41421356237309503
10
168.477347137354
20
199.17524800000001
10
155.47734713735395
20
199.17524800000007
42
0.41421356237313667
10
154.97734713735395
20
198.67524800000007
10
154.97734713735395
20
185.67524800000001
42
0.41421356237304302
0
LWPOLYLINE
5
198
100
AcDbEntity
8
0
100
AcDbPolyline
90
12
70
1
43
0.0
10
10.209940151528034
20
161.07512350616867
42
-0.0055790138304034906
10
10.221097137353869
20
161.07524800000007
10
23.221097137353894
20
161.07524800000007
42
-0.41421356237313145
10
23.721097137353901
20
160.57524800000007
10
23.721097137353894
20
147.57512400000007
42
-0.41421356237309243
10
23.221097137353894
20
147.07512400000007
10
4.6210971373538801
20
147.07512400000007
42
-0.41421356237310025
10
4.1210971373538907
20
147.57512400000007
10
4.1210971373538889
20
160.57524800000007
42
-0.41421356237313273
10
4.6210971373538889
20
161.07524800000007
10
5.6210971374429084
20
161.07524849402506
42
-0.0055790153669667865
10
5.6322541373539003
20
161.0751240000003
0
LWPOLYLINE
5
199
100
AcDbEntity
8
0
100
AcDbPolyline
90
8
70
1
43
0.0
10
150.21484713735401
20
160.57524800000004
42
-0.41421356237313667
10
150.71484713735401
20
161.07524800000004
10
163.7148471373539
20
161.07524800000004
42
-0.41421356237297013
10
164.21484713735393
20
160.57524800000004
10
164.21484713735393
20
147.57524800000002
42
-0.41421356237311585
10
163.7148471373539
20
147.07524800000004
10
150.71484713735401
20
147.07524800000002
42
-0.41421356237298057
10
150.21484713735401
20
147.57524800000004
0
LWPOLYLINE
5
200
100
AcDbEntity
8
0
100
AcDbPolyline
90
8
70
1
43
0.0
10
169.26484713735397
20
160.57524800000004
10
169.26484713735394
20
147.57524800000002
42
0.4142135623730222
10
169.76484713735397
20
147.0752480000001
10
182.76484713735391
20
147.07524800000002
42
0.41421356237310542
10
183.26484713735394
20
147.57524800000002
10
183.26484713735394
20
160.57524800000013
42
0.41421356237313667
10
182.76484713735391
20
161.07524800000004
10
169.764847137354
20
161.07524800000004
42
0.41421356237313667
0
LWPOLYLINE
5
201
100
AcDbEntity
8
0
100
AcDbPolyline
90
8
70
1
43
0.0
10
226.12734713735392
20
185.67524800000001
42
-0.41421356237313667
10
225.62734713735387
20
185.17524800000004
10
212.62734713735392
20
185.17524800000004
42
-0.41421356237309503
10
212.12734713735392
20
185.67524800000001
10
212.12734713735392
20
198.67524800000001
42
-0.41421356237307422
10
212.62734713735395
20
199.17524800000007
10
225.62734713735392
20
199.17524800000001
42
-0.4142135623731783
10
226.12734713735392
20
198.67524800000001
0
LWPOLYLINE
5
202
100
AcDbEntity
8
0
100
AcDbPolyline
90
8
70
1
43
0.0
10
130.37734713735392
20
199.17524800000007
42
-0.41421356237313667
10
130.87734713735392
20
198.67524800000007
10
130.87734713735392
20
185.67524800000004
42
-0.41421356237311585
10
130.37734713735392
20
185.17524800000007
10
117.37734713735392
20
185.17524800000004
42
-0.41421356237306384
10
116.87734713735392
20
185.67524800000004
10
116.87734713735392
20
198.67524800000007
42
-0.41421356237299095
10
117.37734713735392
20
199.17524800000001
0
CIRCLE
5
203
100
AcDbEntity
8
0
100
AcDbCircle
10
238.22555813735386
20
104.35820100000004
30
0
40
1.0999999999999943
210
0
220
-0
230
1
0
LWPOLYLINE
5
204
100
AcDbEntity
8
0
100
AcDbPolyline
90
8
70
1
43
0.0
10
120.85234713735392
20
180.12524800000006
42
-0.41421356237313667
10
121.35234713735393
20
179.62524800000006
10
121.35234713735393
20
166.62524800000006
42
-0.41421356237314705
10
120.8523471373539
20
166.12524800000003
10
107.85234713735392
20
166.12524800000003
42
-0.41421356237301177
10
107.35234713735392
20
166.62524800000003
10
107.35234713735392
20
179.62524800000008
42
-0.4142135623730534
10
107.85234713735392
20
180.125248
0
CIRCLE
5
205
100
AcDbEntity
8
0
100
AcDbCircle
10
143.02555813735387
20
104.35820100000004
30
0
40
1.0999999999999943
210
0
220
-0
230
1
0
LWPOLYLINE
5
206
100
AcDbEntity
8
0
100
AcDbPolyline
90
8
70
1
43
0.0
10
140.40234713735396
20
166.62524800000003
10
140.40234713735396
20
179.62524800000008
42
0.41421356237299095
10
139.90234713735401
20
180.12524800000006
10
126.902347137354
20
180.12524800000008
42
0.41421356237314705
10
126.40234713735389
20
179.62524800000008
10
126.40234713735393
20
166.62524800000006
42
0.41421356237309503
10
126.902347137354
20
166.12524800000006
10
139.90234713735398
20
166.12524800000003
42
0.41421356237315748
0
LWPOLYLINE
5
207
100
AcDbEntity
8
0
100
AcDbPolyline
90
8
70
1
43
0.0
10
254.20234713735391
20
180.12524800000011
42
-0.41421356237290774
10
254.70234713735402
20
179.62524800000006
10
254.70234713735402
20
166.62524800000003
42
-0.41421356237319906
10
254.20234713735391
20
166.12524800000003
10
241.20234713735391
20
166.125248
42
-0.41421356237311585
10
240.702347137354
20
166.62524800000003
10
240.702347137354
20
179.62524800000006
42
-0.41421356237311585
10
241.20234713735391
20
180.125248
0
LWPOLYLINE
5
208
100
AcDbEntity
8
0
100
AcDbPolyline
90
8
70
1
43
0.0
10
245.17734713735393
20
185.67524800000004
10
245.17734713735393
20
198.67524800000001
42
0.41421356237319906
10
244.67734713735388
20
199.17524800000001
10
231.67734713735393
20
199.17524800000001
42
0.4142135623732407
10
231.1773471373541
20
198.67524800000001
10
231.17734713735393
20
185.67524800000001
42
0.41421356237309503
10
231.67734713735393
20
185.17524800000004
10
244.67734713735388
20
185.17524800000004
42
0.41421356237315748
0
LWPOLYLINE
5
209
100
AcDbEntity
8
0
100
AcDbPolyline
90
8
70
1
43
0.0
10
149.42734713735399
20
199.17524800000007
42
-0.41421356237303258
10
149.92734713735393
20
198.67524800000007
10
149.92734713735393
20
185.67524800000007
42
-0.41421356237312623
10
149.42734713735396
20
185.17524800000004
10
136.42734713735388
20
185.17524800000004
42
-0.41421356237311585
10
135.92734713735388
20
185.67524800000004
10
135.92734713735399
20
198.67524800000007
42
-0.41421356237306384
10
136.42734713735391
20
199.17524800000001
0
ARC
5
210
100
AcDbEntity
8
0
100
AcDbCircle
10
18.458597137353891
20
122.47524800000006
30
0
40
0.49999999999999822
210
0
220
0
230
1
100
AcDbArc
50
0
51
90
0
LINE
5
211
100
AcDbEntity
8
0
100
AcDbLine
10
18.958597137353891
20
122.47524800000005
30
0
11
18.958597137353898
21
109.47524800000008
31
0
0
ARC
5
212
100
AcDbEntity
8
0
100
AcDbCircle
10
18.458597137353891
20
109.47524800000008
30
0
40
0.50000000000000711
210
0
220
0
230
1
100
AcDbArc
50
-90
51
0
0
ARC
5
213
100
AcDbEntity
8
0
100
AcDbCircle
10
18.457867069801999
20
109.47524799054035
30
0
40
0.49999999054026745
210
0
220
0
230
1
100
AcDbArc
50
269.99999999947886
51
270.08365952109472
0
LINE
5
214
100
AcDbEntity
8
0
100
AcDbLine
10
18.457867069797452
20
108.97524800000008
30
0
11
5.4578670697974463
21
108.97524800000016
31
0
0
ARC
5
215
100
AcDbEntity
8
0
100
AcDbCircle
10
5.4578670697974303
20
109.47524800000016
30
0
40
0.49999999999999156
210
0
220
0
230
1
100
AcDbArc
50
180
51
270.00000000000182
0
LINE
5
216
100
AcDbEntity
8
0
100
AcDbLine
10
4.9578670697974392
20
109.47524800000009
30
0
11
4.9578670697974037
21
122.47524800000015
31
0
0
ARC
5
217
100
AcDbEntity
8
0
100
AcDbCircle
10
5.4578670697974543
20
122.47524800000009
30
0
40
0.5000000000000604
210
0
220
0
230
1
100
AcDbArc
50
90.000000000001933
51
180
0
LINE
5
218
100
AcDbEntity
8
0
100
AcDbLine
10
5.4578670697974374
20
122.97524800000016
30
0
11
18.457867069797452
21
122.97524800000016
31
0
0
ARC
5
219
100
AcDbEntity
8
0
100
AcDbCircle
10
18.45786706980207
20
122.47524800955719
30
0
40
0.50000052344120838
210
0
220
-0
230
1
100
AcDbArc
50
89.916340478897183
51
90.000000000529241
0
LWPOLYLINE
5
220
100
AcDbEntity
8
0
100
AcDbPolyline
90
88
70
1
43
0.0
10
165.88813106979745
20
113.62712700000014
10
166.02703106979749
20
113.69657700000012
10
167.06868106979749
20
113.69657700000012
10
167.34643106979749
20
113.83547700000011
10
167.48533106979747
20
113.97437700000015
10
167.76313106979745
20
114.52992700000013
10
167.76313106979745
20
115.15492700000013
10
167.34643106979749
20
115.15492700000013
10
167.34643106979749
20
115.01602700000014
10
167.27703106979749
20
114.80767700000004
10
167.27703106979749
20
114.59937700000015
10
167.13813106979745
20
114.32157700000012
10
166.99923106979739
20
114.18267700000013
10
166.79088106979748
20
114.11327700000012
10
166.79088106979748
20
114.18267700000013
10
166.51313106979745
20
114.18267700000013
10
166.37423106979739
20
114.25212700000014
10
166.37423106979739
20
114.46047700000011
10
166.16588106979736
20
114.66882700000014
10
166.09643106979749
20
114.80767700000004
10
166.09643106979749
20
114.94657700000012
10
166.16588106979736
20
115.15492700000013
10
166.16588106979736
20
115.91882700000014
10
166.09643106979749
20
116.40492700000013
10
165.88813106979745
20
116.89102700000014
10
165.67978106979749
20
117.23827700000012
10
165.40203106979749
20
117.65492700000013
10
164.70758106979747
20
118.21047700000011
10
164.63813106979745
20
118.21047700000011
10
164.49923106979747
20
118.27992700000013
10
163.80478106979749
20
118.55767700000013
10
163.31868106979749
20
118.76602700000014
10
162.76313106979745
20
118.97437700000015
10
161.51313106979745
20
119.52992700000013
10
160.81868106979749
20
119.80767700000013
10
159.29088106979736
20
120.36327700000012
10
158.59643106979749
20
120.71047700000011
10
157.06868106979749
20
121.26602700000014
10
155.67978106979749
20
121.82157700000012
10
155.05478106979749
20
122.02992700000013
10
154.49923106979739
20
122.23827700000004
10
154.01313106979745
20
122.44657700000012
10
153.31868106979749
20
122.72437700000015
10
153.11033106979747
20
122.79382700000014
10
152.97143106979749
20
122.79382700000014
10
152.90203106979749
20
122.72437700000015
10
151.72143106979749
20
120.36327700000012
10
151.51313106979745
20
119.87712700000014
10
151.30478106979749
20
119.52992700000013
10
151.23533106979747
20
119.32157700000012
10
151.23533106979747
20
119.18267700000013
10
151.37423106979739
20
119.04382700000014
10
151.58258106979747
20
118.90492700000013
10
151.86033106979747
20
118.69657700000012
10
152.27703106979749
20
118.41882700000014
10
152.83258106979747
20
118.14102700000014
10
153.45758106979747
20
117.72437700000015
10
155.67978106979749
20
116.47437700000015
10
155.88813106979745
20
116.75212700000014
10
156.58258106979747
20
117.30767700000013
10
157.41588106979748
20
117.72437700000015
10
157.55478106979749
20
117.72437700000015
10
158.04088106979748
20
117.79382700000014
10
159.01313106979745
20
117.79382700000014
10
159.49923106979747
20
117.72437700000015
10
159.98533106979747
20
117.51602700000014
10
160.54088106979748
20
117.16882700000014
10
161.02703106979749
20
116.75212700000014
10
161.44368106979749
20
116.26602700000014
10
161.79088106979748
20
115.64102700000014
10
161.99923106979747
20
115.01602700000014
10
161.99923106979747
20
113.90492700000013
10
161.92978106979749
20
113.41882700000014
10
161.79088106979748
20
113.00212700000014
10
161.79088106979748
20
112.93267700000013
10
161.92978106979749
20
112.86327700000004
10
162.13813106979745
20
112.79382700000014
10
162.48533106979747
20
112.65492700000013
10
162.90203106979749
20
112.58547700000011
10
163.38813106979745
20
112.58547700000011
10
164.08258106979747
20
112.72437700000015
10
164.49923106979747
20
112.86327700000004
10
164.91588106979748
20
113.14102700000014
10
165.26313106979745
20
113.41882700000014
10
165.40203106979749
20
113.55767700000004
10
165.54088106979736
20
113.62712700000014
10
165.61033106979747
20
113.69657700000012
10
165.74923106979747
20
113.62712700000014
0
LWPOLYLINE
5
221
100
AcDbEntity
8
0
100
AcDbPolyline
90
82
70
1
43
0.0
10
124.61159603496739
20
107.47524787263333
42
-0.090481817694916727
10
124.43501706979747
20
107.50746600000008
10
106.95175206979741
20
114.10707000000009
42
0.44521403457588954
10
106.29150229501613
20
113.76602680379523
10
106.22205306979737
20
113.55767700000004
10
106.22205306979737
20
113.34937700000015
10
106.08315306979726
20
113.14102700000014
10
105.87485306979741
20
112.72437700000015
10
105.45815306979726
20
112.30767700000013
10
104.97205306979737
20
111.89102700000014
10
104.41650306979739
20
111.68267700000004
10
103.99985306979741
20
111.54382700000014
10
103.44430306979739
20
111.47437700000015
10
102.81930306979739
20
111.61327700000004
10
102.33315306979726
20
111.75212700000014
10
101.84705306979737
20
112.09937700000015
10
101.43040306979739
20
112.51602700000014
10
101.08315306979726
20
113.00212700000014
10
100.80540306979739
20
113.55767700000004
10
100.7359530697974
20
113.90492700000013
10
100.7359530697974
20
114.46047700000011
10
100.80540306979739
20
115.01602700000014
10
101.01370306979739
20
115.57157700000012
10
101.29150306979739
20
116.05767700000013
10
101.70815306979748
20
116.47437700000015
10
102.19430306979739
20
116.82157700000012
10
102.74985306979741
20
117.02992700000013
10
103.09705306979737
20
117.09937700000015
10
103.65260306979738
20
117.09937700000015
10
104.20815306979726
20
117.02992700000013
10
104.76370306979739
20
116.89102700000014
10
104.97205306979737
20
116.75212700000014
10
105.45815306979726
20
116.40492700000013
10
105.80540306979739
20
115.91882700000014
10
106.08315306979726
20
115.50212700000014
10
106.15260306979738
20
115.29382700000014
10
106.22205306979737
20
115.15492700000013
10
106.29150306979732
20
114.94657700000016
42
0.14851325788317019
10
106.5218313652517
20
114.76935748733206
10
124.43501706979748
20
108.00746600000014
42
0.090481772464255997
10
124.61159600014733
20
107.97524785723481
10
137.4291380697974
20
107.97524800000016
42
0.09048177247025059
10
137.6057169542278
20
108.00746610897261
10
155.51890306979743
20
114.76935700000006
42
0.14851325792807837
10
155.74923158642414
20
114.94657675937387
10
155.81868106979749
20
115.15492700000013
10
155.88813106979745
20
115.29382700000014
10
155.95758106979747
20
115.50212700000014
10
156.23533106979747
20
115.91882700000014
10
156.58258106979747
20
116.40492700000013
10
157.06868106979749
20
116.75212700000014
10
157.27703106979749
20
116.89102700000014
10
157.83258106979747
20
117.02992700000013
10
158.38813106979745
20
117.09937700000015
10
158.94368106979749
20
117.09937700000015
10
159.29088106979736
20
117.02992700000013
10
159.84643106979749
20
116.82157700000012
10
160.33258106979747
20
116.47437700000015
10
160.74923106979739
20
116.05767700000013
10
161.02703106979749
20
115.57157700000012
10
161.23533106979747
20
115.01602700000014
10
161.30478106979749
20
114.46047700000011
10
161.30478106979749
20
113.90492700000013
10
161.23533106979747
20
113.55767700000004
10
160.95758106979747
20
113.00212700000014
10
160.61033106979747
20
112.51602700000014
10
160.19368106979749
20
112.09937700000015
10
159.70758106979747
20
111.75212700000014
10
159.22143106979749
20
111.61327700000004
10
158.59643106979749
20
111.47437700000015
10
158.04088106979748
20
111.54382700000014
10
157.62423106979739
20
111.68267700000004
10
157.06868106979749
20
111.89102700000014
10
156.58258106979747
20
112.30767700000013
10
156.16588106979736
20
112.72437700000015
10
155.95758106979747
20
113.14102700000014
10
155.81868106979749
20
113.34937700000015
10
155.81868106979749
20
113.55767700000004
10
155.74923106979747
20
113.76602700000007
42
0.44521403459431558
10
155.0889819555868
20
114.1070692089488
10
137.60571698680334
20
107.50746612126918
42
-0.090481790022341066
10
137.4291380697974
20
107.47524800000008
0
LWPOLYLINE
5
222
100
AcDbEntity
8
0
100
AcDbPolyline
90
88
70
1
43
0.0
10
97.402603069797379
20
118.21047700000015
10
97.333153069797476
20
118.21047700000015
10
96.638703069797387
20
117.65492700000013
10
96.360953069797404
20
117.23827700000012
10
96.152603069797379
20
116.89102700000014
10
95.944303069797385
20
116.40492700000013
10
95.87485306979741
20
115.91882700000014
10
95.87485306979741
20
115.15492700000013
10
95.944303069797385
20
114.94657700000012
10
95.944303069797385
20
114.80767700000004
10
95.87485306979741
20
114.66882700000014
10
95.666503069797386
20
114.46047700000011
10
95.666503069797386
20
114.25212700000014
10
95.527603069797379
20
114.18267700000013
10
95.24985306979741
20
114.18267700000013
10
95.24985306979741
20
114.11327700000012
10
95.041503069797386
20
114.18267700000013
10
94.902603069797379
20
114.32157700000012
10
94.763703069797387
20
114.59937700000015
10
94.763703069797387
20
114.80767700000004
10
94.694303069797385
20
115.01602700000014
10
94.694303069797385
20
115.15492700000013
10
94.277603069797379
20
115.15492700000013
10
94.277603069797379
20
114.52992700000013
10
94.555403069797393
20
113.97437700000015
10
94.694303069797385
20
113.83547700000011
10
94.972053069797369
20
113.69657700000012
10
96.013703069797387
20
113.69657700000012
10
96.152603069797379
20
113.62712700000014
10
96.291503069797386
20
113.62712700000014
10
96.430403069797393
20
113.69657700000012
10
96.49985306979741
20
113.62712700000014
10
96.638703069797387
20
113.55767700000004
10
96.777603069797379
20
113.41882700000014
10
97.12485306979741
20
113.14102700000014
10
97.541503069797386
20
112.86327700000004
10
97.958153069797476
20
112.72437700000015
10
98.652603069797379
20
112.58547700000011
10
99.138703069797387
20
112.58547700000011
10
99.555403069797393
20
112.65492700000013
10
99.902603069797379
20
112.79382700000014
10
100.1109530697974
20
112.86327700000004
10
100.24985306979741
20
112.93267700000013
10
100.24985306979741
20
113.00212700000014
10
100.1109530697974
20
113.41882700000014
10
100.04150306979739
20
113.90492700000013
10
100.04150306979739
20
115.01602700000014
10
100.24985306979741
20
115.64102700000014
10
100.59705306979737
20
116.26602700000014
10
101.01370306979739
20
116.75212700000014
10
101.49985306979741
20
117.16882700000014
10
102.05540306979739
20
117.51602700000014
10
102.54150306979739
20
117.72437700000015
10
103.02760306979738
20
117.79382700000016
10
103.99985306979741
20
117.79382700000016
10
104.4859530697974
20
117.72437700000015
10
104.62485306979741
20
117.72437700000015
10
105.45815306979726
20
117.30767700000013
10
106.15260306979738
20
116.75212700000014
10
106.3609530697974
20
116.47437700000015
10
108.58315306979726
20
117.72437700000015
10
109.20815306979726
20
118.14102700000018
10
109.76370306979739
20
118.41882700000016
10
110.18040306979739
20
118.69657700000016
10
110.45815306979726
20
118.90492700000013
10
110.66650306979739
20
119.04382700000016
10
110.80540306979739
20
119.18267700000013
10
110.80540306979739
20
119.32157700000016
10
110.73595306979747
20
119.52992700000013
10
110.52760306979738
20
119.87712700000014
10
110.31930306979739
20
120.36327700000012
10
109.13870306979739
20
122.72437700000015
10
109.06930306979739
20
122.79382700000016
10
108.93040306979739
20
122.79382700000016
10
108.72205306979737
20
122.72437700000015
10
108.02760306979738
20
122.44657700000016
10
107.54150306979739
20
122.23827700000004
10
106.9859530697974
20
122.02992700000013
10
106.3609530697974
20
121.82157700000016
10
104.97205306979737
20
121.26602700000018
10
103.44430306979739
20
120.71047700000015
10
102.74985306979741
20
120.36327700000012
10
101.22205306979737
20
119.80767700000013
10
100.52760306979738
20
119.52992700000013
10
99.277603069797379
20
118.97437700000015
10
98.722053069797369
20
118.76602700000018
10
98.235953069797404
20
118.55767700000013
10
97.541503069797386
20
118.27992700000013
0
LWPOLYLINE
5
223
100
AcDbEntity
8
0
100
AcDbPolyline
90
20
70
1
43
0.0
10
258.31434713735399
20
183.67524800000007
42
-0.41421356237321988
10
257.81434713735393
20
183.17524800000004
10
251.81434713735413
20
183.17524800000007
42
-0.41421356237309503
10
251.31434713735393
20
183.67524800000007
10
251.31434713735393
20
185.17524800000004
10
250.72734713735395
20
185.17524800000004
42
-0.41421356237321988
10
250.22734713735412
20
185.67524800000001
10
250.227347137354
20
198.67524800000001
42
-0.41421356237313667
10
250.72734713735397
20
199.17524800000007
10
282.77734713735407
20
199.17524799999995
42
-0.41421356237282447
10
283.27734713735413
20
198.67524800000001
10
283.27734713735407
20
185.67524800000004
42
-0.41421356237307422
10
282.77734713735401
20
185.17524800000004
10
282.19034713735414
20
185.17524800000004
10
282.19034713735414
20
183.67524800000001
42
-0.41421356237332396
10
281.69034713735402
20
183.17524800000001
10
275.69034713735402
20
183.17524800000004
42
-0.41421356237297013
10
275.19034713735408
20
183.67524800000001
10
275.1903471373538
20
185.17524800000004
10
258.31434713735405
20
185.17524800000004
0
LWPOLYLINE
5
224
100
AcDbEntity
8
0
100
AcDbPolyline
90
8
70
1
43
0.0
10
112.11484713735388
20
160.57524800000007
10
112.11484713735385
20
147.57524800000004
42
0.41421356237303258
10
112.61484713735388
20
147.07524800000004
10
125.61484713735389
20
147.07524800000004
42
0.41421356237313667
10
126.11484713735391
20
147.57524800000004
10
126.11484713735391
20
160.57524800000004
42
0.41421356237313667
10
125.61484713735389
20
161.07524800000004
10
112.61484713735391
20
161.07524800000007
42
0.4142135623730846
0
LWPOLYLINE
5
225
100
AcDbEntity
8
0
100
AcDbPolyline
90
8
70
1
43
0.0
10
145.16484713735395
20
147.57524800000002
10
145.16484713735395
20
160.57524800000004
42
0.41421356237318868
10
144.66484713735397
20
161.07524800000007
10
131.66484713735395
20
161.07524800000007
42
0.4142135623731783
10
131.164847137354
20
160.57524800000007
10
131.16484713735392
20
147.57524800000007
42
0.41421356237298057
10
131.66484713735395
20
147.07524800000004
10
144.66484713735395
20
147.07524800000007
42
0.41421356237313667
0
LWPOLYLINE
5
226
100
AcDbEntity
8
0
100
AcDbPolyline
90
44
70
1
43
0.0
10
139.42734713735393
20
104.35012400000005
10
139.42734713735393
20
104.45012400000003
42
0.41421356237315748
10
137.42734713735391
20
106.45012400000002
10
53.177347137353877
20
106.45012400000006
42
0.41421356237310281
10
51.177347137353905
20
104.45012399999999
10
51.177347137353884
20
104.35012400000008
42
-0.99999999999999989
10
44.177347137353891
20
104.35012400000002
10
44.177347137353891
20
104.45012400000007
42
0.41421356237309631
10
42.177347137353884
20
106.4501240000001
10
2.0261735686769455
20
106.45012400000016
42
-0.41421356237309631
10
0.026173568676943759
20
108.45012400000009
10
0.026173568676970405
20
199.7002480000003
42
-0.41421356237307944
10
2.0261735686769633
20
201.70024800000024
10
42.199662137353869
20
201.70024800000022
42
0.41094929877284292
10
44.177347631003869
20
203.70012397511007
10
44.177347137353891
20
203.80012400000001
42
-0.99999999999999989
10
51.177347137353884
20
203.8001240000001
10
51.177347137353884
20
203.70012400000005
42
0.41094929877146319
10
53.155032117963898
20
201.70024849390006
10
137.44966213735393
20
201.70024800000022
42
0.41094929877286751
10
139.42734763100401
20
203.70012397511007
10
139.42734713735393
20
203.80012400000001
42
-0.99999999999999989
10
146.42734713735396
20
203.80012400000001
10
146.42734713735393
20
203.70012400000007
42
0.41094929877147479
10
148.40503211796394
20
201.70024849390006
10
232.69966213735393
20
201.70024800000019
42
0.41094929877284941
10
234.67734763100395
20
203.70012397511005
10
234.67734713735405
20
203.8001240000001
42
-0.99999999999999989
10
241.67734713735405
20
203.8001240000001
10
241.67734713735405
20
203.70012400000005
42
0.41094929877144365
10
243.65503211796386
20
201.70024849390003
10
283.80234713735388
20
201.70024849390003
42
-0.41421356237306384
10
285.80234713735393
20
199.70024849390006
10
285.80234713735393
20
108.45012400000005
42
-0.41421356237305862
10
283.80234713735388
20
106.45012399999999
10
243.67734713735391
20
106.45012400000013
42
0.41421356237310281
10
241.67734713735376
20
104.45012400000003
10
241.67734713735405
20
104.35012400000005
42
-0.99999999999999989
10
234.67734713735388
20
104.35012400000005
10
234.67734713735385
20
104.45012400000003
42
0.41421356237313667
10
232.67734713735388
20
106.45012400000002
10
148.42734713735388
20
106.45012400000002
42
0.41421356237309503
10
146.42734713735391
20
104.45012400000003
10
146.42734713735391
20
104.35012400000005
42
-0.99999999999999989
0
ENDSEC
0
SECTION
2
OBJECTS
0
DICTIONARY
5
C
100
AcDbDictionary
3
ACAD_GROUP
350
D
3
ACAD_MLINESTYLE
350
17
0
DICTIONARY
5
D
100
AcDbDictionary
0
DICTIONARY
5
1A
330
C
100
AcDbDictionary
0
DICTIONARY
5
17
100
AcDbDictionary
0
ENDSEC
0
EOF
