0
SECTION
2
HEADER
9
$INSUNITS
70
4
9
$ACADVER
1
AC1014
9
$HANDSEED
5
FFFF
0
ENDSEC
0
SECTION
2
TABLES
0
TABLE
2
VPORT
5
8
100
AcDbSymbolTable
0
ENDTAB
0
TABLE
2
LTYPE
5
5
100
AcDbSymbolTable
0
LTYPE
5
14
100
AcDbSymbolTableRecord
100
AcDbLinetypeTableRecord
2
BYBLOCK
70
0
0
LTYPE
5
15
100
AcDbSymbolTableRecord
100
AcDbLinetypeTableRecord
2
BYLAYER
70
0
0
ENDTAB
0
TABLE
2
LAYER
5
2
100
AcDbSymbolTable
70
2
0
LAYER
5
50
100
AcDbSymbolTableRecord
100
AcDbLayerTableRecord
2
0
70
0
6
CONTINUOUS
0
ENDTAB
0
TABLE
2
STYLE
5
3
100
AcDbSymbolTable
70
1
0
STYLE
5
11
100
AcDbSymbolTableRecord
100
AcDbTextStyleTableRecord
2
STANDARD
70
0
0
ENDTAB
0
TABLE
2
VIEW
5
6
100
AcDbSymbolTable
70
0
0
ENDTAB
0
TABLE
2
UCS
5
7
100
AcDbSymbolTable
70
0
0
ENDTAB
0
TABLE
2
APPID
5
9
100
AcDbSymbolTable
70
2
0
APPID
5
12
100
AcDbSymbolTableRecord
100
AcDbRegAppTableRecord
2
ACAD
70
0
0
ENDTAB
0
TABLE
2
DIMSTYLE
5
A
100
AcDbSymbolTable
70
1
0
ENDTAB
0
TABLE
2
BLOCK_RECORD
5
1
100
AcDbSymbolTable
70
1
0
BLOCK_RECORD
5
1F
100
AcDbSymbolTableRecord
100
AcDbBlockTableRecord
2
*MODEL_SPACE
0
BLOCK_RECORD
5
1B
100
AcDbSymbolTableRecord
100
AcDbBlockTableRecord
2
*PAPER_SPACE
0
ENDTAB
0
ENDSEC
0
SECTION
2
BLOCKS
0
BLOCK
5
20
100
AcDbEntity
100
AcDbBlockBegin
2
*MODEL_SPACE
0
ENDBLK
5
21
100
AcDbEntity
100
AcDbBlockEnd
0
BLOCK
5
1C
100
AcDbEntity
100
AcDbBlockBegin
2
*PAPER_SPACE
0
ENDBLK
5
1D
100
AcDbEntity
100
AcDbBlockEnd
0
ENDSEC
0
SECTION
2
ENTITIES
0
LWPOLYLINE
5
100
100
AcDbEntity
8
0
100
AcDbPolyline
90
12
70
1
43
0.0
10
100.53750150000006
20
-73.175142499999993
10
100.53750050000005
20
-60.175142500000014
42
-0.4142135623730378
10
101.03750150000003
20
-59.675143500000019
10
101.52363550000004
20
-59.675143500000054
10
101.53750050000006
20
-59.675046499999993
10
113.53750150000003
20
-59.675046499999993
10
113.55136650000006
20
-59.675143500000026
10
114.03750050000006
20
-59.675142500000021
42
-0.4142135623730378
10
114.5375015000001
20
-60.175143499999997
10
114.53750150000006
20
-73.175142500000021
42
-0.4142135623730534
10
114.03750150000008
20
-73.675142500000007
10
101.03750150000003
20
-73.675142500000007
42
-0.41421356237312623
0
LWPOLYLINE
5
101
100
AcDbEntity
8
0
100
AcDbPolyline
90
12
70
1
43
0.0
10
208.78750150000016
20
-59.675046499999986
10
196.7875015000001
20
-59.675046499999986
10
196.77363550000001
20
-59.675143500000019
10
196.28750150000002
20
-59.675143500000004
42
0.41421356237300139
10
195.78750150000013
20
-60.175143500000026
10
195.78750150000013
20
-73.175142499999993
42
0.41421356237316787
10
196.28749950000011
20
-73.675142499999978
10
209.28750150000027
20
-73.675142500000007
42
0.41421356237295454
10
209.7875015000001
20
-73.175142499999993
10
209.7875015000001
20
-60.175143499988934
42
0.41421356236650303
10
209.28750250000007
20
-59.6751425
10
208.80136650000003
20
-59.675143500000019
0
LWPOLYLINE
5
102
100
AcDbEntity
8
0
100
AcDbPolyline
90
12
70
1
43
0.0
10
152.1375015000001
20
-73.675142500000007
42
0.4142135623730846
10
152.6375015000001
20
-73.175142500000021
10
152.6375015000001
20
-60.175143499999997
42
0.4142135623730534
10
152.1375015000001
20
-59.675143500000026
10
151.65136650000005
20
-59.675143500000026
10
151.63750150000004
20
-59.675046499999993
10
139.63750150000007
20
-59.675046499999993
10
139.62363550000003
20
-59.675143500000026
10
139.13750150000004
20
-59.675143500000033
42
0.41421356237304302
10
138.63750250000007
20
-60.175142499999993
10
138.6375015000001
20
-73.175142500000021
42
0.41421356237306384
10
139.1375015000001
20
-73.675142500000007
0
LWPOLYLINE
5
103
100
AcDbEntity
8
0
100
AcDbPolyline
90
12
70
1
43
0.0
10
287.27500150000014
20
-59.675046499999979
10
299.27500150000009
20
-59.675046499999979
10
299.2888665000001
20
-59.675143500000019
10
299.77500250000008
20
-59.6751425
42
-0.41421356236672158
10
300.27500150000009
20
-60.17514349998892
10
300.27500150000003
20
-73.175142500000007
42
-0.41421356237311063
10
299.77500150000014
20
-73.675142499999978
10
286.77500050000009
20
-73.67514349999999
42
-0.41421356236658108
10
286.27500150000009
20
-73.17514250001102
10
286.27500150000009
20
-60.175143499999997
42
-0.41421356237315748
10
286.77500150000009
20
-59.675143500000019
10
287.26113550000008
20
-59.675143500000019
0
LWPOLYLINE
5
104
100
AcDbEntity
8
0
100
AcDbPolyline
90
12
70
1
43
0.0
10
133.58750150000003
20
-60.175143499999997
42
0.41421356237310025
10
133.08750050000009
20
-59.675142500000007
10
132.60136650000007
20
-59.675143500000026
10
132.58750150000003
20
-59.675046499999993
10
120.58750050000008
20
-59.675046499999993
10
120.57363550000005
20
-59.675143500000026
10
120.08750150000004
20
-59.675143500000019
42
0.41421356237309503
10
119.58750050000005
20
-60.175142499999993
10
119.58750150000007
20
-73.175142500000021
42
0.4142135623730846
10
120.08750150000009
20
-73.675142500000007
10
133.08750150000009
20
-73.675142500000007
42
0.41421356237307944
10
133.58750150000006
20
-73.175142500000021
0
LWPOLYLINE
5
105
100
AcDbEntity
8
0
100
AcDbPolyline
90
12
70
1
43
0.0
10
53.912501500000047
20
-40.625046500000003
10
53.898635500000047
20
-40.625142500000003
10
53.412501500000076
20
-40.625142500000024
42
0.41421356237310542
10
52.912501500000076
20
-41.125142500000003
10
52.912501500000047
20
-54.125143499999993
42
0.41421356237303258
10
53.412501500000047
20
-54.625143500000028
10
66.412501500000076
20
-54.625143500000028
42
0.41421356237310542
10
66.912501500000062
20
-54.125143499999993
10
66.912501500000076
20
-41.125142500000003
42
0.41421356237309503
10
66.412501500000062
20
-40.625142500000003
10
65.926366500000043
20
-40.625142500000003
10
65.91250150000009
20
-40.625046500000003
0
LWPOLYLINE
5
106
100
AcDbEntity
8
0
100
AcDbPolyline
90
12
70
1
43
0.0
10
241.03125150000014
20
-60.175143499999997
42
-0.41421356237307422
10
241.53125150000008
20
-59.675143500000019
10
242.0173855000001
20
-59.675143500000019
10
242.03125150000005
20
-59.675046499999986
10
254.03125150000008
20
-59.675046499999979
10
254.04511650000006
20
-59.675143500000019
10
254.53125150000005
20
-59.675143499999947
42
-0.41421356237305862
10
255.03125150000002
20
-60.175143499999997
10
255.03125050000008
20
-73.175141500011065
42
-0.41421356236665913
10
254.53125150000005
20
-73.675142499999978
10
241.53124950000009
20
-73.675142500000021
42
-0.41421356236541568
10
241.03125150000011
20
-73.175142500013123
0
LWPOLYLINE
5
107
100
AcDbEntity
8
0
100
AcDbPolyline
90
12
70
1
43
0.0
10
44.373635500000049
20
-59.675143500000054
10
44.387501500000049
20
-59.675046499999993
10
56.387501500000077
20
-59.675046499999993
10
56.401366500000066
20
-59.675143500000054
10
56.887502500000068
20
-59.675142500000007
42
-0.4142135623730846
10
57.387501500000084
20
-60.175143500000026
10
57.387501500000091
20
-73.175142499999993
42
-0.41421356237311585
10
56.887501500000049
20
-73.675142500000021
10
43.887501500000077
20
-73.675142500000021
42
-0.41421356237310025
10
43.387501500000084
20
-73.175142500000021
10
43.38750150000007
20
-60.175143500000026
42
-0.41421356237313145
10
43.88750150000007
20
-59.675143500000019
0
LWPOLYLINE
5
108
100
AcDbEntity
8
0
100
AcDbPolyline
90
12
70
1
43
0.0
10
167.71250050000006
20
-54.625142500000017
42
-0.4142135623732251
10
167.2125015
20
-54.125143500000014
10
167.21250050000009
20
-41.125143499999979
42
-0.41421356237310542
10
167.71250150000012
20
-40.625142500000003
10
168.19863550000005
20
-40.625142500000003
10
168.21250150000014
20
-40.625046500000003
10
180.21250150000012
20
-40.625046499999996
10
180.22636650000007
20
-40.625142499999988
10
180.71250150000009
20
-40.625142499999988
42
-0.41421356237299617
10
181.21250150000009
20
-41.125142499999967
10
181.21250150000009
20
-54.12514149999997
42
-0.41421356237308982
10
180.71250150000009
20
-54.625143500000007
0
LWPOLYLINE
5
109
100
AcDbEntity
8
0
100
AcDbPolyline
90
12
70
1
43
0.0
10
185.97500150000013
20
-16.025141499999982
42
-0.41421356237314055
10
185.47500150000008
20
-16.525143499999974
10
172.47500150000008
20
-16.525143499999988
42
-0.41421356237314055
10
171.97500150000008
20
-16.025143499999974
10
171.97500050000014
20
-3.0251434999999782
42
-0.41421356237315909
10
172.47500150000008
20
-2.5251424999999958
10
172.96113550000007
20
-2.5251424999999865
10
172.97500150000005
20
-2.5250464999999749
10
184.97500150000008
20
-2.525046499999974
10
184.98886650000003
20
-2.5251424999999856
10
185.4750025000001
20
-2.5251424999999483
42
-0.41421356237308071
10
185.97500150000013
20
-3.0251434999999782
0
LWPOLYLINE
5
110
100
AcDbEntity
8
0
100
AcDbPolyline
90
12
70
1
43
0.0
10
267.22500150000008
20
-73.175142499999993
10
267.22500150000002
20
-60.175143499999997
42
-0.41421356237310542
10
267.72500150000008
20
-59.675143499999983
10
268.21113550000007
20
-59.675143500000019
10
268.22500150000002
20
-59.675046499999979
10
280.22500150000008
20
-59.675046499999979
10
280.23886650000009
20
-59.675143500000019
10
280.72500250000007
20
-59.675142500000007
42
-0.41421356237314183
10
281.22500150000013
20
-60.175143499999997
10
281.22500150000008
20
-73.175142499999936
42
-0.4142135623731783
10
280.72500150000002
20
-73.675142499999978
10
267.72500050000014
20
-73.675143500000019
42
-0.41421356237301699
0
LWPOLYLINE
5
111
100
AcDbEntity
8
0
100
AcDbPolyline
90
12
70
1
43
0.0
10
157.68750150000002
20
-73.175142499999993
10
157.68750150000011
20
-60.175143500000026
42
-0.41421356237311063
10
158.18750150000014
20
-59.675143500000004
10
158.6736355000001
20
-59.675143500000026
10
158.68750150000005
20
-59.675046499999993
10
170.68750150000002
20
-59.675046499999993
10
170.70136650000001
20
-59.675143500000026
10
171.18750250000005
20
-59.675142499999993
42
-0.41421356236664353
10
171.68750150000008
20
-60.175143499988963
10
171.68750050000014
20
-73.175141500011009
42
-0.41421356236656548
10
171.18750150000014
20
-73.675142500000007
10
158.18750150000014
20
-73.675142499999993
42
-0.41421356237311585
0
LWPOLYLINE
5
112
100
AcDbEntity
8
0
100
AcDbPolyline
90
12
70
1
43
0.0
10
176.73750150000006
20
-73.175142499999993
10
176.73750150000018
20
-60.175143500000026
42
-0.41421356237291812
10
177.23750150000004
20
-59.675143500000026
10
177.7236355
20
-59.675143500000026
10
177.73750150000009
20
-59.675046499999993
10
189.73750150000012
20
-59.675046499999986
10
189.75136649999999
20
-59.675143500000019
10
190.23750250000009
20
-59.675142499999971
42
-0.41421356237313667
10
190.73750150000006
20
-60.175143500000026
10
190.73750050000012
20
-73.175141499999981
42
-0.41421356237305862
10
190.23750150000009
20
-73.675142500000021
10
177.2374995000001
20
-73.675142500000007
42
-0.4142135623730378
0
LWPOLYLINE
5
113
100
AcDbEntity
8
0
100
AcDbPolyline
90
12
70
1
43
0.0
10
205.02500250000003
20
-16.02514250000003
10
205.02500150000009
20
-3.0251434999889248
42
0.41421356236660223
10
204.52500250000011
20
-2.5251425000000003
10
204.03886650000004
20
-2.5251424999999834
10
204.02500150000009
20
-2.5250464999999722
10
192.02500150000009
20
-2.5250464999999727
10
192.01113550000002
20
-2.5251424999999843
10
191.52500150000009
20
-2.5251424999999799
42
0.41421356237313894
10
191.02500050000009
20
-3.0251434999999671
10
191.02500150000003
20
-16.025143499999974
42
0.41421356237315093
10
191.52500150000006
20
-16.52514349999992
10
204.52500150000006
20
-16.525143499999992
42
0.41421356237312362
0
LWPOLYLINE
5
114
100
AcDbEntity
8
0
100
AcDbPolyline
90
28
70
1
43
0.0
10
25.931251500000055
20
-73.675142500000049
10
12.931251500000061
20
-73.675142500000021
42
-0.0034460531115402472
10
12.92435963930895
20
-73.675094999999985
10
10.993251500000065
20
-73.675094999999985
10
10.993251500000071
20
-75.175142500000021
42
-0.4142135623730937
10
10.493251500000056
20
-75.675142500000035
10
4.4932505000000678
20
-75.675141500000038
42
-0.41421356237311424
10
3.9932515000000599
20
-75.175142500000021
10
3.9932515000000599
20
-73.675094999999985
10
3.4062510000000632
20
-73.675094999999985
42
-0.41421356237307522
10
2.9062510000000641
20
-73.175094999999985
10
2.9062510000000641
20
-60.175094999999992
42
-0.41421356237309503
10
3.4062510000000623
20
-59.675094999999992
10
13.424318500005137
20
-59.675094999999992
10
13.431251500000066
20
-59.675046500000015
10
25.43125050000009
20
-59.675046500000015
10
25.438183499994985
20
-59.675094999999992
10
37.837501000000074
20
-59.675094999999999
42
-0.41421356237309764
10
38.337501000000074
20
-60.175094999999992
10
38.337501000000074
20
-73.175094999999985
42
-0.41421356237309503
10
37.837501000000074
20
-73.675094999999985
10
34.869251500000054
20
-73.675094999999985
10
34.869251500000054
20
-75.175142500000021
42
-0.41421356237310281
10
34.369251500000068
20
-75.675142500000035
10
28.369250500000053
20
-75.675141500000024
42
-0.41421356237312101
10
27.869251500000058
20
-75.175142500000021
10
27.869251500000058
20
-73.675094999999985
10
25.938143360692933
20
-73.675094999999985
42
-0.0034460531119470377
0
LWPOLYLINE
5
115
100
AcDbEntity
8
0
100
AcDbPolyline
90
12
70
1
43
0.0
10
129.11250150000006
20
-41.125142499999995
42
-0.4142135623731939
10
129.61250150000006
20
-40.625142500000003
10
130.09863550000006
20
-40.625142500000003
10
130.11250150000006
20
-40.625046500000003
10
142.11250150000006
20
-40.625046500000003
10
142.12636650000005
20
-40.625142500000003
10
142.61249950000004
20
-40.625142500000003
42
-0.41421356237307422
10
143.11250150000009
20
-41.125142499999995
10
143.11250150000009
20
-54.125143499999993
42
-0.41421356237303258
10
142.61250150000006
20
-54.625143500000007
10
129.61250150000012
20
-54.625143500000028
42
-0.41421356237313145
10
129.11250150000006
20
-54.125143499999993
0
LWPOLYLINE
5
116
100
AcDbEntity
8
0
100
AcDbPolyline
90
12
70
1
43
0.0
10
18.301366500000075
20
-21.575143500000014
10
18.787501500000054
20
-21.575142499999981
42
-0.41421356237308204
10
19.287501500000047
20
-22.075142499999977
10
19.287502500000038
20
-35.075142500000034
42
-0.41421356237309631
10
18.787501500000047
20
-35.575143499999967
10
5.7875015000000518
20
-35.575142500000013
42
-0.4142135623730866
10
5.2875015000000598
20
-35.075142500000013
10
5.2875015000000412
20
-22.07514149999998
42
-0.41421356237309825
10
5.7875015000000491
20
-21.575143499999992
10
6.2736355000000561
20
-21.575143500000028
10
6.2875015000000563
20
-21.575046499999999
10
18.287500500000039
20
-21.575046499999999
0
LWPOLYLINE
5
117
100
AcDbEntity
8
0
100
AcDbPolyline
90
12
70
1
43
0.0
10
63.54511650000007
20
-78.725142499999976
10
64.03125150000011
20
-78.725142499999976
42
-0.41421356237305862
10
64.531251500000067
20
-79.225142499999976
10
64.531251500000067
20
-92.225141499999964
42
-0.41421356237311585
10
64.031251500000067
20
-92.725143500000058
10
51.031251500000046
20
-92.725143499999973
42
-0.41421356237311585
10
50.531251500000067
20
-92.225143500000044
10
50.531251500000074
20
-79.225142499999976
42
-0.41421356237311063
10
51.031251500000046
20
-78.725142499999976
10
51.517385500000046
20
-78.725142499999976
10
51.531251500000046
20
-78.725046499999976
10
63.531251500000046
20
-78.725046499999976
0
CIRCLE
5
118
100
AcDbEntity
8
0
100
AcDbCircle
10
43.526967500000069
20
-97.349956500000019
30
0
40
1.0999999999999983
210
0
220
0
230
1
0
LWPOLYLINE
5
119
100
AcDbEntity
8
0
100
AcDbPolyline
90
12
70
1
43
0.0
10
2.0687515000000607
20
-54.125143500000014
10
2.0687515000000616
20
-41.125142500000003
42
-0.41421356237307
10
2.5687515000000527
20
-40.625142500000024
10
3.8923855000000573
20
-40.62514250000001
10
3.9062515000000575
20
-40.62504650000001
10
20.66875050000008
20
-40.62504650000001
10
20.682616500000037
20
-40.62514250000001
10
21.168751500000056
20
-40.62514250000001
42
-0.41421356237304563
10
21.668751500000056
20
-41.125142500000003
10
21.668751500000042
20
-54.125143500000007
42
-0.41421356237310802
10
21.168751500000056
20
-54.625143500000028
10
2.5687515000000678
20
-54.625143500000028
42
-0.41421356237308915
0
LWPOLYLINE
5
120
100
AcDbEntity
8
0
100
AcDbPolyline
90
12
70
1
43
0.0
10
15.920116500000045
20
-78.725142499999976
10
16.40625150000006
20
-78.725142499999976
42
-0.4142135623730937
10
16.90625150000006
20
-79.225142499999976
10
16.906251500000081
20
-92.225141499999964
42
-0.41421356237306123
10
16.40625150000006
20
-92.725143500000001
10
3.4062525000000687
20
-92.725142500000004
42
-0.41421356237304918
10
2.9062515000000571
20
-92.225143500000001
10
2.9062515000000473
20
-79.225142499999976
42
-0.41421356237309148
10
3.4062515000000571
20
-78.725142499999976
10
3.8923855000000636
20
-78.725142499999976
10
3.9062515000000642
20
-78.725046499999976
10
15.906250500000045
20
-78.725046499999976
0
LWPOLYLINE
5
121
100
AcDbEntity
8
0
100
AcDbPolyline
90
12
70
1
43
0.0
10
14.025000500000044
20
-16.525143499999999
10
1.0250015000000468
20
-16.525143499999999
42
-0.4142135623730937
10
0.52500150000004853
20
-16.025143499999999
10
0.52500050000006193
20
-3.0251435000000004
42
-0.41421356237310047
10
1.0250015000000485
20
-2.5251425000000078
10
1.5111355000000519
20
-2.5251425000000078
10
1.5250015000000516
20
-2.5250464999999962
10
13.525001500000045
20
-2.5250464999999949
10
13.538866500000033
20
-2.5251425000000065
10
14.02500050000004
20
-2.5251425000000074
42
-0.41421356237310736
10
14.52500150000005
20
-3.0251434999999982
10
14.525001500000059
20
-16.025142499999994
42
-0.41421356237310025
0
LWPOLYLINE
5
122
100
AcDbEntity
8
0
100
AcDbPolyline
90
12
70
1
43
0.0
10
46.876366500000074
20
-40.625142500000003
10
47.362501500000036
20
-40.62514250000001
42
-0.41421356237304818
10
47.86250150000005
20
-41.125142500000003
10
47.86250150000005
20
-54.125143499999993
42
-0.41421356237313667
10
47.36250150000005
20
-54.625143500000028
10
34.362501500000072
20
-54.625143500000028
42
-0.41421356237303519
10
33.86250150000005
20
-54.125143499999993
10
33.862501500000064
20
-41.125142500000003
42
-0.41421356237310802
10
34.36250150000005
20
-40.625142500000024
10
34.848635500000057
20
-40.625142500000003
10
34.862501500000079
20
-40.625046500000003
10
46.862501500000064
20
-40.625046500000003
0
LWPOLYLINE
5
123
100
AcDbEntity
8
0
100
AcDbPolyline
90
12
70
1
43
0.0
10
20.075001500000052
20
-16.525143500000002
10
33.075001500000056
20
-16.525143500000002
42
0.4142135623730846
10
33.575002500000053
20
-16.025142499999994
10
33.575001500000056
20
-3.0251434999999871
42
0.4142135623730791
10
33.07500150000007
20
-2.5251435000000044
10
32.588866500000044
20
-2.5251425000000038
10
32.575000500000044
20
-2.5250464999999922
10
20.575001500000027
20
-2.525046499999994
10
20.561135500000066
20
-2.5251425000000056
10
20.075001500000038
20
-2.5251425000000038
42
0.41421356237310675
10
19.575001500000049
20
-3.0251424999999954
10
19.575001500000052
20
-16.025143499999995
42
0.41421356237312495
0
CIRCLE
5
124
100
AcDbEntity
8
0
100
AcDbCircle
10
238.21696750000015
20
-97.359956499999981
30
0
40
1.0999999999999943
210
0
220
0
230
1
0
CIRCLE
5
125
100
AcDbEntity
8
0
100
AcDbCircle
10
293.27696750000001
20
-97.339956499999971
30
0
40
1.0999999999999943
210
0
220
0
230
1
0
LWPOLYLINE
5
126
100
AcDbEntity
8
0
100
AcDbPolyline
90
48
70
1
43
0.0
10
277.75675229962764
20
-53.319928153667142
10
277.75675250000006
20
-56.125142499999974
42
-0.4142135623730534
10
277.25675150000018
20
-56.625143499999993
10
269.50944796603488
20
-56.62514350000005
42
-0.53119881636638544
10
269.04634285763359
20
-55.938049338711494
10
269.04634285763359
20
-54.570342139205614
42
-0.11869693185808323
10
268.81875150000008
20
-54.625143500000007
10
255.81875150000008
20
-54.625143499999993
42
-0.0034821392917495034
10
255.81178747474291
20
-54.625094999999959
10
253.88075239285385
20
-54.625094999999959
10
253.88075250000011
20
-56.125142500000003
42
-0.41421356237316787
10
253.38075150000009
20
-56.625143499999993
10
247.38075050000009
20
-56.62514250000001
42
-0.41421356237321988
10
246.88075150000003
20
-56.125143500000014
10
246.88075150000009
20
-54.625094999999973
10
243.91250100000008
20
-54.625095000000002
42
-0.4142135623730846
10
243.41250100000011
20
-54.12509499999998
10
243.41250100000011
20
-41.125094999999959
42
-0.4142135623730378
10
243.91250100000008
20
-40.625094999999966
10
256.31174628125325
20
-40.625094999999966
10
256.31875150000013
20
-40.625046499999975
10
264.84375100000011
20
-40.625046499999975
10
264.84375100000011
20
-35.575143500000003
10
262.96249950000004
20
-35.575143499999996
42
-0.41421356237305079
10
262.46250050000009
20
-35.075142499999984
10
262.46250050000015
20
-22.075143499999967
42
-0.41421356237302998
10
262.96250050000015
20
-21.575143500000028
10
263.44863550000008
20
-21.575143499999992
10
263.46250050000009
20
-21.575046499999967
10
275.46250150000003
20
-21.575046499999967
10
275.4763665000001
20
-21.575143499999992
10
275.96250050000009
20
-21.575143499999957
42
-0.41421356237309503
10
276.46250150000009
20
-22.075142499999952
10
276.46250150000009
20
-22.662094999999951
10
277.34375100000011
20
-22.662094999999944
42
-0.41421356237307683
10
277.84375100000005
20
-23.162094999999955
10
277.84375100000005
20
-29.162094999999955
42
-0.41421356237298318
10
277.34375100000011
20
-29.662094999999947
10
276.46250150000009
20
-29.662094999999962
10
276.46250150000009
20
-31.100094999999964
10
278.34375100000005
20
-31.100094999999946
42
-0.41421356237314183
10
278.84375100000005
20
-31.600094999999961
10
278.84375100000005
20
-44.600094999999953
42
-0.41421356237313145
10
278.34375100000005
20
-45.100094999999953
10
277.75675171249662
20
-45.100094999999961
10
277.75675183079431
20
-46.756261159300614
42
-0.15083333742316529
10
277.84375100000005
20
-47.038094999999977
10
277.84375100000005
20
-53.038094999999963
42
-0.15083291208385446
0
CIRCLE
5
127
100
AcDbEntity
8
0
100
AcDbCircle
10
293.28696750000006
20
2.1000435000000377
30
0
40
1.0999999999999943
210
0
220
0
230
1
0
LWPOLYLINE
5
128
100
AcDbEntity
8
0
100
AcDbPolyline
90
12
70
1
43
0.0
10
230.71875150000005
20
-92.725143499999973
42
0.41421356237307422
10
231.21875250000011
20
-92.225142499999961
10
231.21875150000008
20
-79.225142499999976
42
0.41421356237321472
10
230.71875150000005
20
-78.725142499999933
10
230.23261650000009
20
-78.725142499999976
10
230.21875150000002
20
-78.725046499999976
10
218.21875150000005
20
-78.725046499999976
10
218.20488550000007
20
-78.725142499999976
10
217.71875150000005
20
-78.72514249999999
42
0.41421356237312623
10
217.21875050000008
20
-79.225143499999987
10
217.21875150000005
20
-92.225143499999959
42
0.4142135623731783
10
217.71875150000002
20
-92.725143500000001
0
LWPOLYLINE
5
129
100
AcDbEntity
8
0
100
AcDbPolyline
90
12
70
1
43
0.0
10
193.90625150000005
20
-78.725142499999976
10
194.39238550000005
20
-78.725142499999976
10
194.40625150000002
20
-78.725046499999976
10
206.40625150000005
20
-78.725046499999976
10
206.42011650000006
20
-78.725142499999976
10
206.90625150000002
20
-78.725142499999961
42
-0.41421356237307944
10
207.4062515
20
-79.225142499999976
10
207.40625250000008
20
-92.225142499999961
42
-0.4142135623730534
10
206.90625150000002
20
-92.725143500000001
10
193.90625250000005
20
-92.725142499999947
42
-0.41421356237299095
10
193.40625150000005
20
-92.225143499999987
10
193.40625050000011
20
-79.225143499999987
42
-0.41421356237316787
0
LWPOLYLINE
5
130
100
AcDbEntity
8
0
100
AcDbPolyline
90
12
70
1
43
0.0
10
122.96875150000008
20
-78.725046499999976
10
134.96875150000008
20
-78.725046499999976
10
134.98261650000006
20
-78.725142499999976
10
135.46875050000008
20
-78.725143500000016
42
-0.41421356237305862
10
135.96875150000011
20
-79.225142499999976
10
135.96875150000002
20
-92.225141499999964
42
-0.4142135623730846
10
135.46875150000002
20
-92.725143500000001
10
122.46875250000009
20
-92.725142499999947
42
-0.41421356237311585
10
121.96875150000014
20
-92.225143499999987
10
121.96875050000008
20
-79.225141499999978
42
-0.41421356237310542
10
122.46875150000008
20
-78.725142499999976
10
122.95488550000009
20
-78.725142499999976
0
LWPOLYLINE
5
131
100
AcDbEntity
8
0
100
AcDbPolyline
90
12
70
1
43
0.0
10
219.31250150000005
20
-41.125142499999967
10
219.31250150000005
20
-54.125141500009057
42
-0.4142135623677517
10
218.81250150000002
20
-54.625143500000028
10
205.81250050000008
20
-54.625142499999995
42
-0.41421356237317308
10
205.31250150000002
20
-54.125143499999943
10
205.31250050000008
20
-41.125143499999972
42
-0.41421356237315748
10
205.81250150000002
20
-40.625142499999988
10
206.2986355000001
20
-40.625142499999988
10
206.31250150000002
20
-40.625046499999996
10
218.31250150000002
20
-40.625046499999996
10
218.32636650000009
20
-40.625142499999988
10
218.81250150000002
20
-40.625142499999988
42
-0.4142135623730378
0
LWPOLYLINE
5
132
100
AcDbEntity
8
0
100
AcDbPolyline
90
12
70
1
43
0.0
10
214.05000150000006
20
-21.575142499999949
42
-0.4142135623730378
10
214.55000150000004
20
-22.075142499999963
10
214.55000250000012
20
-35.075142499999963
42
-0.41421356237299356
10
214.05000150000006
20
-35.575143499999967
10
201.04999950000007
20
-35.575142499999963
42
-0.41421356237319651
10
200.55000150000009
20
-35.075142499999991
10
200.55000150000009
20
-22.075143499999971
42
-0.41421356237294676
10
201.05000150000009
20
-21.57514350000001
10
201.53613550000003
20
-21.575143499999999
10
201.55000150000006
20
-21.575046499999967
10
213.55000150000009
20
-21.575046499999967
10
213.56386650000005
20
-21.575143499999999
0
LINE
5
133
100
AcDbEntity
8
0
100
AcDbLine
10
288.77500150000009
20
-95.250046499999982
30
0
11
242.72500150000013
21
-95.250046499999982
31
0
0
LINE
5
134
100
AcDbEntity
8
0
100
AcDbLine
10
137.37500150000002
20
0.99995250000001779
30
0
11
137.37500150000002
21
2.0999525000000032
31
0
0
LWPOLYLINE
5
135
100
AcDbEntity
8
0
100
AcDbPolyline
90
12
70
1
43
0.0
10
128.82500050000004
20
-16.025143499999984
42
-0.41421356237308593
10
128.32500050000007
20
-16.525143499999981
10
115.32500150000004
20
-16.525143499999995
42
-0.414213562373069
10
114.82500150000007
20
-16.025143499999995
10
114.82500150000007
20
-3.0251424999999843
42
-0.41421356237309959
10
115.32500150000006
20
-2.5251424999999945
10
115.81113550000005
20
-2.5251424999999945
10
115.82500150000008
20
-2.5250464999999829
10
127.82500050000004
20
-2.5250464999999807
10
127.83886650000008
20
-2.5251424999999923
10
128.32500050000007
20
-2.5251434999999778
42
-0.41421356237304818
10
128.82500050000004
20
-3.0251435000000115
0
LWPOLYLINE
5
136
100
AcDbEntity
8
0
100
AcDbPolyline
90
12
70
1
43
0.0
10
118.30000150000015
20
-21.575046499999985
10
118.31386650000006
20
-21.57514350000001
10
118.80000050000008
20
-21.575143500000014
42
-0.41421356237305079
10
119.30000150000014
20
-22.07514249999997
10
119.30000250000006
20
-35.075142500000005
42
-0.41421356237311063
10
118.80000150000006
20
-35.575143499999967
10
105.80000150000005
20
-35.575142499999984
42
-0.41421356237304563
10
105.30000150000006
20
-35.075142500000005
10
105.30000250000008
20
-22.07514249999997
42
-0.41421356237308204
10
105.80000150000005
20
-21.575143499999974
10
106.28613550000013
20
-21.57514350000001
10
106.30000150000008
20
-21.575046499999985
0
ARC
5
137
100
AcDbEntity
8
0
100
AcDbCircle
10
-43.525000500000061
20
-97.350046500000019
30
0
40
3.4999999999999876
210
0
220
0
230
-1
100
AcDbArc
50
180
51
360
0
LINE
5
138
100
AcDbEntity
8
0
100
AcDbLine
10
47.025000500000047
20
-96.25004650000001
30
0
11
47.025000500000047
21
-97.350046500000005
31
0
0
LINE
5
139
100
AcDbEntity
8
0
100
AcDbLine
10
241.72500150000005
20
2.0999525000000165
30
0
11
241.72500150000013
21
0.99995250000003089
31
0
0
LINE
5
140
100
AcDbEntity
8
0
100
AcDbLine
10
47.025000500000047
20
2.099952499999993
30
0
11
47.025000500000047
21
0.99995250000000691
31
0
0
ARC
5
141
100
AcDbEntity
8
0
100
AcDbCircle
10
297.77500150000003
20
-96.250046499999925
30
0
40
0.99999999999994316
210
0
220
-0
230
1
100
AcDbArc
50
89.999999999996746
51
180
0
ARC
5
142
100
AcDbEntity
8
0
100
AcDbCircle
10
145.37500150000005
20
0.99995250000000768
30
0
40
0.99999999999997868
210
0
220
0
230
1
100
AcDbArc
50
180
51
269.99999999999835
0
LINE
5
143
100
AcDbEntity
8
0
100
AcDbLine
10
234.72500150000008
20
-97.350046499999962
30
0
11
234.72500150000008
21
-96.250046499999968
31
0
0
ARC
5
144
100
AcDbEntity
8
0
100
AcDbCircle
10
233.7250015000001
20
-96.250046499999939
30
0
40
0.99999999999997868
210
-0
220
0
230
1
100
AcDbArc
50
0
51
90.000000000001634
0
LWPOLYLINE
5
145
100
AcDbEntity
8
0
100
AcDbPolyline
90
12
70
1
43
0.0
10
148.6625015000001
20
-54.625143500000021
42
-0.41421356237301177
10
148.1625015000001
20
-54.125143500000014
10
148.16250150000013
20
-41.125142500000003
42
-0.41421356237313667
10
148.6625015000001
20
-40.625142500000003
10
149.14863550000004
20
-40.625142500000003
10
149.1625015000001
20
-40.625046500000003
10
161.1625015000001
20
-40.625046500000003
10
161.17636650000006
20
-40.625142500000003
10
161.6625015000001
20
-40.62514250000001
42
-0.41421356237316265
10
162.1625015000001
20
-41.125142499999995
10
162.1625015000001
20
-54.1251415000091
42
-0.41421356236783496
10
161.6625015000001
20
-54.625143500000007
0
CIRCLE
5
146
100
AcDbEntity
8
0
100
AcDbCircle
10
43.51696750000005
20
2.1000435000000071
30
0
40
1.0999999999999983
210
0
220
0
230
1
0
LINE
5
147
100
AcDbEntity
8
0
100
AcDbLine
10
136.37500150000002
20
-95.250046499999996
30
0
11
48.025000500000075
21
-95.250046499999996
31
0
0
LWPOLYLINE
5
148
100
AcDbEntity
8
0
100
AcDbPolyline
90
12
70
1
43
0.0
10
143.40000150000003
20
-35.075142499999998
10
143.40000150000009
20
-22.075143500000021
42
-0.41421356237310802
10
143.90000150000003
20
-21.57514350000001
10
144.38613550000008
20
-21.57514350000001
10
144.40000150000006
20
-21.575046499999981
10
156.40000150000003
20
-21.575046499999981
10
156.4138665000001
20
-21.57514350000001
10
156.90000150000006
20
-21.575142499999988
42
-0.41421356237310025
10
157.40000150000009
20
-22.07514249999997
10
157.40000150000009
20
-35.075143500000003
42
-0.41421356237308721
10
156.90000150000006
20
-35.575143500000003
10
143.90000150000003
20
-35.57514249999997
42
-0.41421356237307422
0
LINE
5
149
100
AcDbEntity
8
0
100
AcDbLine
10
289.77500150000014
20
0.99995250000003644
30
0
11
289.77500150000014
21
2.0999525000000214
31
0
0
LINE
5
150
100
AcDbEntity
8
0
100
AcDbLine
10
-0.99999949999997284
20
-4.7499999995537223e-05
30
0
11
39.025000500000061
21
-4.7499999990679997e-05
31
0
0
ARC
5
151
100
AcDbEntity
8
0
100
AcDbCircle
10
136.37500150000002
20
0.99995250000002045
30
0
40
0.99999999999999911
210
-0
220
0
230
1
100
AcDbArc
50
270
51
360
0
ARC
5
152
100
AcDbEntity
8
0
100
AcDbCircle
10
145.37500150000005
20
-96.25004650000001
30
0
40
1.0000000000000142
210
0
220
-0
230
1
100
AcDbArc
50
89.99999999999838
51
180
0
LINE
5
153
100
AcDbEntity
8
0
100
AcDbLine
10
39.025001500000073
20
-95.250047499999994
30
0
11
-0.99999849999993895
21
-95.250046499999996
31
0
0
ARC
5
154
100
AcDbEntity
8
0
100
AcDbCircle
10
39.02500150000003
20
-96.25004650000001
30
0
40
0.99999900000001141
210
0
220
0
230
1
100
AcDbArc
50
0
51
89.999999999997556
0
LINE
5
155
100
AcDbEntity
8
0
100
AcDbLine
10
145.37500150000002
20
-4.7499999970973539e-05
30
0
11
233.72500150000008
21
-4.7499999966671431e-05
31
0
0
LINE
5
156
100
AcDbEntity
8
0
100
AcDbLine
10
48.025000500000068
20
-4.7499999989533393e-05
30
0
11
136.37500150000002
21
-4.7499999978606322e-05
31
0
0
ARC
5
157
100
AcDbEntity
8
0
100
AcDbCircle
10
0.99999849999995538
20
-94.250046500000039
30
0
40
0.99999999999996092
210
0
220
-0
230
-1
100
AcDbArc
50
-90.000000000000924
51
0
0
LINE
5
158
100
AcDbEntity
8
0
100
AcDbLine
10
144.37500150000002
20
2.099952500000005
30
0
11
144.37500150000008
21
0.99995250000001878
31
0
0
LINE
5
159
100
AcDbEntity
8
0
100
AcDbLine
10
-1.9999984999999163
20
-94.250046500000039
30
0
11
-1.9999994999999571
21
-1.0000475000000009
31
0
0
LINE
5
160
100
AcDbEntity
8
0
100
AcDbLine
10
234.72500150000008
20
0.99995250000002978
30
0
11
234.72500150000016
21
2.099952170148752
31
0
0
ARC
5
161
100
AcDbEntity
8
0
100
AcDbCircle
10
242.7250015000001
20
-96.250046499999939
30
0
40
0.99999999999996092
210
0
220
-0
230
1
100
AcDbArc
50
89.99999999999838
51
180
0
ARC
5
162
100
AcDbEntity
8
0
100
AcDbCircle
10
48.025000500000054
20
-96.250046499999996
30
0
40
0.99999999999999645
210
0
220
-0
230
1
100
AcDbArc
50
89.999999999998778
51
180
0
LINE
5
163
100
AcDbEntity
8
0
100
AcDbLine
10
242.72500150000013
20
-4.7499999983453085e-05
30
0
11
288.77500150000009
21
-4.7499999960010086e-05
31
0
0
ARC
5
164
100
AcDbEntity
8
0
100
AcDbCircle
10
233.72500150000013
20
0.99995249999997671
30
0
40
0.99999999999994327
210
0
220
0
230
1
100
AcDbArc
50
-90.000000000003254
51
0
0
ARC
5
165
100
AcDbEntity
8
0
100
AcDbCircle
10
242.72500150000013
20
0.99995250000003399
30
0
40
1.0000000000000142
210
0
220
0
230
1
100
AcDbArc
50
180
51
270
0
ARC
5
166
100
AcDbEntity
8
0
100
AcDbCircle
10
-293.27500150000009
20
2.099952500000049
30
0
40
3.4999999999999787
210
-0
220
0
230
-1
100
AcDbArc
50
0
51
180
0
ARC
5
167
100
AcDbEntity
8
0
100
AcDbCircle
10
136.37500150000002
20
-96.250046499999996
30
0
40
0.99999999999999645
210
-0
220
0
230
1
100
AcDbArc
50
0
51
90
0
ARC
5
168
100
AcDbEntity
8
0
100
AcDbCircle
10
-238.2250015000001
20
-97.350046499999962
30
0
40
3.5000000000000142
210
0
220
0
230
-1
100
AcDbArc
50
-180
51
0
0
ARC
5
169
100
AcDbEntity
8
0
100
AcDbCircle
10
-301.80000150000006
20
-94.250046500000025
30
0
40
0.99999999999997868
210
0
220
0
230
-1
100
AcDbArc
50
180
51
270
0
ARC
5
170
100
AcDbEntity
8
0
100
AcDbCircle
10
288.77500150000014
20
-96.250046499999939
30
0
40
0.99999999999997868
210
-0
220
0
230
1
100
AcDbArc
50
0
51
90.000000000003254
0
ARC
5
171
100
AcDbEntity
8
0
100
AcDbCircle
10
297.77500150000003
20
0.99995249999999081
30
0
40
0.99999999999994316
210
0
220
0
230
1
100
AcDbArc
50
180
51
270.00000000000324
0
LINE
5
172
100
AcDbEntity
8
0
100
AcDbLine
10
301.80000150000006
20
-95.250046499999996
30
0
11
297.77500150000009
21
-95.250046499999982
31
0
0
ARC
5
173
100
AcDbEntity
8
0
100
AcDbCircle
10
39.025000500000061
20
0.99995249999999336
30
0
40
0.99999999999998412
210
-0
220
0
230
1
100
AcDbArc
50
-90
51
0
0
LWPOLYLINE
5
174
100
AcDbEntity
8
0
100
AcDbPolyline
90
12
70
1
43
0.0
10
109.77500150000012
20
-3.0251435000000049
42
0.41421356237307227
10
109.27500150000007
20
-2.5251435000000018
10
108.78886650000005
20
-2.5251424999999954
10
108.77500150000004
20
-2.5250464999999838
10
96.775001500000059
20
-2.5250464999999842
10
96.761135500000108
20
-2.5251424999999958
10
96.27500150000003
20
-2.5251425000000061
42
0.41421356237311063
10
95.775000500000033
20
-3.0251414999999926
10
95.775001500000045
20
-16.025143499999992
42
0.41421356237307161
10
96.275001500000045
20
-16.525143499999988
10
109.27500150000007
20
-16.52514349999997
42
0.41421356237308204
10
109.77500150000009
20
-16.025143499999949
0
CIRCLE
5
175
100
AcDbEntity
8
0
100
AcDbCircle
10
140.8669675000001
20
-97.359956499999996
30
0
40
1.0999999999999943
210
0
220
0
230
1
0
LINE
5
176
100
AcDbEntity
8
0
100
AcDbLine
10
289.77500150000014
20
-97.350046499999962
30
0
11
289.77500150000014
21
-96.250046499999968
31
0
0
ARC
5
177
100
AcDbEntity
8
0
100
AcDbCircle
10
-293.27500150000009
20
-97.350046499999962
30
0
40
3.5000000000000142
210
0
220
0
230
-1
100
AcDbArc
50
-180
51
0
0
LINE
5
178
100
AcDbEntity
8
0
100
AcDbLine
10
40.025000500000047
20
0.99995250000000602
30
0
11
40.025000500000047
21
2.0999524999999912
31
0
0
LINE
5
179
100
AcDbEntity
8
0
100
AcDbLine
10
302.80000150000006
20
-1.0000474999999651
30
0
11
302.80000150000006
21
-94.250046499999982
31
0
0
ARC
5
180
100
AcDbEntity
8
0
100
AcDbCircle
10
-140.87500150000005
20
2.099952500000009
30
0
40
3.5000000000000142
210
-0
220
0
230
-1
100
AcDbArc
50
0
51
180
0
ARC
5
181
100
AcDbEntity
8
0
100
AcDbCircle
10
288.77500150000014
20
0.99995249999998337
30
0
40
0.99999999999994327
210
0
220
0
230
1
100
AcDbArc
50
-90.000000000003254
51
0
0
LINE
5
182
100
AcDbEntity
8
0
100
AcDbLine
10
241.72500150000013
20
-96.250046499999968
30
0
11
241.72500150000013
21
-97.350046499999962
31
0
0
LINE
5
183
100
AcDbEntity
8
0
100
AcDbLine
10
297.77500150000009
20
-4.7499999952377303e-05
30
0
11
301.80000150000006
21
-4.7499999949601752e-05
31
0
0
ARC
5
184
100
AcDbEntity
8
0
100
AcDbCircle
10
0.99999949999995197
20
-1.0000475000000006
30
0
40
1.0000000000000051
210
-0
220
0
230
-1
100
AcDbArc
50
0
51
89.999999999998806
0
LINE
5
185
100
AcDbEntity
8
0
100
AcDbLine
10
137.37500150000002
20
-97.350046500000005
30
0
11
137.37500150000002
21
-96.25004650000001
31
0
0
ARC
5
186
100
AcDbEntity
8
0
100
AcDbCircle
10
-301.80000150000006
20
-1.0000474999999351
30
0
40
0.99999999999998546
210
0
220
0
230
-1
100
AcDbArc
50
90
51
180
0
LINE
5
187
100
AcDbEntity
8
0
100
AcDbLine
10
296.77500150000009
20
-96.250046499999968
30
0
11
296.77500150000009
21
-97.350046499999962
31
0
0
ARC
5
188
100
AcDbEntity
8
0
100
AcDbCircle
10
-238.2250015000001
20
2.0999525000000236
30
0
40
3.4999999999999587
210
-0
220
0
230
-1
100
AcDbArc
50
-5.3997386713567766e-06
51
180
0
LINE
5
189
100
AcDbEntity
8
0
100
AcDbLine
10
144.37500150000002
20
-96.25004650000001
30
0
11
144.37500150000002
21
-97.350046500000005
31
0
0
LINE
5
190
100
AcDbEntity
8
0
100
AcDbLine
10
296.77500150000009
20
2.0999525000000765
30
0
11
296.77500150000009
21
0.99995250000003755
31
0
0
LINE
5
191
100
AcDbEntity
8
0
100
AcDbLine
10
233.72500150000008
20
-95.250046499999968
30
0
11
145.37500150000008
21
-95.250046499999996
31
0
0
ARC
5
192
100
AcDbEntity
8
0
100
AcDbCircle
10
48.025000500000054
20
0.99995250000002256
30
0
40
1.0000000000000053
210
0
220
0
230
1
100
AcDbArc
50
180
51
270.0000000000008
0
ARC
5
193
100
AcDbEntity
8
0
100
AcDbCircle
10
-43.52500050000004
20
2.0999524999999943
30
0
40
3.4999999999999964
210
-0
220
0
230
-1
100
AcDbArc
50
0
51
180
0
LINE
5
194
100
AcDbEntity
8
0
100
AcDbLine
10
40.025000500000075
20
-97.350046500000047
30
0
11
40.025000500000047
21
-96.25004650000001
31
0
0
LWPOLYLINE
5
195
100
AcDbEntity
8
0
100
AcDbPolyline
90
12
70
1
43
0.0
10
104.0125015000001
20
-40.625046500000003
10
104.02636650000005
20
-40.625142500000003
10
104.51250150000007
20
-40.62514250000001
42
-0.41421356237315748
10
105.01250150000006
20
-41.125142500000003
10
105.01250250000005
20
-54.125142500000045
42
-0.41421356237309503
10
104.51250150000007
20
-54.625143500000028
10
91.512501500000099
20
-54.625142499999995
42
-0.41421356237310025
10
91.012500500000044
20
-54.125143499999993
10
91.012500500000044
20
-41.125141500011118
42
-0.41421356237955692
10
91.512501500000084
20
-40.625142500000003
10
91.998635500000034
20
-40.625142500000003
10
92.01250150000007
20
-40.625046500000003
0
ARC
5
196
100
AcDbEntity
8
0
100
AcDbCircle
10
-140.87500150000005
20
-97.350046500000005
30
0
40
3.4999999999999964
210
0
220
0
230
-1
100
AcDbArc
50
-180
51
0
0
LWPOLYLINE
5
197
100
AcDbEntity
8
0
100
AcDbPolyline
90
12
70
1
43
0.0
10
195.00000150000005
20
-21.575142499999963
42
-0.41421356237305862
10
195.50000150000002
20
-22.075142499999941
10
195.50000250000008
20
-35.075142499999991
42
-0.41421356237304041
10
195.00000150000002
20
-35.575143499999967
10
181.99999950000009
20
-35.575142499999956
42
-0.4142135623654703
10
181.50000150000008
20
-35.075142500013065
10
181.50000150000011
20
-22.075143499999985
42
-0.41421356237310025
10
182.0000015
20
-21.575143499999999
10
182.4861355000001
20
-21.575143499999999
10
182.50000150000002
20
-21.575046499999978
10
194.5000015
20
-21.575046499999978
10
194.51386650000003
20
-21.575143499999999
0
LWPOLYLINE
5
198
100
AcDbEntity
8
0
100
AcDbPolyline
90
12
70
1
43
0.0
10
110.06250150000007
20
-54.125143499999993
42
0.41421356237303258
10
110.56250150000011
20
-54.625143500000007
10
123.56250150000008
20
-54.625143500000007
42
0.41421356237304302
10
124.06250150000008
20
-54.12514349999995
10
124.06250150000005
20
-41.125142499999995
42
0.41421356237311063
10
123.56249950000006
20
-40.625142500000024
10
123.07636650000006
20
-40.625142500000003
10
123.06250150000014
20
-40.625046500000003
10
111.06250150000008
20
-40.625046500000003
10
111.04863550000005
20
-40.625142500000003
10
110.56250150000011
20
-40.625142500000003
42
0.41421356237305862
10
110.06250050000006
20
-41.12514149999997
0
LWPOLYLINE
5
199
100
AcDbEntity
8
0
100
AcDbPolyline
90
12
70
1
43
0.0
10
186.26250150000001
20
-54.125143499999986
10
186.2625005000001
20
-41.125143500000007
42
-0.4142135623730846
10
186.76250150000004
20
-40.625142499999988
10
187.24863550000006
20
-40.625142499999988
10
187.26250150000004
20
-40.625046499999996
10
199.2625015000001
20
-40.625046499999996
10
199.27636650000008
20
-40.625142499999988
10
199.76250150000013
20
-40.625142499999967
42
-0.414213562373069
10
200.2625015000001
20
-41.125142499999967
10
200.2625015000001
20
-54.1251415000091
42
-0.41421356236780893
10
199.76250150000013
20
-54.625143500000007
10
186.76250050000007
20
-54.625142499999988
42
-0.41421356237314183
0
CIRCLE
5
200
100
AcDbEntity
8
0
100
AcDbCircle
10
140.88696750000003
20
2.1100435000000131
30
0
40
1.0999999999999943
210
0
220
0
230
1
0
LWPOLYLINE
5
201
100
AcDbEntity
8
0
100
AcDbPolyline
90
12
70
1
43
0.0
10
153.42500150000004
20
-2.525142499999999
10
153.91113550000014
20
-2.5251424999999901
10
153.92500150000006
20
-2.5250464999999784
10
165.92500150000006
20
-2.5250464999999762
10
165.93886650000013
20
-2.5251424999999879
10
166.42500250000009
20
-2.5251424999999985
42
-0.41421356237306317
10
166.92500150000006
20
-3.0251434999999627
10
166.92500150000006
20
-16.025141499999982
42
-0.41421356237301826
10
166.42500150000004
20
-16.525143499999974
10
153.42500250000006
20
-16.525142499999987
42
-0.41421356237305212
10
152.92500150000006
20
-16.025143499999974
10
152.9250005000001
20
-3.0251434999999804
42
-0.41421356237308915
0
LWPOLYLINE
5
202
100
AcDbEntity
8
0
100
AcDbPolyline
90
12
70
1
43
0.0
10
281.22500150000008
20
-79.225142499999933
10
281.22500150000008
20
-92.225143499999959
42
-0.4142135623730222
10
280.72500150000008
20
-92.725143500000001
10
267.72500250000007
20
-92.725142499999947
42
-0.41421356237315748
10
267.22500150000008
20
-92.225143499999959
10
267.22500050000014
20
-79.225143499999987
42
-0.41421356237299095
10
267.72500150000002
20
-78.725142499999933
10
268.21113550000007
20
-78.725142499999933
10
268.22500150000002
20
-78.725046499999976
10
280.22500150000008
20
-78.725046499999976
10
280.23886650000009
20
-78.725142499999933
10
280.72500150000002
20
-78.725142499999961
42
-0.41421356237310025
0
LWPOLYLINE
5
203
100
AcDbEntity
8
0
100
AcDbPolyline
90
12
70
1
43
0.0
10
133.87500050000008
20
-3.0251435000000026
42
-0.41421356237308105
10
134.37500150000002
20
-2.5251425000000003
10
134.86113550000005
20
-2.5251424999999914
10
134.87500150000014
20
-2.5250464999999807
10
146.87500150000002
20
-2.5250464999999784
10
146.88886650000006
20
-2.5251424999999901
10
147.37500250000011
20
-2.5251424999999816
42
-0.41421356237312623
10
147.87500150000014
20
-3.0251434999999827
10
147.87500150000002
20
-16.025143499999981
42
-0.41421356237314705
10
147.37500150000002
20
-16.525143499999974
10
134.37500249999999
20
-16.525142499999987
42
-0.41421356237307683
10
133.87500150000008
20
-16.025143499999984
0
LWPOLYLINE
5
204
100
AcDbEntity
8
0
100
AcDbPolyline
90
12
70
1
43
0.0
10
176.45000150000004
20
-35.075141500009067
42
-0.4142135623678454
10
175.95000150000007
20
-35.575143499999967
10
162.94999950000005
20
-35.575142499999956
42
-0.41421356237311585
10
162.4500015000001
20
-35.075142500000013
10
162.4500015000001
20
-22.075143499999985
42
-0.41421356237304563
10
162.95000150000004
20
-21.57514350000001
10
163.43613550000012
20
-21.575143499999999
10
163.45000150000004
20
-21.575046499999978
10
175.45000150000007
20
-21.575046499999978
10
175.46386650000005
20
-21.575143499999999
10
175.95000150000004
20
-21.575142499999956
42
-0.41421356237309764
10
176.4500015000001
20
-22.075142499999934
0
LWPOLYLINE
5
205
100
AcDbEntity
8
0
100
AcDbPolyline
90
12
70
1
43
0.0
10
125.33613550000005
20
-21.57514350000001
10
125.35000150000003
20
-21.575046499999981
10
137.35000150000008
20
-21.575046499999981
10
137.36386650000009
20
-21.57514350000001
10
137.85000150000008
20
-21.575142499999966
42
-0.41421356237306384
10
138.3500015000001
20
-22.075142500000009
10
138.35000150000008
20
-35.07514350000001
42
-0.41421356237305601
10
137.85000150000008
20
-35.575143500000003
10
124.85000150000008
20
-35.575142499999991
42
-0.41421356237314444
10
124.35000150000008
20
-35.075142500000005
10
124.35000150000006
20
-22.07514350000001
42
-0.41421356237314444
10
124.85000150000005
20
-21.57514350000001
0
LWPOLYLINE
5
206
100
AcDbEntity
8
0
100
AcDbPolyline
90
12
70
1
43
0.0
10
176.45488550000007
20
-76.725142499999976
10
176.46875150000002
20
-76.725046499999976
10
181.46875150000002
20
-76.725046499999976
10
181.48261650000001
20
-76.725142499999976
10
181.96875250000005
20
-76.72514249999999
42
-0.41421356237314705
10
182.46875150000008
20
-77.225143499999987
10
182.46875150000008
20
-91.225143500000016
42
-0.41421356237312623
10
181.96875150000008
20
-91.725143500000001
10
175.96875150000002
20
-91.725143500000073
42
-0.41421356237312623
10
175.46875150000002
20
-91.225143500000016
10
175.4687515
20
-77.225143499999987
42
-0.41421356237308982
10
175.9687515
20
-76.725143500000001
0
LWPOLYLINE
5
207
100
AcDbEntity
8
0
100
AcDbPolyline
90
12
70
1
43
0.0
10
75.968751500000053
20
-76.725143500000016
10
76.454885500000074
20
-76.725142500000004
10
76.468751500000081
20
-76.725046499999976
10
81.468751500000081
20
-76.725046499999976
10
81.482616500000034
20
-76.725142500000004
10
81.968750500000084
20
-76.725142500000004
42
-0.41421356237307422
10
82.468751500000081
20
-77.225143500000001
10
82.468751500000081
20
-91.225141499999978
42
-0.4142135623730534
10
81.968751500000096
20
-91.725143499999945
10
75.968750500000056
20
-91.72514249999999
42
-0.41421356237313667
10
75.468751500000067
20
-91.225143500000016
10
75.468751500000067
20
-77.225141500000007
42
-0.41421356237308982
0
LWPOLYLINE
5
208
100
AcDbEntity
8
0
100
AcDbPolyline
90
12
70
1
43
0.0
10
261.67500150000012
20
-92.725143500000001
10
248.67500250000003
20
-92.725142500000004
42
-0.41421356237304302
10
248.17500150000015
20
-92.225143499999959
10
248.17500050000007
20
-79.225143499999987
42
-0.41421356237308982
10
248.67500150000009
20
-78.725142499999976
10
249.16113550000009
20
-78.725142499999976
10
249.17500150000009
20
-78.725046499999976
10
261.17500150000006
20
-78.725046499999976
10
261.18886650000007
20
-78.725142499999933
10
261.67500150000012
20
-78.725142499999933
42
-0.41421356237311585
10
262.17500150000006
20
-79.225142499999933
10
262.17500250000006
20
-92.225142499999961
42
-0.4142135623730846
0
LWPOLYLINE
5
209
100
AcDbEntity
8
0
100
AcDbPolyline
90
12
70
1
43
0.0
10
300.27500150000009
20
-79.225142499999933
10
300.27500150000009
20
-92.225143499999959
42
-0.41421356237306384
10
299.77500150000014
20
-92.725143500000001
10
286.77500250000008
20
-92.725142499999947
42
-0.41421356237299095
10
286.27500150000009
20
-92.225143499999959
10
286.27500050000009
20
-79.225143499999987
42
-0.41421356237315227
10
286.77500150000009
20
-78.725142499999933
10
287.26113550000008
20
-78.725142499999933
10
287.27500150000014
20
-78.725046499999976
10
299.27500150000009
20
-78.725046499999976
10
299.2888665000001
20
-78.725142499999933
10
299.77500150000014
20
-78.725142499999933
42
-0.41421356237319906
0
LWPOLYLINE
5
210
100
AcDbEntity
8
0
100
AcDbPolyline
90
12
70
1
43
0.0
10
26.718750500000056
20
-79.225141499999978
10
26.71875150000005
20
-92.225143500000001
42
0.41421356237310802
10
27.218750500000066
20
-92.725142500000004
10
40.218751500000074
20
-92.725143499999973
42
0.41421356237307944
10
40.718751500000046
20
-92.225141499999964
10
40.718751500000074
20
-79.225142499999976
42
0.41421356237307422
10
40.218751500000074
20
-78.725142499999976
10
39.732616500000056
20
-78.725142499999976
10
39.718751500000081
20
-78.725046499999976
10
27.718751500000039
20
-78.725046499999976
10
27.704885500000039
20
-78.725142499999976
10
27.218751500000057
20
-78.725142499999933
42
0.41421356237307683
0
LWPOLYLINE
5
211
100
AcDbEntity
8
0
100
AcDbPolyline
90
12
70
1
43
0.0
10
224.0750025000001
20
-16.025142499999966
42
-0.4142135623730534
10
223.57500150000007
20
-16.525143499999974
10
210.5750005000001
20
-16.525142499999983
42
-0.41421356237300005
10
210.07500150000013
20
-16.02514349999997
10
210.07500050000007
20
-3.0251434999999294
42
-0.41421356237313273
10
210.5750015000001
20
-2.5251424999999728
10
211.06113550000003
20
-2.5251424999999821
10
211.07500150000007
20
-2.5250464999999704
10
223.0750015000001
20
-2.5250464999999691
10
223.08886650000005
20
-2.5251424999999812
10
223.57500250000015
20
-2.5251424999999705
42
-0.41421356237310675
10
224.07500150000004
20
-3.0251434999999738
0
CIRCLE
5
212
100
AcDbEntity
8
0
100
AcDbCircle
10
238.22696750000009
20
2.0900435000000286
30
0
40
1.0999999999999943
210
0
220
0
230
1
0
LWPOLYLINE
5
213
100
AcDbEntity
8
0
100
AcDbPolyline
90
12
70
1
43
0.0
10
299.2888665000001
20
-40.625142499999988
10
299.77500150000014
20
-40.625142500000003
42
-0.41421356237320428
10
300.27500150000009
20
-41.125142500000024
10
300.27500250000008
20
-54.12514250000001
42
-0.41421356237314183
10
299.77500150000014
20
-54.625143499999993
10
286.77500150000009
20
-54.625143500000007
42
-0.41421356237311063
10
286.27500150000009
20
-54.125143499999979
10
286.27500050000009
20
-41.125143499999972
42
-0.41421356237311063
10
286.77500150000009
20
-40.625142499999988
10
287.26113550000008
20
-40.625142499999988
10
287.27500150000014
20
-40.625046499999975
10
299.27500150000009
20
-40.625046499999975
0
LWPOLYLINE
5
214
100
AcDbEntity
8
0
100
AcDbPolyline
90
24
70
1
43
0.0
10
249.26200150000003
20
-16.525143499999967
10
248.67500050000004
20
-16.525142499999976
42
-0.41421356237299878
10
248.17500150000015
20
-16.025143499999967
10
248.1750005000001
20
-3.0251434999999693
42
-0.41421356237312462
10
248.67500150000012
20
-2.5251424999999599
10
249.16113550000009
20
-2.5251424999999776
10
249.17500150000009
20
-2.5250464999999656
10
280.22500150000008
20
-2.525046499999962
10
280.23886650000009
20
-2.5251424999999736
10
280.72500250000007
20
-2.5251424999999594
42
-0.41421356237304691
10
281.22500150000008
20
-3.0251434999999671
10
281.22500250000019
20
-16.025142499999962
42
-0.41421356237325629
10
280.72500150000008
20
-16.525143499999942
10
280.13800150000009
20
-16.525142499999962
10
280.1380025000002
20
-18.025142499999962
42
-0.41421356237308332
10
279.63800150000009
20
-18.525143499999963
10
273.63800250000003
20
-18.525142499999983
42
-0.41421356237313017
10
273.13800149999997
20
-18.025143499999963
10
273.13800150000009
20
-16.525142499999962
10
256.2620015
20
-16.525142499999962
10
256.26200250000005
20
-18.025142499999973
42
-0.41421356237311452
10
255.76200150000005
20
-18.525143499999995
10
249.76200050000003
20
-18.52514249999998
42
-0.41421356237293894
10
249.26200150000003
20
-18.025143499999963
0
LWPOLYLINE
5
215
100
AcDbEntity
8
0
100
AcDbPolyline
90
12
70
1
43
0.0
10
220.1000015000001
20
-35.575142499999998
42
-0.41421356237307422
10
219.60000150000013
20
-35.075142499999991
10
219.60000150000013
20
-22.075143499999971
42
-0.41421356237307422
10
220.1000015000001
20
-21.575143499999967
10
220.58613550000004
20
-21.575143499999999
10
220.60000150000008
20
-21.575046499999967
10
232.6000015000001
20
-21.575046499999967
10
232.61386650000009
20
-21.575143499999999
10
233.10000150000008
20
-21.575142499999984
42
-0.41421356237299878
10
233.60000150000005
20
-22.075142499999934
10
233.60000250000013
20
-35.075142499999991
42
-0.41421356237310802
10
233.10000150000008
20
-35.575143499999989
0
LWPOLYLINE
5
216
100
AcDbEntity
8
0
100
AcDbPolyline
90
12
70
1
43
0.0
10
252.15000150000009
20
-35.575143499999967
10
239.15000150000003
20
-35.575142499999941
42
-0.41421356237307683
10
238.6500015
20
-35.075142499999927
10
238.65000150000012
20
-22.075143499999946
42
-0.41421356237318085
10
239.15000150000003
20
-21.575143499999999
10
239.63613550000005
20
-21.575143499999992
10
239.65000150000009
20
-21.575046499999967
10
251.65000150000003
20
-21.575046499999967
10
251.66386650000007
20
-21.575143499999992
10
252.15000150000009
20
-21.575142499999963
42
-0.41421356237312623
10
252.65000150000009
20
-22.075142499999952
10
252.65000250000008
20
-35.075142499999984
42
-0.41421356237316787
0
LWPOLYLINE
5
217
100
AcDbEntity
8
0
100
AcDbPolyline
90
12
70
1
43
0.0
10
229.12500050000011
20
-3.0251435000000071
42
-0.41421356237315388
10
229.62500150000011
20
-2.5251424999999887
10
230.11113550000005
20
-2.5251424999999799
10
230.12500150000008
20
-2.5250464999999682
10
242.12500150000005
20
-2.5250464999999664
10
242.13886650000006
20
-2.5251424999999781
10
242.62500250000011
20
-2.525142499999995
42
-0.41421356236668122
10
243.12500150000005
20
-3.0251434999888871
10
243.12500250000014
20
-16.025142499999966
42
-0.414213562373203
10
242.62500150000005
20
-16.525143499999967
10
229.62500050000003
20
-16.525142499999987
42
-0.41421356237293894
10
229.12500150000002
20
-16.025143499999974
0
LWPOLYLINE
5
218
100
AcDbEntity
8
0
100
AcDbPolyline
90
12
70
1
43
0.0
10
287.27500150000014
20
-21.575046499999967
10
299.27500150000009
20
-21.575046499999967
10
299.2888665000001
20
-21.575143499999992
10
299.77500150000014
20
-21.575142499999952
42
-0.4142135623731939
10
300.27500150000009
20
-22.075142499999952
10
300.27500250000014
20
-35.075142499999984
42
-0.41421356237311063
10
299.77500150000014
20
-35.575143499999967
10
286.77500050000015
20
-35.575143499999989
42
-0.4142135623732095
10
286.27500150000009
20
-35.075142499999984
10
286.27500150000009
20
-22.075143499999967
42
-0.41421356237302737
10
286.77500150000009
20
-21.575143499999992
10
287.26113550000008
20
-21.575143499999992
0
LWPOLYLINE
5
219
100
AcDbEntity
8
0
100
AcDbPolyline
90
12
70
1
43
0.0
10
286.27500150000014
20
-16.025143499999963
42
0.41421356237311713
10
286.77500150000009
20
-16.525143499999984
10
299.77500150000014
20
-16.525143499999945
42
0.41421356237313667
10
300.27500250000008
20
-16.025142499999962
10
300.27500150000009
20
-3.0251434999999627
42
0.41421356237310086
10
299.77500250000008
20
-2.5251425000000127
10
299.2888665000001
20
-2.5251424999999723
10
299.27500150000009
20
-2.5250464999999602
10
287.27500150000014
20
-2.5250464999999607
10
287.26113550000008
20
-2.5251424999999728
10
286.77500150000009
20
-2.5251424999999639
42
0.41421356237306384
10
286.27500050000009
20
-3.0251434999999649
0
LWPOLYLINE
5
220
100
AcDbEntity
8
0
100
AcDbPolyline
90
12
70
1
43
0.0
10
77.225001500000033
20
-2.5251424999999901
10
77.711135500000083
20
-2.525142499999999
10
77.725001500000062
20
-2.5250464999999873
10
89.72500150000009
20
-2.5250464999999851
10
89.738866500000086
20
-2.5251424999999967
10
90.225001500000005
20
-2.5251435000000164
42
-0.4142135623731581
10
90.72500150000009
20
-3.0251434999999893
10
90.72500150000009
20
-16.025143499999992
42
-0.41421356237308721
10
90.225001500000019
20
-16.525143499999999
10
77.225001500000033
20
-16.525143499999992
42
-0.41421356237309503
10
76.725001500000033
20
-16.025143499999992
10
76.725001500000033
20
-3.0251424999999887
42
-0.41421356237306445
0
LWPOLYLINE
5
221
100
AcDbEntity
8
0
100
AcDbPolyline
90
12
70
1
43
0.0
10
70.675001500000079
20
-2.5250464999999882
10
70.688866500000032
20
-2.5251435000000111
10
71.17500150000005
20
-2.5251435000000111
42
-0.41421356237310025
10
71.675001500000064
20
-3.0251434999999915
10
71.675002500000048
20
-16.025142499999987
42
-0.41421356237310153
10
71.17500150000005
20
-16.525143499999988
10
58.175001500000079
20
-16.525143500000002
42
-0.41421356237310675
10
57.67500150000005
20
-16.025143499999992
10
57.675001500000043
20
-3.025142499999991
42
-0.41421356237306839
10
58.175001500000072
20
-2.5251425000000101
10
58.661135500000093
20
-2.5251425000000012
10
58.67500150000005
20
-2.5250464999999895
0
LWPOLYLINE
5
222
100
AcDbEntity
8
0
100
AcDbPolyline
90
12
70
1
43
0.0
10
72.462501500000073
20
-40.625142500000003
10
72.948635500000066
20
-40.625142500000003
10
72.962501500000073
20
-40.625046500000003
10
84.962501500000016
20
-40.625046500000003
10
84.976366500000054
20
-40.625142500000003
10
85.462499500000035
20
-40.625142499999995
42
-0.41421356237313667
10
85.962501500000059
20
-41.125142499999967
10
85.96250150000003
20
-54.125143500000021
42
-0.4142135623730378
10
85.462501500000045
20
-54.625143500000028
10
72.462501500000073
20
-54.625143500000028
42
-0.414213562373069
10
71.962501500000087
20
-54.125143500000021
10
71.962501500000087
20
-41.125142500000003
42
-0.41421356237302737
0
LWPOLYLINE
5
223
100
AcDbEntity
8
0
100
AcDbPolyline
90
12
70
1
43
0.0
10
237.86250150000015
20
-54.625143499999993
10
224.8625005000001
20
-54.625142499999988
42
-0.41421356237315748
10
224.36250150000006
20
-54.125143499999993
10
224.3625005000001
20
-41.125143499999972
42
-0.41421356237301177
10
224.86250150000006
20
-40.625142499999988
10
225.34863550000011
20
-40.625142499999988
10
225.36250150000015
20
-40.625046499999996
10
237.36250150000004
20
-40.625046499999996
10
237.37636650000013
20
-40.625142499999988
10
237.86250150000015
20
-40.625142499999953
42
-0.41421356237310025
10
238.36250150000009
20
-41.125142499999967
10
238.36250150000006
20
-54.1251415000091
42
-0.41421356236784018
0
LWPOLYLINE
5
224
100
AcDbEntity
8
0
100
AcDbPolyline
90
12
70
1
43
0.0
10
30.086135500000037
20
-21.575143500000014
10
30.100001500000037
20
-21.575046499999999
10
42.100001500000062
20
-21.575046499999999
10
42.113866500000093
20
-21.575143500000014
10
42.600000500000057
20
-21.575142499999984
42
-0.41421356237308204
10
43.100000500000057
20
-22.075142499999977
10
43.100001500000083
20
-35.075141500000008
42
-0.41421356237309764
10
42.600001500000062
20
-35.575143500000003
10
29.600001500000065
20
-35.575142500000027
42
-0.41421356237309503
10
29.100001500000054
20
-35.075142500000013
10
29.100002500000034
20
-22.075142499999977
42
-0.41421356237306384
10
29.600001500000054
20
-21.575143500000049
0
LWPOLYLINE
5
225
100
AcDbEntity
8
0
100
AcDbPolyline
90
12
70
1
43
0.0
10
67.200002500000068
20
-22.07514249999997
10
67.20000150000007
20
-35.075142500000005
42
0.41421356237308982
10
67.70000150000007
20
-35.575142500000013
10
80.70000150000007
20
-35.57514350000001
42
0.41421356237313406
10
81.200001500000084
20
-35.075143500000003
10
81.200001500000099
20
-22.07514249999997
42
0.41421356237309503
10
80.70000050000003
20
-21.575143500000035
10
80.213866500000094
20
-21.57514350000001
10
80.200001500000027
20
-21.575046499999996
10
68.20000150000007
20
-21.575046499999996
10
68.186135500000063
20
-21.57514350000001
10
67.700001500000084
20
-21.575143499999967
42
0.41421356237308204
0
LWPOLYLINE
5
226
100
AcDbEntity
8
0
100
AcDbPolyline
90
12
70
1
43
0.0
10
95.487501500000036
20
-60.175143500000026
42
0.41421356237316265
10
94.987502500000033
20
-59.675142499999971
10
94.501366500000032
20
-59.675143500000054
10
94.487501500000064
20
-59.675046499999993
10
82.487500500000053
20
-59.675046499999993
10
82.473635500000043
20
-59.675143500000054
10
81.987501500000022
20
-59.675143500000026
42
0.41421356237307944
10
81.487500500000053
20
-60.175142500000014
10
81.487500500000039
20
-73.175142500000007
42
0.41421356237311585
10
81.987501500000079
20
-73.675143500000047
10
94.987501500000036
20
-73.675142500000021
42
0.41421356237313145
10
95.48750150000005
20
-73.175142499999993
0
LWPOLYLINE
5
227
100
AcDbEntity
8
0
100
AcDbPolyline
90
12
70
1
43
0.0
10
86.250001500000039
20
-35.075142500000005
10
86.250001500000039
20
-22.075141499999965
42
-0.41421356237316787
10
86.750001500000039
20
-21.575143499999967
10
87.236135500000074
20
-21.57514350000001
10
87.250001500000053
20
-21.575046499999996
10
99.250001500000039
20
-21.575046499999985
10
99.263866500000049
20
-21.57514350000001
10
99.750000500000056
20
-21.575143499999999
42
-0.41421356237311063
10
100.2500015000001
20
-22.07514249999997
10
100.25000250000005
20
-35.075142500000005
42
-0.41421356237309243
10
99.750001500000053
20
-35.57514350000001
10
86.750000500000056
20
-35.575143500000024
42
-0.4142135623730846
0
LWPOLYLINE
5
228
100
AcDbEntity
8
0
100
AcDbPolyline
90
12
70
1
43
0.0
10
62.150001500000073
20
-22.07514249999997
42
0.41421356237308721
10
61.65000150000008
20
-21.575142499999998
10
61.163866500000069
20
-21.57514350000001
10
61.150001500000073
20
-21.575046499999996
10
49.150001500000045
20
-21.575046499999999
10
49.136135500000044
20
-21.575143500000014
10
48.650001500000045
20
-21.575143499999974
42
0.41421356237311585
10
48.150002500000042
20
-22.075142499999977
10
48.150001500000037
20
-35.075142500000013
42
0.41421356237311063
10
48.650001500000037
20
-35.575142500000041
10
61.65000150000008
20
-35.575143499999996
42
0.41421356237305601
10
62.150002500000063
20
-35.075142500000005
0
LWPOLYLINE
5
229
100
AcDbEntity
8
0
100
AcDbPolyline
90
12
70
1
43
0.0
10
52.625001500000046
20
-16.025143499999992
10
52.625001500000074
20
-3.0251434999999938
42
0.41421356237312756
10
52.125002500000051
20
-2.5251425000000145
10
51.638866500000077
20
-2.5251435000000133
10
51.625001500000067
20
-2.52504649999999
10
39.625001500000039
20
-2.5250464999999922
10
39.611135500000074
20
-2.5251425000000034
10
39.125001500000053
20
-2.5251425000000056
42
0.41421356237309925
10
38.625000500000056
20
-3.0251435000000049
10
38.625001500000046
20
-16.025143499999995
42
0.41421356237310414
10
39.125001500000074
20
-16.525143499999999
10
52.125001500000046
20
-16.525143499999992
42
0.41421356237310542
0
LWPOLYLINE
5
230
100
AcDbEntity
8
0
100
AcDbPolyline
90
12
70
1
43
0.0
10
75.937501500000067
20
-73.675142500000021
10
62.937501500000096
20
-73.675142500000007
42
-0.41421356237307422
10
62.437501500000074
20
-73.175142499999993
10
62.437501500000053
20
-60.175141500000002
42
-0.41421356237303258
10
62.937501500000096
20
-59.675143500000054
10
63.423635500000103
20
-59.675143500000054
10
63.437501500000067
20
-59.675046499999993
10
75.437501500000053
20
-59.675046499999993
10
75.451366500000049
20
-59.675143500000054
10
75.937501500000067
20
-59.675143500000019
42
-0.41421356237309503
10
76.437501500000053
20
-60.175143500000026
10
76.437501500000067
20
-73.175142499999993
42
-0.41421356237314183
0
LWPOLYLINE
5
231
100
AcDbEntity
8
0
100
AcDbPolyline
90
12
70
1
43
0.0
10
215.33750150000003
20
-59.675143499999983
10
215.82363549999999
20
-59.675143500000019
10
215.83750150000012
20
-59.675046499999986
10
227.83750150000003
20
-59.675046499999986
10
227.85136650000013
20
-59.675143500000019
10
228.33750250000011
20
-59.675142500000064
42
-0.41421356237310542
10
228.83750150000012
20
-60.175143500000026
10
228.83750150000003
20
-73.175142499999993
42
-0.41421356237299095
10
228.33750150000012
20
-73.675142500000007
10
215.33749950000009
20
-73.675142500000021
42
-0.41421356237311585
10
214.83750150000009
20
-73.175142499999993
10
214.83750150000014
20
-60.175143500000026
42
-0.41421356237313667
0
ENDSEC
0
SECTION
2
OBJECTS
0
DICTIONARY
5
C
100
AcDbDictionary
3
ACAD_GROUP
350
D
3
ACAD_MLINESTYLE
350
17
0
DICTIONARY
5
D
100
AcDbDictionary
0
DICTIONARY
5
1A
330
C
100
AcDbDictionary
0
DICTIONARY
5
17
100
AcDbDictionary
0
ENDSEC
0
EOF
