0
SECTION
2
HEADER
9
$INSUNITS
70
4
9
$ACADVER
1
AC1014
9
$HANDSEED
5
FFFF
0
ENDSEC
0
SECTION
2
TABLES
0
TABLE
2
VPORT
5
8
100
AcDbSymbolTable
0
ENDTAB
0
TABLE
2
LTYPE
5
5
100
AcDbSymbolTable
0
LTYPE
5
14
100
AcDbSymbolTableRecord
100
AcDbLinetypeTableRecord
2
BYBLOCK
70
0
0
LTYPE
5
15
100
AcDbSymbolTableRecord
100
AcDbLinetypeTableRecord
2
BYLAYER
70
0
0
ENDTAB
0
TABLE
2
LAYER
5
2
100
AcDbSymbolTable
70
2
0
LAYER
5
50
100
AcDbSymbolTableRecord
100
AcDbLayerTableRecord
2
0
70
0
6
CONTINUOUS
0
ENDTAB
0
TABLE
2
STYLE
5
3
100
AcDbSymbolTable
70
1
0
STYLE
5
11
100
AcDbSymbolTableRecord
100
AcDbTextStyleTableRecord
2
STANDARD
70
0
0
ENDTAB
0
TABLE
2
VIEW
5
6
100
AcDbSymbolTable
70
0
0
ENDTAB
0
TABLE
2
UCS
5
7
100
AcDbSymbolTable
70
0
0
ENDTAB
0
TABLE
2
APPID
5
9
100
AcDbSymbolTable
70
2
0
APPID
5
12
100
AcDbSymbolTableRecord
100
AcDbRegAppTableRecord
2
ACAD
70
0
0
ENDTAB
0
TABLE
2
DIMSTYLE
5
A
100
AcDbSymbolTable
70
1
0
ENDTAB
0
TABLE
2
BLOCK_RECORD
5
1
100
AcDbSymbolTable
70
1
0
BLOCK_RECORD
5
1F
100
AcDbSymbolTableRecord
100
AcDbBlockTableRecord
2
*MODEL_SPACE
0
BLOCK_RECORD
5
1B
100
AcDbSymbolTableRecord
100
AcDbBlockTableRecord
2
*PAPER_SPACE
0
ENDTAB
0
ENDSEC
0
SECTION
2
BLOCKS
0
BLOCK
5
20
100
AcDbEntity
100
AcDbBlockBegin
2
*MODEL_SPACE
0
ENDBLK
5
21
100
AcDbEntity
100
AcDbBlockEnd
0
BLOCK
5
1C
100
AcDbEntity
100
AcDbBlockBegin
2
*PAPER_SPACE
0
ENDBLK
5
1D
100
AcDbEntity
100
AcDbBlockEnd
0
ENDSEC
0
SECTION
2
ENTITIES
0
LWPOLYLINE
5
100
100
AcDbEntity
8
0
100
AcDbPolyline
90
56
70
1
43
0.0
10
137.37500150000005
20
-97.350046499999991
10
137.37500150000005
20
-96.250046499999996
42
0.41421356237310025
10
136.37500150000005
20
-95.250046499999996
10
48.025000500000061
20
-95.25004650000001
42
0.41421356237309764
10
47.025000500000054
20
-96.25004650000001
10
47.025000500000054
20
-97.350046500000005
42
-0.99999999999999989
10
40.025000500000061
20
-97.350046500000005
10
40.025000500000054
20
-96.25004650000001
42
0.41421356237309243
10
39.025001500000066
20
-95.250047500000008
10
-0.9999984999999405
20
-95.250046499999996
42
-0.41421356237309509
10
-1.9999984999999283
20
-94.250046500000025
10
-1.9999994999999571
20
-1.0000475000000011
42
-0.41421356237308887
10
-0.99999949999997284
20
-4.7499999995537223e-05
10
39.025000500000061
20
-4.7499999990679997e-05
42
0.41421356237309559
10
40.025000500000054
20
0.99995250000000591
10
40.025000500000054
20
2.0999524999999912
42
-0.99999999999999989
10
47.025000500000047
20
2.0999524999999926
10
47.025000500000047
20
0.99995250000000691
42
0.41421356237309687
10
48.025000500000061
20
-4.7499999989533393e-05
10
136.37500150000005
20
-4.74999999787451e-05
42
0.41421356237309692
10
137.37500150000005
20
0.99995250000001779
10
137.37500150000005
20
2.0999525000000032
42
-0.99999999999999989
10
144.37500150000002
20
2.0999525000000046
10
144.37500150000008
20
0.99995250000001878
42
0.41421356237309687
10
145.37500150000005
20
-4.7499999977611458e-05
10
233.72500150000008
20
-4.7499999966671425e-05
42
0.41421356237310542
10
234.72500150000008
20
0.99995250000002978
10
234.72500150000016
20
2.0999521701487516
42
-1.0000000471216102
10
241.72500150000005
20
2.0999525000000165
10
241.72500150000013
20
0.99995250000003078
42
0.41421356237309453
10
242.72500150000013
20
-4.7499999983453085e-05
10
288.77500150000003
20
-4.7499999960010086e-05
42
0.41421356237310542
10
289.77500150000003
20
0.99995250000003644
10
289.77500150000003
20
2.0999525000000219
42
-0.99999999999999989
10
296.77500150000009
20
2.0999525000000228
10
296.77500150000009
20
0.99995250000003755
42
0.41421356237309453
10
297.77500150000009
20
-4.7499999976711408e-05
10
301.80000150000012
20
-4.7499999949601746e-05
42
-0.41421356237309548
10
302.80000150000012
20
-1.0000474999999653
10
302.80000150000012
20
-94.250046499999982
42
-0.41421356237309503
10
301.80000150000012
20
-95.250046499999982
10
297.77500150000009
20
-95.250046499999982
42
0.41421356237310542
10
296.77500150000009
20
-96.250046499999968
10
296.77500150000009
20
-97.350046499999962
42
-0.99999999999999989
10
289.77500150000003
20
-97.350046499999962
10
289.77500150000003
20
-96.250046499999968
42
0.41421356237310025
10
288.77500150000003
20
-95.250046499999968
10
242.72500150000013
20
-95.250046499999982
42
0.41421356237310542
10
241.72500150000013
20
-96.250046499999968
10
241.72500150000013
20
-97.350046499999962
42
-0.99999999999999989
10
234.72500150000008
20
-97.350046499999962
10
234.72500150000008
20
-96.250046499999968
42
0.41421356237310025
10
233.72500150000008
20
-95.250046499999968
10
145.37500150000008
20
-95.250046499999996
42
0.41421356237309503
10
144.37500150000005
20
-96.250046499999996
10
144.37500150000005
20
-97.350046499999991
42
-0.99999999999999989
0
CIRCLE
5
101
100
AcDbEntity
8
0
100
AcDbCircle
10
43.51696750000005
20
2.1000435000000071
30
0
40
1.0999999999999985
210
0
220
-0
230
1
0
CIRCLE
5
102
100
AcDbEntity
8
0
100
AcDbCircle
10
140.8669675000001
20
-97.359956499999981
30
0
40
1.0999999999999943
210
0
220
-0
230
1
0
LWPOLYLINE
5
103
100
AcDbEntity
8
0
100
AcDbPolyline
90
12
70
1
43
0.0
10
148.66250150000008
20
-54.625143500000007
10
161.66250150000008
20
-54.625143500000007
42
0.41421356236779855
10
162.1625015000001
20
-54.125141500009093
10
162.16250150000008
20
-41.125142499999981
42
0.41421356237316787
10
161.66250150000008
20
-40.625142499999995
10
161.17636650000006
20
-40.625142499999995
10
161.16250150000008
20
-40.625046499999996
10
149.16250150000008
20
-40.625046499999996
10
149.14863550000004
20
-40.625142499999995
10
148.66250150000008
20
-40.625142499999995
42
0.41421356237310025
10
148.16250150000008
20
-41.125142500000003
10
148.16250150000008
20
-54.125143500000007
42
0.41421356237302737
0
LWPOLYLINE
5
104
100
AcDbEntity
8
0
100
AcDbPolyline
90
12
70
1
43
0.0
10
144.40000150000006
20
-21.575046499999981
10
144.38613550000005
20
-21.575143500000003
10
143.90000150000003
20
-21.575143500000014
42
0.41421356237308721
10
143.40000150000006
20
-22.075143500000021
10
143.40000150000003
20
-35.075142499999998
42
0.41421356237307422
10
143.90000150000003
20
-35.57514249999997
10
156.90000150000006
20
-35.575143499999996
42
0.41421356237307161
10
157.40000150000006
20
-35.075143499999996
10
157.40000150000006
20
-22.075142499999963
42
0.4142135623730846
10
156.90000150000006
20
-21.575142499999977
10
156.41386650000007
20
-21.575143500000003
10
156.40000150000003
20
-21.575046499999981
0
LWPOLYLINE
5
105
100
AcDbEntity
8
0
100
AcDbPolyline
90
12
70
1
43
0.0
10
95.775000500000033
20
-3.0251414999999913
42
-0.41421356237311063
10
96.275001500000016
20
-2.5251425000000047
10
96.761135500000108
20
-2.5251424999999958
10
96.77500150000003
20
-2.5250464999999842
10
108.77500150000003
20
-2.5250464999999833
10
108.78886650000005
20
-2.525142499999995
10
109.27500150000007
20
-2.5251435000000018
42
-0.41421356237308204
10
109.7750015000001
20
-3.0251435000000049
10
109.77500150000009
20
-16.025143499999949
42
-0.41421356237309631
10
109.27500150000006
20
-16.525143499999974
10
96.27500150000003
20
-16.525143499999988
42
-0.41421356237309115
10
95.77500150000003
20
-16.025143499999988
0
LWPOLYLINE
5
106
100
AcDbEntity
8
0
100
AcDbPolyline
90
12
70
1
43
0.0
10
110.5625015000001
20
-54.625143500000007
42
-0.41421356237306384
10
110.06250150000005
20
-54.125143499999986
10
110.06250050000006
20
-41.12514149999997
42
-0.414213562373069
10
110.5625015000001
20
-40.625142499999995
10
111.04863550000005
20
-40.625142499999995
10
111.06250150000008
20
-40.625046499999996
10
123.06250150000011
20
-40.625046499999996
10
123.07636650000006
20
-40.625142499999995
10
123.56249950000004
20
-40.625142500000024
42
-0.41421356237308982
10
124.06250150000005
20
-41.125142499999981
10
124.06250150000007
20
-54.12514349999995
42
-0.4142135623730222
10
123.56250150000007
20
-54.625143500000007
0
LWPOLYLINE
5
107
100
AcDbEntity
8
0
100
AcDbPolyline
90
12
70
1
43
0.0
10
199.76250150000013
20
-40.625142499999988
10
199.27636650000005
20
-40.625142499999988
10
199.2625015000001
20
-40.625046499999982
10
187.26250150000004
20
-40.625046499999982
10
187.24863550000003
20
-40.625142499999988
10
186.76250150000004
20
-40.625142499999988
42
0.4142135623730534
10
186.26250050000004
20
-41.125143500000007
10
186.26250150000001
20
-54.125143499999979
42
0.41421356237315748
10
186.76250050000007
20
-54.625142499999988
10
199.76250150000013
20
-54.6251435
42
0.41421356236783496
10
200.2625015000001
20
-54.1251415000091
10
200.2625015000001
20
-41.125142499999974
42
0.41421356237305862
0
LWPOLYLINE
5
108
100
AcDbEntity
8
0
100
AcDbPolyline
90
12
70
1
43
0.0
10
91.512501500000099
20
-54.62514250000001
10
104.51250150000007
20
-54.625143500000021
42
0.41421356237310542
10
105.01250250000005
20
-54.125142500000052
10
105.01250150000006
20
-41.125142499999995
42
0.41421356237313667
10
104.51250150000007
20
-40.625142500000003
10
104.02636650000005
20
-40.625142500000003
10
104.0125015000001
20
-40.625046500000003
10
92.01250150000007
20
-40.625046500000003
10
91.998635500000034
20
-40.625142500000003
10
91.512501500000084
20
-40.625142500000003
42
0.41421356237956736
10
91.012500500000044
20
-41.125141500011118
10
91.01250050000003
20
-54.125143499999993
42
0.41421356237310542
0
CIRCLE
5
109
100
AcDbEntity
8
0
100
AcDbCircle
10
140.88696750000003
20
2.1100435000000135
30
0
40
1.0999999999999943
210
0
220
-0
230
1
0
LWPOLYLINE
5
110
100
AcDbEntity
8
0
100
AcDbPolyline
90
12
70
1
43
0.0
10
181.50000150000011
20
-22.075143499999982
10
181.50000150000011
20
-35.075142500013065
42
0.41421356236546769
10
181.99999950000006
20
-35.575142499999949
10
195.00000150000002
20
-35.575143499999974
42
0.41421356237304563
10
195.50000250000005
20
-35.075142499999991
10
195.50000150000002
20
-22.075142499999941
42
0.4142135623730378
10
195.00000150000005
20
-21.57514249999997
10
194.51386650000003
20
-21.575143499999999
10
194.5000015
20
-21.575046499999978
10
182.50000150000005
20
-21.575046499999978
10
182.4861355000001
20
-21.575143499999999
10
182.0000015
20
-21.575143499999999
42
0.41421356237306384
0
LWPOLYLINE
5
111
100
AcDbEntity
8
0
100
AcDbPolyline
90
12
70
1
43
0.0
10
175.46386650000002
20
-21.575143499999999
10
175.45000150000007
20
-21.575046499999978
10
163.45000150000004
20
-21.575046499999978
10
163.43613550000009
20
-21.575143499999999
10
162.95000150000004
20
-21.57514350000001
42
0.41421356237308721
10
162.45000150000007
20
-22.075143499999982
10
162.45000150000007
20
-35.075142500000013
42
0.41421356237311063
10
162.94999950000005
20
-35.575142499999963
10
175.95000150000007
20
-35.57514349999996
42
0.41421356236784018
10
176.4500015000001
20
-35.07514150000906
10
176.4500015000001
20
-22.075142499999934
42
0.41421356237312101
10
175.95000150000004
20
-21.575142499999963
0
LWPOLYLINE
5
112
100
AcDbEntity
8
0
100
AcDbPolyline
90
12
70
1
43
0.0
10
153.92500150000006
20
-2.525046499999978
10
153.91113550000011
20
-2.5251424999999896
10
153.42500150000004
20
-2.5251424999999985
42
0.41421356237309209
10
152.92500050000007
20
-3.0251434999999804
10
152.92500150000006
20
-16.025143499999977
42
0.41421356237305212
10
153.42500250000006
20
-16.525142499999973
10
166.42500150000004
20
-16.525143499999977
42
0.41421356237306639
10
166.92500150000006
20
-16.025141499999982
10
166.92500150000006
20
-3.0251434999999622
42
0.41421356237304074
10
166.42500250000006
20
-2.5251424999999879
10
165.93886650000007
20
-2.5251424999999879
10
165.92500150000006
20
-2.5250464999999762
0
LWPOLYLINE
5
113
100
AcDbEntity
8
0
100
AcDbPolyline
90
12
70
1
43
0.0
10
133.87500050000006
20
-3.0251435000000026
10
133.87500150000008
20
-16.025143499999984
42
0.41421356237305862
10
134.37500249999999
20
-16.525142500000001
10
147.37500150000005
20
-16.525143499999977
42
0.41421356237311974
10
147.87500150000005
20
-16.025143499999981
10
147.87500150000011
20
-3.0251434999999822
42
0.41421356237312656
10
147.37500250000008
20
-2.5251424999999812
10
146.88886650000006
20
-2.5251424999999901
10
146.87500150000002
20
-2.5250464999999784
10
134.87500150000011
20
-2.5250464999999798
10
134.86113550000005
20
-2.5251424999999914
10
134.37500150000005
20
-2.5251425000000003
42
0.41421356237310641
0
LWPOLYLINE
5
114
100
AcDbEntity
8
0
100
AcDbPolyline
90
12
70
1
43
0.0
10
125.35000150000005
20
-21.575046499999981
10
125.33613550000005
20
-21.575143500000003
10
124.85000150000005
20
-21.57514350000001
42
0.41421356237313406
10
124.35000150000008
20
-22.075143500000006
10
124.35000150000006
20
-35.075142500000005
42
0.41421356237312623
10
124.85000150000008
20
-35.575142499999991
10
137.85000150000008
20
-35.575143499999996
42
0.4142135623730846
10
138.35000150000008
20
-35.07514350000001
10
138.3500015000001
20
-22.075142500000009
42
0.41421356237307422
10
137.85000150000008
20
-21.575142499999966
10
137.36386650000006
20
-21.575143500000003
10
137.35000150000008
20
-21.575046499999981
0
LWPOLYLINE
5
115
100
AcDbEntity
8
0
100
AcDbPolyline
90
12
70
1
43
0.0
10
106.30000150000008
20
-21.575046499999985
10
106.28613550000011
20
-21.57514350000001
10
105.80000150000006
20
-21.575143499999974
42
0.41421356237308204
10
105.30000250000008
20
-22.07514249999997
10
105.30000150000006
20
-35.075142500000005
42
0.41421356237303519
10
105.80000150000006
20
-35.575142499999977
10
118.80000150000006
20
-35.575143499999967
42
0.41421356237307161
10
119.30000250000006
20
-35.075142500000005
10
119.30000150000011
20
-22.07514249999997
42
0.41421356237304563
10
118.80000050000007
20
-21.57514350000001
10
118.31386650000006
20
-21.57514350000001
10
118.30000150000011
20
-21.575046499999985
0
LWPOLYLINE
5
116
100
AcDbEntity
8
0
100
AcDbPolyline
90
12
70
1
43
0.0
10
128.82500050000004
20
-16.025143499999984
10
128.82500050000004
20
-3.0251435000000111
42
0.41421356237305795
10
128.32500050000007
20
-2.5251434999999862
10
127.83886650000007
20
-2.5251424999999923
10
127.82500050000003
20
-2.5250464999999807
10
115.82500150000008
20
-2.5250464999999824
10
115.81113550000005
20
-2.5251424999999941
10
115.32500150000006
20
-2.5251424999999941
42
0.41421356237308593
10
114.82500150000007
20
-3.0251424999999843
10
114.82500150000006
20
-16.025143499999995
42
0.41421356237306511
10
115.32500150000004
20
-16.525143500000002
10
128.32500050000007
20
-16.525143499999981
42
0.41421356237309115
0
LWPOLYLINE
5
117
100
AcDbEntity
8
0
100
AcDbPolyline
90
12
70
1
43
0.0
10
218.32636650000012
20
-40.625142499999988
10
218.31250150000002
20
-40.625046499999982
10
206.31250150000005
20
-40.625046499999982
10
206.2986355000001
20
-40.625142499999988
10
205.81250150000002
20
-40.625142499999988
42
0.41421356237312623
10
205.31250050000006
20
-41.125143499999972
10
205.31250150000002
20
-54.125143499999943
42
0.41421356237316787
10
205.81250050000008
20
-54.625142499999988
10
218.81250150000005
20
-54.625143500000021
42
0.41421356236773094
10
219.31250150000005
20
-54.12514150000905
10
219.31250150000005
20
-41.125142499999974
42
0.41421356237303258
10
218.81250150000005
20
-40.625142499999988
0
LWPOLYLINE
5
118
100
AcDbEntity
8
0
100
AcDbPolyline
90
12
70
1
43
0.0
10
201.04999950000007
20
-35.575142499999941
10
214.05000150000006
20
-35.575143499999974
42
0.41421356237303519
10
214.55000250000006
20
-35.075142499999956
10
214.55000150000004
20
-22.075142499999956
42
0.41421356237301959
10
214.05000150000006
20
-21.575142499999966
10
213.56386650000005
20
-21.575143499999996
10
213.55000150000009
20
-21.575046499999971
10
201.55000150000006
20
-21.575046499999971
10
201.53613550000003
20
-21.575143499999996
10
201.05000150000009
20
-21.575143500000014
42
0.4142135623730222
10
200.55000150000012
20
-22.075143499999974
10
200.55000150000012
20
-35.075142499999991
42
0.41421356237316526
0
LWPOLYLINE
5
119
100
AcDbEntity
8
0
100
AcDbPolyline
90
12
70
1
43
0.0
10
217.21875050000011
20
-79.225143499999987
42
-0.41421356237314183
10
217.71875150000005
20
-78.725142499999961
10
218.20488550000007
20
-78.725142499999961
10
218.21875150000005
20
-78.725046499999976
10
230.21875150000005
20
-78.725046499999976
10
230.23261650000009
20
-78.725142499999961
10
230.71875150000005
20
-78.725142499999933
42
-0.41421356237316787
10
231.21875150000008
20
-79.225142499999961
10
231.21875250000011
20
-92.225142499999961
42
-0.41421356237307422
10
230.71875150000005
20
-92.725143499999973
10
217.71875150000005
20
-92.725143500000016
42
-0.41421356237311585
10
217.21875150000005
20
-92.225143499999973
0
LWPOLYLINE
5
120
100
AcDbEntity
8
0
100
AcDbPolyline
90
12
70
1
43
0.0
10
194.39238550000005
20
-78.725142499999961
10
193.90625150000005
20
-78.725142499999961
42
0.41421356237314183
10
193.40625050000006
20
-79.225143499999987
10
193.40625150000005
20
-92.225143499999987
42
0.41421356237306384
10
193.90625250000005
20
-92.725142499999947
10
206.90625150000002
20
-92.725143500000001
42
0.41421356237309503
10
207.40625250000008
20
-92.225142499999976
10
207.4062515
20
-79.225142499999961
42
0.41421356237307944
10
206.90625150000002
20
-78.725142499999961
10
206.42011650000006
20
-78.725142499999961
10
206.40625150000005
20
-78.725046499999976
10
194.40625150000002
20
-78.725046499999976
0
LWPOLYLINE
5
121
100
AcDbEntity
8
0
100
AcDbPolyline
90
12
70
1
43
0.0
10
134.98261650000006
20
-78.725142499999961
10
134.96875150000008
20
-78.725046499999976
10
122.96875150000007
20
-78.725046499999976
10
122.95488550000007
20
-78.725142499999961
10
122.46875150000008
20
-78.725142499999976
42
0.41421356237310542
10
121.96875050000008
20
-79.225141499999978
10
121.96875150000011
20
-92.225143499999987
42
0.4142135623730846
10
122.46875250000008
20
-92.725142499999947
10
135.46875150000005
20
-92.725143500000001
42
0.41421356237306384
10
135.96875150000005
20
-92.225141499999964
10
135.96875150000008
20
-79.225142499999976
42
0.41421356237307944
10
135.46875050000006
20
-78.725143500000001
0
LWPOLYLINE
5
122
100
AcDbEntity
8
0
100
AcDbPolyline
90
12
70
1
43
0.0
10
281.22500150000008
20
-92.225143499999973
10
281.22500150000008
20
-79.225142499999947
42
0.41421356237307944
10
280.72500150000002
20
-78.725142499999933
10
280.23886650000009
20
-78.725142499999947
10
280.22500150000008
20
-78.725046499999962
10
268.22500150000002
20
-78.725046499999962
10
268.21113550000007
20
-78.725142499999947
10
267.72500150000002
20
-78.725142499999947
42
0.41421356237302737
10
267.22500050000014
20
-79.225143499999987
10
267.22500150000008
20
-92.225143499999973
42
0.41421356237312623
10
267.72500250000007
20
-92.725142499999947
10
280.72500150000008
20
-92.725143499999959
42
0.4142135623730222
0
LWPOLYLINE
5
123
100
AcDbEntity
8
0
100
AcDbPolyline
90
12
70
1
43
0.0
10
75.968750500000056
20
-91.725142499999976
10
81.968751500000096
20
-91.725143499999945
42
0.41421356237307422
10
82.468751500000067
20
-91.225141499999978
10
82.468751500000081
20
-77.225143500000001
42
0.41421356237308982
10
81.968750500000084
20
-76.725142500000004
10
81.482616500000034
20
-76.725142500000004
10
81.468751500000081
20
-76.725046499999991
10
76.468751500000081
20
-76.725046499999991
10
76.454885500000074
20
-76.725142500000004
10
75.968751500000053
20
-76.725143500000016
42
0.41421356237311585
10
75.468751500000067
20
-77.225141500000007
10
75.468751500000067
20
-91.225143500000016
42
0.41421356237312623
0
LWPOLYLINE
5
124
100
AcDbEntity
8
0
100
AcDbPolyline
90
12
70
1
43
0.0
10
287.27500150000003
20
-78.725046499999962
10
287.26113550000008
20
-78.725142499999947
10
286.77500150000009
20
-78.725142499999947
42
0.41421356237314183
10
286.27500050000009
20
-79.225143499999987
10
286.27500150000009
20
-92.225143499999973
42
0.41421356237303258
10
286.77500250000008
20
-92.725142499999976
10
299.77500150000014
20
-92.725143500000016
42
0.41421356237309503
10
300.27500150000009
20
-92.225143499999973
10
300.27500150000009
20
-79.225142499999947
42
0.41421356237316787
10
299.77500150000003
20
-78.725142499999947
10
299.2888665000001
20
-78.725142499999947
10
299.27500150000009
20
-78.725046499999962
0
LWPOLYLINE
5
125
100
AcDbEntity
8
0
100
AcDbPolyline
90
12
70
1
43
0.0
10
261.18886650000007
20
-78.725142499999947
10
261.17500150000012
20
-78.725046499999962
10
249.17500150000009
20
-78.725046499999976
10
249.16113550000006
20
-78.725142499999961
10
248.67500150000012
20
-78.725142499999961
42
0.41421356237309503
10
248.17500050000012
20
-79.225143499999987
10
248.17500150000015
20
-92.225143499999973
42
0.41421356237304302
10
248.67500250000001
20
-92.72514249999999
10
261.67500150000012
20
-92.725143500000001
42
0.4142135623730846
10
262.17500250000006
20
-92.225142499999961
10
262.17500150000012
20
-79.225142499999947
42
0.41421356237312623
10
261.67500150000012
20
-78.725142499999933
0
LWPOLYLINE
5
126
100
AcDbEntity
8
0
100
AcDbPolyline
90
12
70
1
43
0.0
10
182.46875150000008
20
-91.225143500000001
10
182.46875150000008
20
-77.225143499999987
42
0.41421356237315227
10
181.96875250000005
20
-76.725142499999961
10
181.48261650000001
20
-76.725142499999976
10
181.46875150000005
20
-76.725046499999976
10
176.46875150000005
20
-76.725046499999991
10
176.45488550000005
20
-76.72514249999999
10
175.9687515
20
-76.725143500000001
42
0.4142135623730534
10
175.46875150000005
20
-77.225143499999987
10
175.46875150000005
20
-91.225143500000001
42
0.41421356237309503
10
175.96875150000002
20
-91.72514350000003
10
181.96875150000011
20
-91.725143500000001
42
0.41421356237310542
0
LWPOLYLINE
5
127
100
AcDbEntity
8
0
100
AcDbPolyline
90
12
70
1
43
0.0
10
27.218750500000063
20
-92.72514249999999
42
-0.41421356237311063
10
26.71875150000006
20
-92.225143500000001
10
26.718750500000048
20
-79.225141499999992
42
-0.41421356237307683
10
27.218751500000057
20
-78.725142499999947
10
27.704885500000039
20
-78.725142499999976
10
27.718751500000039
20
-78.725046499999991
10
39.718751500000067
20
-78.725046499999991
10
39.732616500000056
20
-78.725142499999976
10
40.218751500000074
20
-78.725142499999976
42
-0.41421356237307944
10
40.718751500000067
20
-79.225142499999976
10
40.718751500000053
20
-92.225141499999978
42
-0.41421356237310542
10
40.218751500000067
20
-92.725143500000016
0
CIRCLE
5
128
100
AcDbEntity
8
0
100
AcDbCircle
10
111.96968750000011
20
-87.425712499999989
30
0
40
2.7999999999999936
210
0
220
-0
230
1
0
ARC
5
129
100
AcDbEntity
8
0
100
AcDbCircle
10
107.34468750000005
20
-86.150712500000083
30
0
40
3.0000001329829296
210
0
220
0
230
1
100
AcDbArc
50
226.76675452295964
51
287.01757386395684
0
ARC
5
130
100
AcDbEntity
8
0
100
AcDbCircle
10
104.94729350000009
20
-88.700712500000009
30
0
40
0.49999958005147072
210
0
220
-0
230
1
100
AcDbArc
50
46.766864175098547
51
90.000098985417893
0
LINE
5
131
100
AcDbEntity
8
0
100
AcDbLine
10
104.94729263619008
20
-88.200712919949268
30
0
11
104.88846950000153
21
-88.20071275816899
31
0
0
ARC
5
132
100
AcDbEntity
8
0
100
AcDbCircle
10
104.88846950000018
20
-87.70071249999971
30
0
40
0.50000025816930105
210
0
220
0
230
1
100
AcDbArc
50
240.00001708031587
51
270.00000000015467
0
LINE
5
133
100
AcDbEntity
8
0
100
AcDbLine
10
104.63846950000006
20
-88.133725500000054
30
0
11
104.61071250000012
21
-88.117699500000001
31
0
0
ARC
5
134
100
AcDbEntity
8
0
100
AcDbCircle
10
104.3607125000001
20
-88.550712500000003
30
0
40
0.50000025816894011
210
0
220
-0
230
1
100
AcDbArc
50
60.000017080307593
51
90.000017081013851
0
LINE
5
135
100
AcDbEntity
8
0
100
AcDbLine
10
104.36071235094006
20
-88.050712241831093
30
0
11
103.74468750000007
21
-88.050712500000031
31
0
0
ARC
5
136
100
AcDbEntity
8
0
100
AcDbCircle
10
103.74468750000007
20
-87.050712500000031
30
0
40
0.99999999999999645
210
0
220
0
230
1
100
AcDbArc
50
180
51
270
0
LINE
5
137
100
AcDbEntity
8
0
100
AcDbLine
10
102.74468750000008
20
-87.050712500000031
30
0
11
102.74468750000013
21
-86.850712499999986
31
0
0
ARC
5
138
100
AcDbEntity
8
0
100
AcDbCircle
10
103.2446875000001
20
-86.776116500000029
30
0
40
0.50553393873802621
210
0
220
0
230
1
100
AcDbArc
50
-8.4854839783134377
51
188.48548397831368
0
LINE
5
139
100
AcDbEntity
8
0
100
AcDbLine
10
103.74468750000008
20
-86.850712499999986
30
0
11
103.74471350000009
21
-86.996697499999925
31
0
0
ARC
5
140
100
AcDbEntity
8
0
100
AcDbCircle
10
103.93936350000011
20
-86.996662499999985
30
0
40
0.19465000314669412
210
0
220
0
230
1
100
AcDbArc
50
180.01030234912966
51
348.92755754858325
0
ARC
5
141
100
AcDbEntity
8
0
100
AcDbCircle
10
104.43220250000007
20
-87.188546499999944
30
0
40
0.33905973604993028
210
0
220
0
230
1
100
AcDbArc
50
90.843401883234279
51
152.89153433437721
0
ARC
5
142
100
AcDbEntity
8
0
100
AcDbCircle
10
107.34468750000005
20
-86.150712500000083
30
0
40
3.0000001554090523
210
0
220
0
230
1
100
AcDbArc
50
111.59458311099351
51
193.47004554133113
0
LINE
5
143
100
AcDbEntity
8
0
100
AcDbLine
10
106.2405775000002
20
-83.361278500000324
30
0
11
117.11766258754922
21
-79.055923721183191
31
0
0
ARC
5
144
100
AcDbEntity
8
0
100
AcDbCircle
10
117.30168150000011
20
-79.520828500000022
30
0
40
0.49999941350600297
210
0
220
-0
230
1
100
AcDbArc
50
25.799962525808798
51
111.59468225931687
0
LINE
5
145
100
AcDbEntity
8
0
100
AcDbLine
10
117.75184050000041
20
-79.303213499999842
30
0
11
119.17540755696437
21
-82.248003472462173
31
0
0
ARC
5
146
100
AcDbEntity
8
0
100
AcDbCircle
10
118.72524850000005
20
-82.465619500000003
30
0
40
0.49999997580201799
210
0
220
0
230
1
100
AcDbArc
50
-59.994573174086135
51
25.800065694812783
0
LINE
5
147
100
AcDbEntity
8
0
100
AcDbLine
10
118.97528950000009
20
-82.898608499999995
30
0
11
115.17728262668251
21
-85.091866719372078
31
0
0
ARC
5
148
100
AcDbEntity
8
0
100
AcDbCircle
10
114.92724150000014
20
-84.658877499999988
30
0
40
0.50000022912502029
210
0
220
0
230
1
100
AcDbArc
50
223.09183286567998
51
300.00542682592305
0
ARC
5
149
100
AcDbEntity
8
0
100
AcDbCircle
10
111.96968750000011
20
-87.425712499999989
30
0
40
3.5499999659543175
210
0
220
-0
230
1
100
AcDbArc
50
43.091780588067699
51
195.98831018703262
0
ARC
5
150
100
AcDbEntity
8
0
100
AcDbCircle
10
108.07635050000009
20
-88.54125049999999
30
0
40
0.499999597980614
210
0
220
0
230
1
100
AcDbArc
50
-72.98246415467095
51
15.988440582064941
0
LWPOLYLINE
5
151
100
AcDbEntity
8
0
100
AcDbPolyline
90
12
70
1
43
0.0
10
210.5750005000001
20
-16.525142499999987
10
223.57500150000007
20
-16.525143499999977
42
0.41421356237306384
10
224.07500250000012
20
-16.025142499999969
10
224.07500150000004
20
-3.0251434999999729
42
0.41421356237307261
10
223.57500250000015
20
-2.5251424999999807
10
223.08886650000005
20
-2.5251424999999807
10
223.0750015000001
20
-2.5250464999999691
10
211.07500150000007
20
-2.5250464999999704
10
211.06113550000003
20
-2.5251424999999821
10
210.5750015000001
20
-2.5251424999999732
42
0.41421356237310381
10
210.07500050000004
20
-3.0251434999999294
10
210.07500150000013
20
-16.02514349999997
42
0.41421356237299095
0
CIRCLE
5
152
100
AcDbEntity
8
0
100
AcDbCircle
10
238.22696750000006
20
2.0900435000000277
30
0
40
1.0999999999999943
210
0
220
-0
230
1
0
LINE
5
153
100
AcDbEntity
8
0
100
AcDbLine
10
85.633200769654977
20
-86.850712499999986
30
0
11
85.633226769655067
21
-86.996697499999982
31
0
0
ARC
5
154
100
AcDbEntity
8
0
100
AcDbCircle
10
85.827876769655077
20
-86.996662499999985
30
0
40
0.19465000314667635
210
0
220
0
230
1
100
AcDbArc
50
180.01030234912966
51
348.92730254515902
0
ARC
5
155
100
AcDbEntity
8
0
100
AcDbCircle
10
86.320715769655095
20
-87.188546499999973
30
0
40
0.33905973604997924
210
0
220
0
230
1
100
AcDbArc
50
90.843387775006846
51
152.89167503247012
0
ARC
5
156
100
AcDbEntity
8
0
100
AcDbCircle
10
89.233200769655042
20
-86.150712499999997
30
0
40
3.0000001554089768
210
0
220
0
230
1
100
AcDbArc
50
111.59458311099436
51
193.47004588988796
0
LINE
5
157
100
AcDbEntity
8
0
100
AcDbLine
10
88.129090769655178
20
-83.361278500000324
30
0
11
99.006176887510065
21
-79.055923313368154
31
0
0
ARC
5
158
100
AcDbEntity
8
0
100
AcDbCircle
10
99.190194769655051
20
-79.52082850000005
30
0
40
0.49999941350601512
210
0
220
-0
230
1
100
AcDbArc
50
25.799962525807366
51
111.59455528244415
0
LINE
5
159
100
AcDbEntity
8
0
100
AcDbLine
10
99.640353769655377
20
-79.30321349999987
30
0
11
101.06392105915481
21
-82.248003806909821
31
0
0
ARC
5
160
100
AcDbEntity
8
0
100
AcDbCircle
10
100.61376176965507
20
-82.465619500000003
30
0
40
0.49999997580201799
210
0
220
0
230
1
100
AcDbArc
50
-59.994573174086135
51
25.800019592768557
0
LINE
5
161
100
AcDbEntity
8
0
100
AcDbLine
10
100.86380276965511
20
-82.898608499999995
30
0
11
97.065796078617609
21
-85.09186661410952
31
0
0
ARC
5
162
100
AcDbEntity
8
0
100
AcDbCircle
10
96.815754769655115
20
-84.658877499999932
30
0
40
0.50000022912504372
210
0
220
0
230
1
100
AcDbArc
50
223.09183286568589
51
300.00545094634248
0
ARC
5
163
100
AcDbEntity
8
0
100
AcDbCircle
10
93.858200769655085
20
-87.425712499999989
30
0
40
3.5499999659543309
210
0
220
-0
230
1
100
AcDbArc
50
43.091780588067543
51
195.98833301108655
0
ARC
5
164
100
AcDbEntity
8
0
100
AcDbCircle
10
89.964863769655082
20
-88.54125049999999
30
0
40
0.49999935767299603
210
0
220
0
230
1
100
AcDbArc
50
-72.982514737890369
51
15.988278531216315
0
ARC
5
165
100
AcDbEntity
8
0
100
AcDbCircle
10
89.233200769655042
20
-86.150712499999997
30
0
40
3.0000001329830068
210
0
220
0
230
1
100
AcDbArc
50
226.76675452296072
51
287.01756543343333
0
ARC
5
166
100
AcDbEntity
8
0
100
AcDbCircle
10
86.835806769655079
20
-88.700712500000009
30
0
40
0.49999958005145861
210
0
220
-0
230
1
100
AcDbArc
50
46.766864175098547
51
90.000000000162842
0
LINE
5
167
100
AcDbEntity
8
0
100
AcDbLine
10
86.835806769653658
20
-88.200712919948515
30
0
11
86.776982918709095
21
-88.200712758169004
31
0
0
ARC
5
168
100
AcDbEntity
8
0
100
AcDbCircle
10
86.776982769655135
20
-87.70071249999981
30
0
40
0.50000025816917559
210
0
220
0
230
1
100
AcDbArc
50
240.00001708031218
51
270.00001708031687
0
LINE
5
169
100
AcDbEntity
8
0
100
AcDbLine
10
86.526982769655035
20
-88.13372550000004
30
0
11
86.499225769655098
21
-88.117699500000001
31
0
0
ARC
5
170
100
AcDbEntity
8
0
100
AcDbCircle
10
86.249225769655041
20
-88.550712500000003
30
0
40
0.50000025816895788
210
0
220
-0
230
1
100
AcDbArc
50
60.000017080303358
51
90
0
LINE
5
171
100
AcDbEntity
8
0
100
AcDbLine
10
86.249225769655041
20
-88.050712241831064
30
0
11
85.63320076965509
21
-88.050712500000031
31
0
0
ARC
5
172
100
AcDbEntity
8
0
100
AcDbCircle
10
85.63320076965509
20
-87.050712500000031
30
0
40
0.99999999999999645
210
0
220
0
230
1
100
AcDbArc
50
180
51
270
0
LINE
5
173
100
AcDbEntity
8
0
100
AcDbLine
10
84.63320076965509
20
-87.050712500000031
30
0
11
84.63320092632307
21
-86.8507135501021
31
0
0
ARC
5
174
100
AcDbEntity
8
0
100
AcDbCircle
10
85.133200769655048
20
-86.776116500000029
30
0
40
0.50553393873797348
210
0
220
0
230
1
100
AcDbArc
50
-8.4854839783144058
51
188.48560431117139
0
LINE
5
175
100
AcDbEntity
8
0
100
AcDbLine
10
171.16052075811965
20
-88.200709744491959
30
0
11
171.10169690717504
21
-88.200709910473108
31
0
0
ARC
5
176
100
AcDbEntity
8
0
100
AcDbCircle
10
171.10169694288766
20
-88.70070949052463
30
0
40
0.49999958005152345
210
0
220
0
230
1
100
AcDbArc
50
90.000004092367888
51
133.23313991743376
0
ARC
5
177
100
AcDbEntity
8
0
100
AcDbCircle
10
168.70430276074609
20
-86.150709661765887
30
0
40
3.0000001329829917
210
0
220
0
230
1
100
AcDbArc
50
252.98243865909566
51
313.23324956956623
0
ARC
5
178
100
AcDbEntity
8
0
100
AcDbCircle
10
167.97263993149753
20
-88.541247714027236
30
0
40
0.49999935767287507
210
0
220
0
230
1
100
AcDbArc
50
164.01172556134631
51
252.98251883039282
0
ARC
5
179
100
AcDbEntity
8
0
100
AcDbCircle
10
164.07930285181686
20
-87.425709992120773
30
0
40
3.5500003985017194
210
-0
220
0
230
1
100
AcDbArc
50
-15.988328918558418
51
136.90822350445961
0
ARC
5
180
100
AcDbEntity
8
0
100
AcDbCircle
10
161.12174865418717
20
-84.658875203373157
30
0
40
0.50000022911399133
210
0
220
0
230
1
100
AcDbArc
50
239.99455314618211
51
316.90817122684342
0
LINE
5
181
100
AcDbEntity
8
0
100
AcDbLine
10
160.87170737615776
20
-85.091864335333142
30
0
11
157.07370052844325
21
-82.898606492536942
31
0
0
ARC
5
182
100
AcDbEntity
8
0
100
AcDbCircle
10
157.32374149752695
20
-82.465617474657492
30
0
40
0.4999999758245105
210
0
220
0
230
1
100
AcDbArc
50
154.19998449975677
51
239.99457726661689
0
LINE
5
183
100
AcDbEntity
8
0
100
AcDbLine
10
156.87358219246312
20
-82.248001813711525
30
0
11
158.29714927157602
21
-79.303211405096789
31
0
0
ARC
5
184
100
AcDbEntity
8
0
100
AcDbCircle
10
158.74730828718617
20
-79.520826372974881
30
0
40
0.4999994135793222
210
0
220
-0
230
1
100
AcDbArc
50
68.405448810078937
51
154.20004156672056
0
LINE
5
185
100
AcDbEntity
8
0
100
AcDbLine
10
158.93132613615089
20
-79.055921173130798
30
0
11
169.808412561502
21
-83.36127558290174
31
0
0
ARC
5
186
100
AcDbEntity
8
0
100
AcDbCircle
10
168.70430276074609
20
-86.150709661765887
30
0
40
3.0000001554089994
210
0
220
0
230
1
100
AcDbArc
50
-13.470041797360288
51
68.405420981534036
0
ARC
5
187
100
AcDbEntity
8
0
100
AcDbCircle
10
171.61678783487656
20
-87.188543453732649
30
0
40
0.33905973604996786
210
0
220
-0
230
1
100
AcDbArc
50
27.108329060073221
51
89.156632447134584
0
ARC
5
188
100
AcDbEntity
8
0
100
AcDbCircle
10
172.10962682117065
20
-86.996659418530129
30
0
40
0.19464964814375213
210
0
220
0
230
1
100
AcDbArc
50
191.0726715131745
51
359.98970174344112
0
LINE
5
189
100
AcDbEntity
8
0
100
AcDbLine
10
172.30427682117318
20
-86.996694404626567
30
0
11
172.30430281074575
21
-86.85070940462478
31
0
0
ARC
5
190
100
AcDbEntity
8
0
100
AcDbCircle
10
172.80430280541742
20
-86.776113368910785
30
0
40
0.50553393873801733
210
0
220
0
230
1
100
AcDbArc
50
-8.4856002186465318
51
188.48548807084182
0
LINE
5
191
100
AcDbEntity
8
0
100
AcDbLine
10
173.30430265407779
20
-86.850710383298861
30
0
11
173.3043028250313
21
-87.050709334732176
31
0
0
ARC
5
192
100
AcDbEntity
8
0
100
AcDbCircle
10
172.30430282503136
20
-87.05070940462484
30
0
40
0.99999999999996336
210
0
220
0
230
1
100
AcDbArc
50
-89.999995907474343
51
4.0045533657003902e-06
0
LINE
5
193
100
AcDbEntity
8
0
100
AcDbLine
10
172.3043028964594
20
-88.050709404624797
30
0
11
171.6882778964594
21
-88.050709190457312
31
0
0
ARC
5
194
100
AcDbEntity
8
0
100
AcDbCircle
10
171.68827793217346
20
-88.550709448626293
30
0
40
0.50000025816897897
210
0
220
0
230
1
100
AcDbArc
50
90.000004092528428
51
119.99998701221567
0
LINE
5
195
100
AcDbEntity
8
0
100
AcDbLine
10
171.43827790124416
20
-88.117696466483238
30
0
11
171.41052090238887
21
-88.133722468465976
31
0
0
ARC
5
196
100
AcDbEntity
8
0
100
AcDbCircle
10
171.1605208714596
20
-87.700709486322921
30
0
40
0.50000025816906168
210
0
220
0
230
1
100
AcDbArc
50
269.99998701220505
51
299.99998701221284
0
CIRCLE
5
197
100
AcDbEntity
8
0
100
AcDbCircle
10
164.07930285181686
20
-87.425709992120773
30
0
40
2.7999999999999936
210
0
220
-0
230
1
0
LINE
5
198
100
AcDbEntity
8
0
100
AcDbLine
10
154.19281616611443
20
-88.050710698293543
30
0
11
153.57679131517438
21
-88.050710484126071
31
0
0
ARC
5
199
100
AcDbEntity
8
0
100
AcDbCircle
10
153.57679120182846
20
-88.550710742294996
30
0
40
0.50000025816893734
210
0
220
-0
230
1
100
AcDbArc
50
89.9999870115211
51
119.9999870122242
0
LINE
5
200
100
AcDbEntity
8
0
100
AcDbLine
10
153.32679117089913
20
-88.117697760152041
30
0
11
153.29903417204392
21
-88.133723762134707
31
0
0
ARC
5
201
100
AcDbEntity
8
0
100
AcDbCircle
10
153.0490341411145
20
-87.700710779991354
30
0
40
0.50000025816931648
210
0
220
0
230
1
100
AcDbArc
50
270.00000409237208
51
299.99998701220983
0
LINE
5
202
100
AcDbEntity
8
0
100
AcDbLine
10
153.04903417682721
20
-88.200711038160676
30
0
11
152.99021104063863
21
-88.200711204142095
31
0
0
ARC
5
203
100
AcDbEntity
8
0
100
AcDbCircle
10
152.99021021254265
20
-88.700710784193404
30
0
40
0.49999958005199474
210
0
220
-0
230
1
100
AcDbArc
50
89.999905107111204
51
133.23313991742501
0
ARC
5
204
100
AcDbEntity
8
0
100
AcDbCircle
10
150.59281603040114
20
-86.150710955434633
30
0
40
3.0000001329829997
210
0
220
0
230
1
100
AcDbArc
50
252.98243022857028
51
313.23324956956651
0
ARC
5
205
100
AcDbEntity
8
0
100
AcDbCircle
10
149.8611532011526
20
-88.541249007695882
30
0
40
0.49999935767301507
210
0
220
0
230
1
100
AcDbArc
50
164.01156351046367
51
252.98246824719754
0
ARC
5
206
100
AcDbEntity
8
0
100
AcDbCircle
10
145.96781612147191
20
-87.425711285789461
30
0
40
3.5500003985025357
210
-0
220
0
230
1
100
AcDbArc
50
-15.988306094521548
51
136.90822350446012
0
ARC
5
207
100
AcDbEntity
8
0
100
AcDbCircle
10
143.01026192384217
20
-84.658876497041859
30
0
40
0.50000022912503017
210
0
220
0
230
1
100
AcDbArc
50
239.99457726660543
51
316.90817122684552
0
LINE
5
208
100
AcDbEntity
8
0
100
AcDbLine
10
142.76022082808737
20
-85.091865734273938
30
0
11
138.96221379810956
21
-82.898607786186176
31
0
0
ARC
5
209
100
AcDbEntity
8
0
100
AcDbCircle
10
139.21225476718203
20
-82.465618768326209
30
0
40
0.49999997580204908
210
0
220
0
230
1
100
AcDbArc
50
154.19993839771618
51
239.99457726661447
0
LINE
5
210
100
AcDbEntity
8
0
100
AcDbLine
10
138.76209563723916
20
-82.248002745177317
30
0
11
140.18566254129712
21
-79.303212698797395
31
0
0
ARC
5
211
100
AcDbEntity
8
0
100
AcDbCircle
10
140.63582155684119
20
-79.520827666643612
30
0
40
0.49999941350599364
210
0
220
-0
230
1
100
AcDbArc
50
68.405321833210806
51
154.20004156671337
0
LINE
5
212
100
AcDbEntity
8
0
100
AcDbLine
10
140.81984043608483
20
-79.055922874682665
30
0
11
151.69692583115707
21
-83.361276876570528
31
0
0
ARC
5
213
100
AcDbEntity
8
0
100
AcDbCircle
10
150.59281603040114
20
-86.150710955434633
30
0
40
3.0000001554089764
210
0
220
0
230
1
100
AcDbArc
50
-13.470041448805691
51
68.405420981533226
0
ARC
5
214
100
AcDbEntity
8
0
100
AcDbCircle
10
153.50530110453155
20
-87.188544747401409
30
0
40
0.33905973604998357
210
0
220
-0
230
1
100
AcDbArc
50
27.108469758173726
51
89.156631772970329
0
ARC
5
215
100
AcDbEntity
8
0
100
AcDbCircle
10
153.99814009082561
20
-86.99666071219886
30
0
40
0.1946498781429333
210
0
220
0
230
1
100
AcDbArc
50
191.07243596800765
51
359.98970174340582
0
LINE
5
216
100
AcDbEntity
8
0
100
AcDbLine
10
154.19279009082811
20
-86.996695698295383
30
0
11
154.19281608040069
21
-86.850710698293511
31
0
0
ARC
5
217
100
AcDbEntity
8
0
100
AcDbCircle
10
154.69281607507244
20
-86.776114662579459
30
0
40
0.50553393873803887
210
0
220
0
230
1
100
AcDbArc
50
-8.4854798857923583
51
188.4854880708468
0
LINE
5
218
100
AcDbEntity
8
0
100
AcDbLine
10
155.19281608040069
20
-86.850710626865435
30
0
11
155.19281609468635
21
-87.050710626865481
31
0
0
ARC
5
219
100
AcDbEntity
8
0
100
AcDbCircle
10
154.19281609468629
20
-87.050710698293528
30
0
40
1.0000000000000167
210
0
220
0
230
1
100
AcDbArc
50
-89.999995907469454
51
4.0045533657003902e-06
0
LWPOLYLINE
5
220
100
AcDbEntity
8
0
100
AcDbPolyline
90
12
70
1
43
0.0
10
233.10000150000008
20
-21.575142499999966
10
232.61386650000006
20
-21.575143499999996
10
232.6000015000001
20
-21.575046499999971
10
220.60000150000008
20
-21.575046499999971
10
220.58613550000004
20
-21.575143499999996
10
220.10000150000008
20
-21.575143499999967
42
0.41421356237307161
10
219.60000150000013
20
-22.075143499999974
10
219.60000150000013
20
-35.075142499999991
42
0.41421356237309764
10
220.1000015000001
20
-35.575142499999963
10
233.10000150000008
20
-35.575143499999989
42
0.41421356237312362
10
233.60000250000013
20
-35.075142499999991
10
233.60000150000005
20
-22.075142499999938
42
0.4142135623730378
0
LWPOLYLINE
5
221
100
AcDbEntity
8
0
100
AcDbPolyline
90
24
70
1
43
0.0
10
256.26200250000011
20
-18.025142499999966
10
256.2620015
20
-16.525142499999962
10
273.13800150000009
20
-16.525142499999962
10
273.13800149999997
20
-18.02514349999996
42
0.41421356237312101
10
273.63800250000003
20
-18.52514249999998
10
279.63800150000009
20
-18.525143499999956
42
0.41421356237313017
10
280.1380025000002
20
-18.025142499999962
10
280.13800150000009
20
-16.525142499999959
10
280.72500150000008
20
-16.525143499999942
42
0.41421356237319906
10
281.22500250000019
20
-16.025142499999959
10
281.22500150000008
20
-3.0251434999999658
42
0.41421356237302837
10
280.72500250000007
20
-2.5251424999999648
10
280.23886650000009
20
-2.5251424999999736
10
280.22500150000008
20
-2.525046499999962
10
249.17500150000009
20
-2.525046499999966
10
249.16113550000006
20
-2.5251424999999776
10
248.67500150000015
20
-2.5251424999999599
42
0.41421356237313373
10
248.17500050000007
20
-3.0251434999999693
10
248.17500150000015
20
-16.025143499999967
42
0.4142135623729884
10
248.67500050000004
20
-16.525142499999962
10
249.26200150000005
20
-16.525143499999967
10
249.26200150000005
20
-18.02514349999996
42
0.41421356237294804
10
249.76200050000003
20
-18.525142499999966
10
255.76200150000005
20
-18.525143499999995
42
0.4142135623730846
0
LWPOLYLINE
5
222
100
AcDbEntity
8
0
100
AcDbPolyline
90
12
70
1
43
0.0
10
242.62500250000011
20
-2.5251424999999781
10
242.13886650000006
20
-2.5251424999999781
10
242.12500150000005
20
-2.5250464999999664
10
230.12500150000008
20
-2.5250464999999682
10
230.11113550000005
20
-2.5251424999999799
10
229.62500150000008
20
-2.5251424999999887
42
0.41421356237317403
10
229.12500050000006
20
-3.0251435000000071
10
229.12500150000005
20
-16.025143499999977
42
0.41421356237294676
10
229.62500050000003
20
-16.525142499999973
10
242.62500150000005
20
-16.525143499999967
42
0.41421356237316526
10
243.12500250000014
20
-16.025142499999966
10
243.1250015
20
-3.0251434999888858
42
0.41421356236667378
0
LWPOLYLINE
5
223
100
AcDbEntity
8
0
100
AcDbPolyline
90
12
70
1
43
0.0
10
287.26113550000008
20
-21.575143499999989
10
286.77500150000009
20
-21.575143499999989
42
0.41421356237297796
10
286.27500150000003
20
-22.075143499999967
10
286.27500150000003
20
-35.075142499999984
42
0.41421356237319906
10
286.77500050000003
20
-35.575143499999982
10
299.77500150000009
20
-35.575143499999967
42
0.41421356237309764
10
300.27500250000014
20
-35.075142499999984
10
300.27500150000009
20
-22.075142499999949
42
0.41421356237318607
10
299.77500150000003
20
-21.575142499999956
10
299.2888665000001
20
-21.575143499999989
10
299.27500150000009
20
-21.575046499999964
10
287.27500150000003
20
-21.575046499999964
0
LWPOLYLINE
5
224
100
AcDbEntity
8
0
100
AcDbPolyline
90
12
70
1
43
0.0
10
252.65000250000008
20
-35.075142499999984
10
252.65000150000006
20
-22.075142499999952
42
0.41421356237310281
10
252.15000150000009
20
-21.575142499999945
10
251.66386650000007
20
-21.575143499999992
10
251.65000150000003
20
-21.575046499999967
10
239.65000150000009
20
-21.575046499999967
10
239.63613550000005
20
-21.575143499999992
10
239.15000150000003
20
-21.575143499999999
42
0.41421356237317308
10
238.65000150000009
20
-22.075143499999946
10
238.6500015
20
-35.075142499999934
42
0.41421356237307683
10
239.15000150000003
20
-35.575142499999941
10
252.15000150000009
20
-35.575143499999967
42
0.41421356237312884
0
LWPOLYLINE
5
225
100
AcDbEntity
8
0
100
AcDbPolyline
90
12
70
1
43
0.0
10
299.77500150000003
20
-40.625142499999981
10
299.2888665000001
20
-40.625142499999981
10
299.27500150000009
20
-40.625046499999975
10
287.27500150000003
20
-40.625046499999975
10
287.26113550000008
20
-40.625142499999981
10
286.77500150000009
20
-40.625142499999981
42
0.41421356237313145
10
286.27500050000009
20
-41.125143499999965
10
286.27500150000009
20
-54.125143499999965
42
0.41421356237310542
10
286.77500150000009
20
-54.625143499999993
10
299.77500150000003
20
-54.625143499999993
42
0.41421356237313145
10
300.27500250000003
20
-54.12514250000001
10
300.27500150000009
20
-41.125142500000024
42
0.4142135623731783
0
LWPOLYLINE
5
226
100
AcDbEntity
8
0
100
AcDbPolyline
90
12
70
1
43
0.0
10
286.77500150000009
20
-16.525143499999984
42
-0.41421356237308204
10
286.27500150000009
20
-16.025143499999963
10
286.27500050000009
20
-3.0251434999999649
42
-0.4142135623730846
10
286.77500150000009
20
-2.5251424999999816
10
287.26113550000008
20
-2.5251424999999728
10
287.27500150000003
20
-2.5250464999999611
10
299.27500150000009
20
-2.5250464999999602
10
299.2888665000001
20
-2.5251424999999719
10
299.77500250000003
20
-2.5251425000000127
42
-0.41421356237315909
10
300.27500150000009
20
-3.0251434999999627
10
300.27500250000003
20
-16.025142499999959
42
-0.41421356237311452
10
299.77500150000003
20
-16.52514349999996
0
LWPOLYLINE
5
227
100
AcDbEntity
8
0
100
AcDbPolyline
90
12
70
1
43
0.0
10
224.8625005000001
20
-54.625142499999988
10
237.86250150000015
20
-54.625143499999986
42
0.41421356236781415
10
238.36250150000012
20
-54.1251415000091
10
238.36250150000012
20
-41.125142499999974
42
0.41421356237311063
10
237.86250150000015
20
-40.625142499999988
10
237.37636650000013
20
-40.625142499999988
10
237.36250150000004
20
-40.625046499999982
10
225.36250150000015
20
-40.625046499999982
10
225.34863550000006
20
-40.625142499999988
10
224.86250150000006
20
-40.625142499999988
42
0.41421356237304818
10
224.36250050000007
20
-41.125143499999972
10
224.36250150000004
20
-54.125143499999993
42
0.41421356237313145
0
LWPOLYLINE
5
228
100
AcDbEntity
8
0
100
AcDbPolyline
90
12
70
1
43
0.0
10
29.100002500000034
20
-22.075142499999977
10
29.100001500000058
20
-35.075142500000013
42
0.41421356237310281
10
29.600001500000065
20
-35.57514250000002
10
42.600001500000062
20
-35.575143499999996
42
0.41421356237309764
10
43.100001500000076
20
-35.075141500000015
10
43.10000050000005
20
-22.075142499999977
42
0.41421356237308982
10
42.600000500000057
20
-21.575142499999981
10
42.113866500000086
20
-21.575143500000017
10
42.100001500000062
20
-21.575046499999996
10
30.100001500000037
20
-21.575046499999996
10
30.086135500000037
20
-21.575143500000017
10
29.600001500000054
20
-21.575143500000046
42
0.41421356237307683
0
LWPOLYLINE
5
229
100
AcDbEntity
8
0
100
AcDbPolyline
90
12
70
1
43
0.0
10
76.725001500000047
20
-3.0251424999999887
10
76.725001500000047
20
-16.025143499999992
42
0.41421356237310025
10
77.225001500000047
20
-16.525143499999988
10
90.225001500000019
20
-16.525143499999995
42
0.41421356237308721
10
90.725001500000076
20
-16.025143499999988
10
90.72500150000009
20
-3.0251434999999893
42
0.41421356237313017
10
90.225001499999991
20
-2.5251435000000089
10
89.738866500000086
20
-2.5251424999999972
10
89.72500150000009
20
-2.5250464999999855
10
77.725001500000062
20
-2.5250464999999869
10
77.711135500000069
20
-2.5251424999999985
10
77.225001500000047
20
-2.5251424999999901
42
0.41421356237307294
0
LWPOLYLINE
5
230
100
AcDbEntity
8
0
100
AcDbPolyline
90
12
70
1
43
0.0
10
81.20000150000007
20
-35.075143500000003
42
-0.41421356237312101
10
80.70000150000007
20
-35.57514350000001
10
67.700001500000084
20
-35.575142500000013
42
-0.41421356237310802
10
67.20000150000007
20
-35.075142500000005
10
67.200002500000068
20
-22.075142499999973
42
-0.41421356237309503
10
67.70000150000007
20
-21.575143499999967
10
68.186135500000063
20
-21.575143500000014
10
68.200001500000056
20
-21.575046499999992
10
80.200001500000042
20
-21.575046499999992
10
80.21386650000008
20
-21.575143500000014
10
80.700000500000044
20
-21.575143500000035
42
-0.41421356237310802
10
81.200001500000084
20
-22.075142499999963
0
LWPOLYLINE
5
231
100
AcDbEntity
8
0
100
AcDbPolyline
90
12
70
1
43
0.0
10
86.250001500000053
20
-22.075141499999972
10
86.250001500000053
20
-35.075142500000005
42
0.41421356237312362
10
86.750000500000056
20
-35.57514350000001
10
99.750001500000053
20
-35.575143500000003
42
0.41421356237309243
10
100.25000250000005
20
-35.075142500000005
10
100.25000150000008
20
-22.07514249999997
42
0.41421356237311846
10
99.750000500000056
20
-21.57514350000001
10
99.263866500000049
20
-21.57514350000001
10
99.250001500000053
20
-21.575046499999985
10
87.250001500000067
20
-21.575046499999992
10
87.236135500000074
20
-21.575143500000014
10
86.750001500000039
20
-21.575143499999967
42
0.41421356237313667
0
LWPOLYLINE
5
232
100
AcDbEntity
8
0
100
AcDbPolyline
90
12
70
1
43
0.0
10
70.675001500000079
20
-2.5250464999999878
10
58.67500150000005
20
-2.5250464999999895
10
58.661135500000086
20
-2.5251425000000012
10
58.175001500000064
20
-2.5251425000000101
42
0.41421356237307616
10
57.675001500000036
20
-3.025142499999991
10
57.67500150000005
20
-16.025143499999992
42
0.41421356237311452
10
58.175001500000079
20
-16.525143499999999
10
71.17500150000005
20
-16.525143499999988
42
0.4142135623730937
10
71.675002500000033
20
-16.025142499999987
10
71.67500150000005
20
-3.0251434999999915
42
0.41421356237310869
10
71.17500150000005
20
-2.5251435000000111
10
70.688866500000032
20
-2.5251435000000111
0
LWPOLYLINE
5
233
100
AcDbEntity
8
0
100
AcDbPolyline
90
12
70
1
43
0.0
10
85.462499500000035
20
-40.625142500000003
10
84.97636650000004
20
-40.625142500000003
10
84.962501500000016
20
-40.625046500000003
10
72.962501500000073
20
-40.625046500000003
10
72.948635500000066
20
-40.625142500000003
10
72.462501500000059
20
-40.625142500000003
42
0.4142135623730534
10
71.962501500000059
20
-41.125142499999995
10
71.962501500000059
20
-54.125143500000014
42
0.414213562373069
10
72.462501500000059
20
-54.625143500000021
10
85.462501500000045
20
-54.625143500000028
42
0.41421356237305862
10
85.96250150000003
20
-54.125143500000014
10
85.962501500000059
20
-41.125142499999967
42
0.41421356237312623
0
LWPOLYLINE
5
234
100
AcDbEntity
8
0
100
AcDbPolyline
90
12
70
1
43
0.0
10
52.625001500000046
20
-16.025143499999992
42
-0.41421356237310414
10
52.125001500000046
20
-16.525143499999992
10
39.125001500000067
20
-16.525143499999995
42
-0.41421356237310675
10
38.625001500000053
20
-16.025143499999995
10
38.625000500000056
20
-3.0251435000000049
42
-0.41421356237309992
10
39.125001500000053
20
-2.5251425000000034
10
39.611135500000074
20
-2.5251425000000034
10
39.625001500000039
20
-2.5250464999999918
10
51.625001500000067
20
-2.52504649999999
10
51.638866500000056
20
-2.5251435000000133
10
52.125002500000051
20
-2.5251425000000145
42
-0.41421356237311358
10
52.625001500000067
20
-3.0251434999999938
0
LWPOLYLINE
5
235
100
AcDbEntity
8
0
100
AcDbPolyline
90
12
70
1
43
0.0
10
81.987501500000064
20
-73.675143500000019
42
-0.41421356237307422
10
81.487500500000053
20
-73.175142500000007
10
81.487500500000039
20
-60.175142500000007
42
-0.41421356237309503
10
81.987501500000036
20
-59.675143500000026
10
82.473635500000057
20
-59.675143500000047
10
82.487500500000053
20
-59.675046499999993
10
94.487501500000064
20
-59.675046499999993
10
94.501366500000046
20
-59.675143500000047
10
94.987502500000033
20
-59.675142499999971
42
-0.41421356237316265
10
95.487501500000036
20
-60.175143500000033
10
95.487501500000064
20
-73.175142499999993
42
-0.41421356237314705
10
94.987501500000064
20
-73.675142500000021
0
LWPOLYLINE
5
236
100
AcDbEntity
8
0
100
AcDbPolyline
90
12
70
1
43
0.0
10
43.887501500000077
20
-73.675142500000021
10
56.887501500000049
20
-73.675142500000021
42
0.41421356237312101
10
57.387501500000091
20
-73.175142499999993
10
57.387501500000077
20
-60.175143500000033
42
0.41421356237309503
10
56.88750250000006
20
-59.6751425
10
56.401366500000066
20
-59.675143500000047
10
56.387501500000077
20
-59.675046499999993
10
44.387501500000049
20
-59.675046499999993
10
44.373635500000049
20
-59.675143500000047
10
43.887501500000063
20
-59.675143500000026
42
0.41421356237311063
10
43.38750150000007
20
-60.175143500000033
10
43.387501500000084
20
-73.175142500000021
42
0.41421356237310025
0
LWPOLYLINE
5
237
100
AcDbEntity
8
0
100
AcDbPolyline
90
12
70
1
43
0.0
10
66.912501500000062
20
-54.125143499999993
42
-0.41421356237311585
10
66.412501500000076
20
-54.625143500000021
10
53.412501500000047
20
-54.625143500000028
42
-0.41421356237304302
10
52.912501500000047
20
-54.125143499999993
10
52.912501500000076
20
-41.125142499999995
42
-0.41421356237311063
10
53.412501500000062
20
-40.625142500000024
10
53.898635500000054
20
-40.625142500000003
10
53.912501500000054
20
-40.625046500000003
10
65.91250150000009
20
-40.625046500000003
10
65.926366500000043
20
-40.625142500000003
10
66.412501500000062
20
-40.625142499999995
42
-0.4142135623730846
10
66.912501500000076
20
-41.125142499999995
0
LWPOLYLINE
5
238
100
AcDbEntity
8
0
100
AcDbPolyline
90
12
70
1
43
0.0
10
61.65000150000008
20
-21.575142499999998
42
-0.41421356237309764
10
62.150001500000073
20
-22.075142499999973
10
62.150002500000063
20
-35.075142500000005
42
-0.41421356237307161
10
61.650001500000073
20
-35.575143499999982
10
48.650001500000037
20
-35.575142500000041
42
-0.41421356237308204
10
48.150001500000037
20
-35.075142500000013
10
48.150002500000035
20
-22.075142499999977
42
-0.41421356237312101
10
48.650001500000045
20
-21.575143499999974
10
49.136135500000044
20
-21.575143500000017
10
49.150001500000045
20
-21.575046499999996
10
61.150001500000073
20
-21.575046499999992
10
61.163866500000061
20
-21.575143500000014
0
LWPOLYLINE
5
239
100
AcDbEntity
8
0
100
AcDbPolyline
90
12
70
1
43
0.0
10
63.423635500000096
20
-59.675143500000047
10
62.937501500000089
20
-59.675143500000047
42
0.41421356237305862
10
62.437501500000046
20
-60.175141499999995
10
62.437501500000067
20
-73.175142499999993
42
0.4142135623730534
10
62.937501500000089
20
-73.675142500000007
10
75.937501500000067
20
-73.675142500000021
42
0.41421356237314183
10
76.437501500000067
20
-73.175142499999993
10
76.437501500000053
20
-60.175143500000033
42
0.41421356237309503
10
75.937501500000067
20
-59.675143500000011
10
75.451366500000049
20
-59.675143500000047
10
75.437501500000053
20
-59.675046499999993
10
63.43750150000006
20
-59.675046499999993
0
LWPOLYLINE
5
240
100
AcDbEntity
8
0
100
AcDbPolyline
90
12
70
1
43
0.0
10
228.33750250000008
20
-59.675142500000014
10
227.85136650000013
20
-59.675143500000026
10
227.83750150000003
20
-59.675046499999979
10
215.83750150000009
20
-59.675046499999979
10
215.82363550000002
20
-59.675143500000026
10
215.3375015
20
-59.675143499999976
42
0.41421356237314705
10
214.83750150000014
20
-60.175143500000019
10
214.83750150000006
20
-73.175142499999978
42
0.41421356237306384
10
215.33749950000009
20
-73.675142500000007
10
228.33750150000012
20
-73.675142500000007
42
0.41421356237298579
10
228.83750150000003
20
-73.175142499999978
10
228.83750150000009
20
-60.175143500000019
42
0.41421356237308982
0
LWPOLYLINE
5
241
100
AcDbEntity
8
0
100
AcDbPolyline
90
12
70
1
43
0.0
10
133.58750150000006
20
-73.175142500000021
42
-0.41421356237307944
10
133.08750150000009
20
-73.675142500000007
10
120.08750150000009
20
-73.675142500000007
42
-0.414213562373069
10
119.58750150000007
20
-73.175142500000021
10
119.58750050000005
20
-60.175142499999993
42
-0.41421356237310542
10
120.08750150000004
20
-59.675143500000033
10
120.57363550000005
20
-59.675143500000033
10
120.58750050000008
20
-59.675046499999986
10
132.58750150000003
20
-59.675046499999986
10
132.60136650000007
20
-59.675143500000033
10
133.08750050000009
20
-59.6751425
42
-0.41421356237310025
10
133.58750150000003
20
-60.175143500000004
0
LWPOLYLINE
5
242
100
AcDbEntity
8
0
100
AcDbPolyline
90
12
70
1
43
0.0
10
114.03750050000006
20
-59.675142500000021
10
113.55136650000006
20
-59.675143500000033
10
113.53750150000003
20
-59.675046499999986
10
101.53750050000006
20
-59.675046499999993
10
101.52363550000004
20
-59.675143500000047
10
101.03750150000005
20
-59.675143500000011
42
0.41421356237303258
10
100.53750050000005
20
-60.175142500000007
10
100.53750150000006
20
-73.175142499999993
42
0.41421356237313667
10
101.03750150000005
20
-73.675142500000021
10
114.03750150000008
20
-73.675142500000007
42
0.41421356237310542
10
114.53750150000006
20
-73.175142500000021
10
114.5375015000001
20
-60.175143500000004
42
0.41421356237306384
0
LWPOLYLINE
5
243
100
AcDbEntity
8
0
100
AcDbPolyline
90
12
70
1
43
0.0
10
209.2875025000001
20
-59.675142499999993
42
-0.41421356236648221
10
209.7875015000001
20
-60.175143499988934
10
209.7875015000001
20
-73.175142499999978
42
-0.41421356237298057
10
209.28750150000025
20
-73.675142500000007
10
196.28749950000008
20
-73.675142499999978
42
-0.41421356237315748
10
195.78750150000013
20
-73.175142499999978
10
195.78750150000013
20
-60.175143500000019
42
-0.41421356237301177
10
196.28750150000005
20
-59.675143500000026
10
196.77363550000001
20
-59.675143500000026
10
196.78750150000008
20
-59.675046499999979
10
208.78750150000016
20
-59.675046499999979
10
208.80136650000003
20
-59.675143500000026
0
LWPOLYLINE
5
244
100
AcDbEntity
8
0
100
AcDbPolyline
90
12
70
1
43
0.0
10
286.77500050000003
20
-73.675143500000004
10
299.77500150000003
20
-73.675142499999978
42
0.41421356237313145
10
300.27500150000009
20
-73.175142500000007
10
300.27500150000009
20
-60.17514349998892
42
0.41421356236665913
10
299.77500250000003
20
-59.675142499999971
10
299.2888665000001
20
-59.675143500000019
10
299.27500150000009
20
-59.675046499999965
10
287.27500150000003
20
-59.675046499999965
10
287.26113550000008
20
-59.675143500000019
10
286.77500150000003
20
-59.675143500000019
42
0.41421356237310025
10
286.27500150000009
20
-60.175143500000004
10
286.27500150000003
20
-73.17514250001102
42
0.4142135623665863
0
LWPOLYLINE
5
245
100
AcDbEntity
8
0
100
AcDbPolyline
90
12
70
1
43
0.0
10
138.63750250000007
20
-60.175142499999993
42
-0.41421356237304818
10
139.13750150000004
20
-59.675143500000033
10
139.62363550000003
20
-59.675143500000033
10
139.63750150000007
20
-59.675046499999986
10
151.63750150000004
20
-59.675046499999986
10
151.65136650000005
20
-59.675143500000033
10
152.13750150000007
20
-59.675143500000033
42
-0.4142135623730846
10
152.6375015000001
20
-60.175143500000004
10
152.63750150000007
20
-73.175142500000021
42
-0.414213562373069
10
152.13750150000007
20
-73.675142500000007
10
139.1375015000001
20
-73.675142500000007
42
-0.414213562373069
10
138.6375015000001
20
-73.175142500000021
0
LWPOLYLINE
5
246
100
AcDbEntity
8
0
100
AcDbPolyline
90
12
70
1
43
0.0
10
254.03125150000008
20
-59.675046499999965
10
242.03125150000005
20
-59.675046499999979
10
242.0173855000001
20
-59.675143500000026
10
241.53125150000008
20
-59.675143500000026
42
0.41421356237310025
10
241.03125150000011
20
-60.175143499999997
10
241.03125150000011
20
-73.175142500013109
42
0.41421356236543644
10
241.53124950000006
20
-73.675142500000035
10
254.53125150000005
20
-73.675142499999978
42
0.41421356236665913
10
255.03125050000008
20
-73.175141500011051
10
255.03125150000005
20
-60.175143500000004
42
0.41421356237310542
10
254.53125150000005
20
-59.675143499999983
10
254.04511650000012
20
-59.675143500000019
0
LWPOLYLINE
5
247
100
AcDbEntity
8
0
100
AcDbPolyline
90
12
70
1
43
0.0
10
189.75136650000002
20
-59.675143500000026
10
189.73750150000015
20
-59.675046499999979
10
177.73750150000006
20
-59.675046499999986
10
177.7236355
20
-59.675143500000033
10
177.23750150000004
20
-59.675143500000033
42
0.41421356237300139
10
176.73750150000012
20
-60.175143500000026
10
176.73750150000006
20
-73.175142499999993
42
0.41421356237301699
10
177.23749950000007
20
-73.675142500000007
10
190.23750150000012
20
-73.675142500000021
42
0.41421356237307944
10
190.73750050000007
20
-73.175141499999981
10
190.73750150000009
20
-60.175143500000019
42
0.41421356237314705
10
190.23750250000006
20
-59.675142499999978
0
LWPOLYLINE
5
248
100
AcDbEntity
8
0
100
AcDbPolyline
90
12
70
1
43
0.0
10
171.97500050000016
20
-3.0251434999999782
10
171.97500150000002
20
-16.025143499999977
42
0.41421356237312495
10
172.47500150000008
20
-16.525143499999974
10
185.47500150000008
20
-16.525143499999974
42
0.41421356237309243
10
185.97500150000008
20
-16.025141499999979
10
185.97500150000013
20
-3.0251434999999778
42
0.41421356237306639
10
185.47500250000013
20
-2.5251424999999768
10
184.98886650000003
20
-2.5251424999999856
10
184.97500150000008
20
-2.525046499999974
10
172.97500150000005
20
-2.5250464999999749
10
172.96113550000007
20
-2.5251424999999865
10
172.47500150000008
20
-2.5251424999999958
42
0.414213562373135
0
LWPOLYLINE
5
249
100
AcDbEntity
8
0
100
AcDbPolyline
90
12
70
1
43
0.0
10
158.67363550000007
20
-59.675143500000033
10
158.18750150000014
20
-59.675143500000004
42
0.41421356237313145
10
157.68750150000008
20
-60.175143500000026
10
157.68750150000002
20
-73.175142499999993
42
0.41421356237310542
10
158.18750150000011
20
-73.675142500000007
10
171.18750150000011
20
-73.675142500000007
42
0.41421356236661233
10
171.68750050000014
20
-73.175141500011037
10
171.68750150000008
20
-60.175143499988963
42
0.41421356236661233
10
171.18750250000005
20
-59.675142499999993
10
170.70136650000001
20
-59.675143500000033
10
170.68750150000005
20
-59.675046499999986
10
158.68750150000005
20
-59.675046499999986
0
LWPOLYLINE
5
250
100
AcDbEntity
8
0
100
AcDbPolyline
90
12
70
1
43
0.0
10
267.72500050000014
20
-73.675143500000004
10
280.72500150000002
20
-73.675142499999978
42
0.41421356237314705
10
281.22500150000008
20
-73.175142499999936
10
281.22500150000013
20
-60.175143500000004
42
0.41421356237312623
10
280.72500249999996
20
-59.675142499999993
10
280.23886650000009
20
-59.675143500000019
10
280.22500150000008
20
-59.675046499999965
10
268.22500150000002
20
-59.675046499999965
10
268.21113550000007
20
-59.675143500000019
10
267.72500150000008
20
-59.675143499999983
42
0.41421356237310542
10
267.22500150000002
20
-60.175143500000004
10
267.22500150000008
20
-73.175142499999964
42
0.4142135623730534
0
LWPOLYLINE
5
251
100
AcDbEntity
8
0
100
AcDbPolyline
90
12
70
1
43
0.0
10
204.52500250000008
20
-2.5251425000000003
42
-0.41421356236659668
10
205.02500150000006
20
-3.0251434999889248
10
205.02500250000003
20
-16.02514250000003
42
-0.41421356237310675
10
204.52500150000003
20
-16.525143499999999
10
191.52500150000003
20
-16.52514349999992
42
-0.41421356237308071
10
191.02500150000003
20
-16.025143499999974
10
191.02500050000006
20
-3.0251434999999671
42
-0.41421356237313567
10
191.52500150000006
20
-2.5251424999999932
10
192.01113550000002
20
-2.5251424999999843
10
192.02500150000006
20
-2.5250464999999727
10
204.02500150000009
20
-2.5250464999999718
10
204.03886650000004
20
-2.5251424999999834
0
LWPOLYLINE
5
252
100
AcDbEntity
8
0
100
AcDbPolyline
90
12
70
1
43
0.0
10
168.19863550000002
20
-40.625142499999995
10
167.71250150000009
20
-40.625142499999995
42
0.41421356237313145
10
167.21250050000009
20
-41.125143499999979
10
167.2125015
20
-54.125143500000007
42
0.41421356237316787
10
167.71250050000006
20
-54.625142499999995
10
180.71250150000012
20
-54.6251435
42
0.4142135623730378
10
181.21250150000009
20
-54.12514149999997
10
181.21250150000012
20
-41.125142499999974
42
0.41421356237298057
10
180.71250150000012
20
-40.625142499999967
10
180.22636650000004
20
-40.625142499999988
10
180.21250150000009
20
-40.625046499999982
10
168.21250150000012
20
-40.625046499999996
0
LWPOLYLINE
5
253
100
AcDbEntity
8
0
100
AcDbPolyline
90
12
70
1
43
0.0
10
142.11250150000006
20
-40.625046499999996
10
130.11250150000006
20
-40.625046499999996
10
130.09863550000006
20
-40.625142499999995
10
129.61250150000009
20
-40.625142499999995
42
0.41421356237316265
10
129.11250150000006
20
-41.125142499999981
10
129.11250150000006
20
-54.125143499999986
42
0.41421356237313145
10
129.61250150000012
20
-54.625143500000007
10
142.61250150000006
20
-54.625143500000007
42
0.41421356237308982
10
143.11250150000009
20
-54.125143499999986
10
143.11250150000009
20
-41.125142499999981
42
0.41421356237308982
10
142.61249950000004
20
-40.625142499999995
10
142.12636650000005
20
-40.625142499999995
0
CIRCLE
5
254
100
AcDbEntity
8
0
100
AcDbCircle
10
93.858200769655085
20
-87.425712499999989
30
0
40
2.7999999999999936
210
0
220
-0
230
1
0
CIRCLE
5
255
100
AcDbEntity
8
0
100
AcDbCircle
10
43.526967500000062
20
-97.349956500000005
30
0
40
1.0999999999999985
210
0
220
-0
230
1
0
CIRCLE
5
256
100
AcDbEntity
8
0
100
AcDbCircle
10
145.96781612147191
20
-87.425711285789461
30
0
40
2.7999999999999936
210
0
220
-0
230
1
0
LWPOLYLINE
5
257
100
AcDbEntity
8
0
100
AcDbPolyline
90
28
70
1
43
0.0
10
10.993251500000063
20
-73.675094999999985
10
12.92435963930895
20
-73.675094999999985
42
0.0034460531121926572
10
12.931251500000061
20
-73.675142500000021
10
25.931251500000059
20
-73.675142500000049
42
0.0034460531129175795
10
25.93814336069293
20
-73.675094999999985
10
27.869251500000061
20
-73.675094999999985
10
27.869251500000061
20
-75.175142500000021
42
0.41421356237310281
10
28.369250500000057
20
-75.675141500000009
10
34.369251500000068
20
-75.675142500000035
42
0.41421356237310802
10
34.869251500000054
20
-75.175142500000007
10
34.869251500000054
20
-73.675094999999985
10
37.837501000000067
20
-73.675094999999985
42
0.41421356237309764
10
38.337501000000067
20
-73.175094999999985
10
38.337501000000067
20
-60.175094999999985
42
0.41421356237308721
10
37.837501000000067
20
-59.675094999999985
10
25.438183499994985
20
-59.675094999999992
10
25.431250500000083
20
-59.675046500000008
10
13.431251500000066
20
-59.675046500000008
10
13.424318500005135
20
-59.675094999999992
10
3.4062510000000623
20
-59.675094999999992
42
0.41421356237309698
10
2.9062510000000636
20
-60.175094999999992
10
2.9062510000000636
20
-73.175094999999985
42
0.41421356237309404
10
3.4062510000000632
20
-73.675094999999985
10
3.9932515000000599
20
-73.675094999999985
10
3.9932515000000599
20
-75.175142500000021
42
0.41421356237310314
10
4.4932505000000678
20
-75.675141500000009
10
10.493251500000056
20
-75.675142500000035
42
0.41421356237310542
10
10.993251500000065
20
-75.175142500000021
0
LWPOLYLINE
5
258
100
AcDbEntity
8
0
100
AcDbPolyline
90
12
70
1
43
0.0
10
18.301366500000075
20
-21.575143500000017
10
18.287500500000039
20
-21.575046499999996
10
6.2875015000000563
20
-21.575046499999999
10
6.2736355000000561
20
-21.575143500000024
10
5.7875015000000491
20
-21.575143499999989
42
0.41421356237309631
10
5.287501500000042
20
-22.07514149999998
10
5.2875015000000598
20
-35.075142500000013
42
0.4142135623730866
10
5.7875015000000518
20
-35.575142500000005
10
18.787501500000051
20
-35.575143499999974
42
0.41421356237310025
10
19.287502500000041
20
-35.075142500000027
10
19.287501500000051
20
-22.075142499999977
42
0.41421356237308721
10
18.787501500000058
20
-21.575142499999981
0
LWPOLYLINE
5
259
100
AcDbEntity
8
0
100
AcDbPolyline
90
12
70
1
43
0.0
10
64.031251500000096
20
-78.725142499999976
10
63.54511650000007
20
-78.725142499999976
10
63.531251500000046
20
-78.725046499999991
10
51.531251500000053
20
-78.725046499999991
10
51.517385500000053
20
-78.725142499999976
10
51.031251500000053
20
-78.725142499999976
42
0.41421356237308982
10
50.531251500000074
20
-79.225142499999976
10
50.53125150000006
20
-92.22514350000003
42
0.41421356237307422
10
51.031251500000046
20
-92.725143500000016
10
64.031251500000067
20
-92.72514350000003
42
0.41421356237312623
10
64.531251500000067
20
-92.225141499999978
10
64.531251500000067
20
-79.225142499999976
42
0.414213562373069
0
CIRCLE
5
260
100
AcDbEntity
8
0
100
AcDbCircle
10
238.21696750000015
20
-97.359956499999953
30
0
40
1.0999999999999943
210
0
220
-0
230
1
0
CIRCLE
5
261
100
AcDbEntity
8
0
100
AcDbCircle
10
293.27696750000001
20
-97.339956499999971
30
0
40
1.0999999999999943
210
0
220
-0
230
1
0
LWPOLYLINE
5
262
100
AcDbEntity
8
0
100
AcDbPolyline
90
12
70
1
43
0.0
10
34.862501500000079
20
-40.625046500000003
10
34.848635500000043
20
-40.625142500000003
10
34.36250150000005
20
-40.625142500000024
42
0.41421356237311846
10
33.862501500000064
20
-41.125142500000003
10
33.862501500000057
20
-54.125143499999993
42
0.4142135623730534
10
34.362501500000072
20
-54.625143500000021
10
47.36250150000005
20
-54.625143500000021
42
0.41421356237310542
10
47.86250150000005
20
-54.125143499999993
10
47.86250150000005
20
-41.125142499999995
42
0.41421356237306384
10
47.362501500000043
20
-40.625142500000003
10
46.87636650000006
20
-40.625142500000003
10
46.862501500000072
20
-40.625046500000003
0
LWPOLYLINE
5
263
100
AcDbEntity
8
0
100
AcDbPolyline
90
12
70
1
43
0.0
10
1.0250015000000468
20
-16.525143499999999
10
14.025000500000042
20
-16.525143499999995
42
0.41421356237309764
10
14.525001500000061
20
-16.025142499999994
10
14.52500150000005
20
-3.0251434999999982
42
0.41421356237310675
10
14.02500050000004
20
-2.5251425000000061
10
13.538866500000033
20
-2.5251425000000065
10
13.525001500000045
20
-2.5250464999999949
10
1.5250015000000521
20
-2.5250464999999962
10
1.5111355000000519
20
-2.5251425000000078
10
1.0250015000000485
20
-2.5251425000000078
42
0.41421356237310009
10
0.52500050000006182
20
-3.0251435000000004
10
0.52500150000004853
20
-16.025143499999999
42
0.4142135623730957
0
LWPOLYLINE
5
264
100
AcDbEntity
8
0
100
AcDbPolyline
90
12
70
1
43
0.0
10
2.0687515000000594
20
-41.125142500000003
10
2.0687515000000611
20
-54.125143500000007
42
0.41421356237307944
10
2.5687515000000682
20
-54.625143500000028
10
21.168751500000056
20
-54.625143500000028
42
0.41421356237311846
10
21.668751500000031
20
-54.125143500000007
10
21.668751500000056
20
-41.125142500000003
42
0.41421356237304563
10
21.168751500000059
20
-40.62514250000001
10
20.682616500000041
20
-40.62514250000001
10
20.668750500000076
20
-40.62504650000001
10
3.9062515000000575
20
-40.62504650000001
10
3.8923855000000573
20
-40.62514250000001
10
2.5687515000000531
20
-40.625142500000024
42
0.4142135623730635
0
LWPOLYLINE
5
265
100
AcDbEntity
8
0
100
AcDbPolyline
90
12
70
1
43
0.0
10
20.075001500000052
20
-16.525143500000002
42
-0.41421356237312756
10
19.575001500000045
20
-16.025143499999995
10
19.575001500000049
20
-3.0251424999999954
42
-0.41421356237310802
10
20.075001500000042
20
-2.5251425000000056
10
20.561135500000063
20
-2.5251425000000056
10
20.575001500000027
20
-2.525046499999994
10
32.575000500000044
20
-2.5250464999999922
10
32.588866500000044
20
-2.5251425000000038
10
33.075001500000063
20
-2.5251435000000044
42
-0.41421356237307555
10
33.575001500000056
20
-3.0251434999999871
10
33.575002500000046
20
-16.025142499999991
42
-0.41421356237308854
10
33.075001500000049
20
-16.525143499999999
0
LWPOLYLINE
5
266
100
AcDbEntity
8
0
100
AcDbPolyline
90
12
70
1
43
0.0
10
16.40625150000006
20
-78.725142499999976
10
15.920116500000043
20
-78.725142499999976
10
15.906250500000043
20
-78.725046499999991
10
3.9062515000000628
20
-78.725046499999991
10
3.8923855000000627
20
-78.725142499999976
10
3.4062515000000566
20
-78.725142499999976
42
0.41421356237309537
10
2.9062515000000482
20
-79.22514249999999
10
2.9062515000000575
20
-92.225143500000001
42
0.4142135623730534
10
3.4062525000000687
20
-92.72514249999999
10
16.40625150000006
20
-92.725143500000016
42
0.4142135623730937
10
16.906251500000071
20
-92.225141499999978
10
16.90625150000006
20
-79.225142499999976
42
0.4142135623730846
0
CIRCLE
5
267
100
AcDbEntity
8
0
100
AcDbCircle
10
293.28696750000006
20
2.1000435000000377
30
0
40
1.0999999999999943
210
0
220
-0
230
1
0
LWPOLYLINE
5
268
100
AcDbEntity
8
0
100
AcDbPolyline
90
48
70
1
43
0.0
10
277.75675171249662
20
-45.100094999999961
10
278.34375100000005
20
-45.100094999999953
42
0.41421356237307422
10
278.84375100000005
20
-44.600094999999953
10
278.84375100000005
20
-31.600094999999957
42
0.41421356237313145
10
278.34375100000005
20
-31.10009499999995
10
276.46250150000009
20
-31.100094999999961
10
276.46250150000009
20
-29.662094999999958
10
277.34375100000011
20
-29.662094999999951
42
0.41421356237304563
10
277.84375100000011
20
-29.162094999999955
10
277.84375100000011
20
-23.162094999999955
42
0.41421356237310281
10
277.34375100000011
20
-22.662094999999955
10
276.46250150000009
20
-22.662094999999955
10
276.46250150000009
20
-22.075142499999949
42
0.41421356237311846
10
275.96250050000009
20
-21.575143499999978
10
275.4763665000001
20
-21.575143499999989
10
275.46250150000003
20
-21.575046499999964
10
263.46250050000009
20
-21.575046499999967
10
263.44863550000008
20
-21.575143499999992
10
262.96250050000009
20
-21.575143500000028
42
0.41421356237308721
10
262.46250050000009
20
-22.075143499999971
10
262.46250050000009
20
-35.075142499999984
42
0.41421356237302998
10
262.96249950000004
20
-35.575143499999989
10
264.84375100000011
20
-35.575143499999996
10
264.84375100000005
20
-40.625046499999975
10
256.31875150000013
20
-40.625046499999975
10
256.31174628125314
20
-40.625094999999959
10
243.91250100000008
20
-40.625094999999966
42
0.4142135623730222
10
243.41250100000008
20
-41.125094999999959
10
243.41250100000008
20
-54.125094999999973
42
0.41421356237312623
10
243.91250100000008
20
-54.625094999999966
10
246.88075150000009
20
-54.625094999999966
10
246.88075150000003
20
-56.125143500000007
42
0.41421356237319906
10
247.38075050000006
20
-56.625142500000003
10
253.38075150000009
20
-56.625143499999986
42
0.41421356237313145
10
253.88075250000009
20
-56.125142500000003
10
253.88075239285382
20
-54.625094999999959
10
255.81178747474291
20
-54.625094999999959
42
0.0034821392917495
10
255.81875150000008
20
-54.625143499999993
10
268.81875150000008
20
-54.625143500000007
42
0.11869693185807074
10
269.04634285763359
20
-54.570342139205614
10
269.04634285763359
20
-55.938049338711494
42
0.53119881636637489
10
269.50944796603488
20
-56.625143500000021
10
277.25675150000018
20
-56.625143499999986
42
0.41421356237310025
10
277.75675250000006
20
-56.125142499999967
10
277.75675229962758
20
-53.319928153667149
42
0.1508329120837747
10
277.84375100000011
20
-53.038094999999963
10
277.84375100000011
20
-47.03809499999997
42
0.1508333374231639
10
277.75675183079426
20
-46.756261159300607
0
ENDSEC
0
SECTION
2
OBJECTS
0
DICTIONARY
5
C
100
AcDbDictionary
3
ACAD_GROUP
350
D
3
ACAD_MLINESTYLE
350
17
0
DICTIONARY
5
D
100
AcDbDictionary
0
DICTIONARY
5
1A
330
C
100
AcDbDictionary
0
DICTIONARY
5
17
100
AcDbDictionary
0
ENDSEC
0
EOF
