0
SECTION
2
HEADER
9
$INSUNITS
70
4
9
$ACADVER
1
AC1014
9
$HANDSEED
5
FFFF
0
ENDSEC
0
SECTION
2
TABLES
0
TABLE
2
VPORT
5
8
100
AcDbSymbolTable
0
ENDTAB
0
TABLE
2
LTYPE
5
5
100
AcDbSymbolTable
0
LTYPE
5
14
100
AcDbSymbolTableRecord
100
AcDbLinetypeTableRecord
2
BYBLOCK
70
0
0
LTYPE
5
15
100
AcDbSymbolTableRecord
100
AcDbLinetypeTableRecord
2
BYLAYER
70
0
0
ENDTAB
0
TABLE
2
LAYER
5
2
100
AcDbSymbolTable
70
2
0
LAYER
5
50
100
AcDbSymbolTableRecord
100
AcDbLayerTableRecord
2
0
70
0
6
CONTINUOUS
0
ENDTAB
0
TABLE
2
STYLE
5
3
100
AcDbSymbolTable
70
1
0
STYLE
5
11
100
AcDbSymbolTableRecord
100
AcDbTextStyleTableRecord
2
STANDARD
70
0
0
ENDTAB
0
TABLE
2
VIEW
5
6
100
AcDbSymbolTable
70
0
0
ENDTAB
0
TABLE
2
UCS
5
7
100
AcDbSymbolTable
70
0
0
ENDTAB
0
TABLE
2
APPID
5
9
100
AcDbSymbolTable
70
2
0
APPID
5
12
100
AcDbSymbolTableRecord
100
AcDbRegAppTableRecord
2
ACAD
70
0
0
ENDTAB
0
TABLE
2
DIMSTYLE
5
A
100
AcDbSymbolTable
70
1
0
ENDTAB
0
TABLE
2
BLOCK_RECORD
5
1
100
AcDbSymbolTable
70
1
0
BLOCK_RECORD
5
1F
100
AcDbSymbolTableRecord
100
AcDbBlockTableRecord
2
*MODEL_SPACE
0
BLOCK_RECORD
5
1B
100
AcDbSymbolTableRecord
100
AcDbBlockTableRecord
2
*PAPER_SPACE
0
ENDTAB
0
ENDSEC
0
SECTION
2
BLOCKS
0
BLOCK
5
20
100
AcDbEntity
100
AcDbBlockBegin
2
*MODEL_SPACE
0
ENDBLK
5
21
100
AcDbEntity
100
AcDbBlockEnd
0
BLOCK
5
1C
100
AcDbEntity
100
AcDbBlockBegin
2
*PAPER_SPACE
0
ENDBLK
5
1D
100
AcDbEntity
100
AcDbBlockEnd
0
ENDSEC
0
SECTION
2
ENTITIES
0
LWPOLYLINE
5
100
100
AcDbEntity
8
0
100
AcDbPolyline
90
56
70
1
43
0.0
10
139.3750005
20
-97.349951500000017
10
139.3750005
20
-96.249951500000023
42
0.41421356237310025
10
138.3750005
20
-95.249951500000023
10
50.0249995
20
-95.249951500000023
42
0.41421356237309503
10
49.024999499999993
20
-96.249951500000023
10
49.024999499999993
20
-97.349951500000017
42
-0.99999999999999989
10
42.0249995
20
-97.349951500000017
10
42.0249995
20
-96.249951500000023
42
0.41421356237308982
10
41.025000499999997
20
-95.24995250000002
10
1.0000004999999934
20
-95.249951500000023
42
-0.41421356237309503
10
5.0000000584304871e-07
20
-94.249951500000023
10
-5.0000001139416383e-07
20
-0.99995250000000979
42
-0.41421356237309404
10
0.9999994999999906
20
4.7499999995537223e-05
10
41.024999500000007
20
4.7499999995537223e-05
42
0.41421356237309559
10
42.0249995
20
1.000047499999992
10
42.0249995
20
2.1000474999999774
42
-0.99999999999999989
10
49.024999499999993
20
2.1000474999999774
10
49.024999499999993
20
1.000047499999992
42
0.41421356237309687
10
50.024999500000007
20
4.7499999995537223e-05
10
138.3750005
20
4.7499999995537223e-05
42
0.41421356237309692
10
139.3750005
20
1.000047499999992
10
139.3750005
20
2.1000474999999774
42
-0.99999999999999989
10
146.37500049999997
20
2.1000474999999774
10
146.37500050000003
20
1.000047499999992
42
0.41421356237309687
10
147.3750005
20
4.7499999995537223e-05
10
235.72500050000002
20
4.7499999995537223e-05
42
0.41421356237310542
10
236.72500050000002
20
1.000047499999992
10
236.72500050000011
20
2.1000471701487138
42
-1.0000000471216102
10
243.72500049999999
20
2.1000474999999774
10
243.72500050000008
20
1.000047499999992
42
0.41421356237309453
10
244.72500050000008
20
4.7499999977773655e-05
10
290.77500049999998
20
4.7499999995537223e-05
42
0.41421356237310542
10
291.77500049999998
20
1.000047499999992
10
291.77500049999998
20
2.1000474999999774
42
-0.99999999999999989
10
298.77500050000003
20
2.1000474999999774
10
298.77500050000003
20
1.000047499999992
42
0.41421356237309453
10
299.77500050000003
20
4.7499999977773655e-05
10
303.80000050000007
20
4.7500000004419007e-05
42
-0.41421356237309503
10
304.80000050000007
20
-0.99995250000000979
10
304.80000050000007
20
-94.249951500000023
42
-0.41421356237309503
10
303.80000050000007
20
-95.249951500000023
10
299.77500050000003
20
-95.249951500000023
42
0.41421356237308982
10
298.77500050000003
20
-96.249951500000023
10
298.77500050000003
20
-97.349951500000017
42
-0.99999999999999989
10
291.77500049999998
20
-97.349951500000017
10
291.77500049999998
20
-96.249951500000023
42
0.41421356237309503
10
290.77500049999998
20
-95.249951500000009
10
244.72500050000008
20
-95.249951500000023
42
0.41421356237308982
10
243.72500050000008
20
-96.249951500000023
10
243.72500050000008
20
-97.349951500000017
42
-0.99999999999999989
10
236.72500050000002
20
-97.349951500000017
10
236.72500050000002
20
-96.249951500000023
42
0.41421356237309503
10
235.72500050000002
20
-95.249951500000009
10
147.3750005
20
-95.249951500000023
42
0.41421356237309503
10
146.37500049999997
20
-96.249951500000023
10
146.37500049999997
20
-97.349951500000017
42
-0.99999999999999989
0
LWPOLYLINE
5
101
100
AcDbEntity
8
0
100
AcDbPolyline
90
12
70
1
43
0.0
10
226.86249950000004
20
-54.625047500000022
10
239.8625005000001
20
-54.62504850000002
42
0.41421356236781415
10
240.36250050000007
20
-54.125046500009134
10
240.36250050000007
20
-41.125047500000008
42
0.41421356237311063
10
239.8625005000001
20
-40.625047500000022
10
239.37636550000008
20
-40.625047500000022
10
239.36250049999998
20
-40.624951500000023
10
227.3625005000001
20
-40.624951500000023
10
227.3486345
20
-40.625047500000022
10
226.86250050000001
20
-40.625047500000022
42
0.41421356237304302
10
226.36249950000001
20
-41.125048500000005
10
226.36250049999998
20
-54.125048500000034
42
0.41421356237313667
0
LWPOLYLINE
5
102
100
AcDbEntity
8
0
100
AcDbPolyline
90
12
70
1
43
0.0
10
288.77500050000003
20
-16.525048500000029
42
-0.41421356237308204
10
288.27500050000003
20
-16.025048500000008
10
288.27499950000004
20
-3.0250485000000094
42
-0.4142135623730846
10
288.77500050000003
20
-2.5250475000000261
10
289.26113450000003
20
-2.5250475000000172
10
289.27500049999998
20
-2.5249515000000056
10
301.27500050000003
20
-2.5249515000000056
10
301.28886550000004
20
-2.5250475000000172
10
301.77500150000003
20
-2.5250475000000594
42
-0.41421356237315876
10
302.27500050000003
20
-3.0250485000000094
10
302.27500149999997
20
-16.025047500000007
42
-0.41421356237311324
10
301.77500049999998
20
-16.525048500000004
0
LWPOLYLINE
5
103
100
AcDbEntity
8
0
100
AcDbPolyline
90
12
70
1
43
0.0
10
301.77500049999998
20
-40.625047500000022
10
301.28886550000004
20
-40.625047500000022
10
301.27500050000003
20
-40.624951500000023
10
289.27500049999998
20
-40.624951500000023
10
289.26113450000003
20
-40.625047500000022
10
288.77500050000003
20
-40.625047500000022
42
0.41421356237313145
10
288.27499950000004
20
-41.125048500000005
10
288.27500050000003
20
-54.125048500000013
42
0.41421356237310542
10
288.77500050000003
20
-54.625048500000034
10
301.77500049999998
20
-54.625048500000034
42
0.41421356237313145
10
302.27500149999997
20
-54.125047500000051
10
302.27500050000003
20
-41.125047500000065
42
0.4142135623731783
0
LWPOLYLINE
5
104
100
AcDbEntity
8
0
100
AcDbPolyline
90
12
70
1
43
0.0
10
254.65000150000003
20
-35.075047500000025
10
254.6500005
20
-22.075047499999989
42
0.41421356237310025
10
254.15000050000003
20
-21.575047499999982
10
253.66386550000001
20
-21.57504850000003
10
253.65000049999998
20
-21.574951500000008
10
241.65000050000003
20
-21.574951500000008
10
241.6361345
20
-21.57504850000003
10
241.15000049999998
20
-21.57504850000004
42
0.41421356237314966
10
240.65000050000003
20
-22.075048499999987
10
240.65000049999995
20
-35.075047499999968
42
0.41421356237307944
10
241.15000049999998
20
-35.575047499999982
10
254.15000050000003
20
-35.575048500000008
42
0.41421356237312623
0
LWPOLYLINE
5
105
100
AcDbEntity
8
0
100
AcDbPolyline
90
12
70
1
43
0.0
10
289.26113450000003
20
-21.57504850000003
10
288.77500050000003
20
-21.57504850000003
42
0.41421356237297796
10
288.27500049999998
20
-22.075048500000012
10
288.27500049999998
20
-35.075047500000025
42
0.41421356237319906
10
288.77499950000004
20
-35.575048500000022
10
301.77500050000003
20
-35.575048500000008
42
0.41421356237309764
10
302.27500150000014
20
-35.075047500000025
10
302.27500050000003
20
-22.075047499999989
42
0.41421356237318607
10
301.77500049999998
20
-21.575047500000004
10
301.28886550000004
20
-21.57504850000003
10
301.27500050000003
20
-21.574951500000008
10
289.27500049999998
20
-21.574951500000008
0
LWPOLYLINE
5
106
100
AcDbEntity
8
0
100
AcDbPolyline
90
12
70
1
43
0.0
10
244.62500150000005
20
-2.5250475000000172
10
244.13886550000001
20
-2.5250475000000172
10
244.1250005
20
-2.5249515000000056
10
232.12500050000003
20
-2.5249515000000056
10
232.11113449999999
20
-2.5250475000000172
10
231.62500050000003
20
-2.5250475000000261
42
0.41421356237317436
10
231.1249995
20
-3.0250485000000449
10
231.1250005
20
-16.025048500000018
42
0.41421356237294543
10
231.62499949999997
20
-16.525047500000014
10
244.6250005
20
-16.525048500000004
42
0.41421356237316526
10
245.12500150000008
20
-16.025047500000007
10
245.12500049999994
20
-3.0250484999889249
42
0.41421356236667378
0
LWPOLYLINE
5
107
100
AcDbEntity
8
0
100
AcDbPolyline
90
24
70
1
43
0.0
10
258.26200150000005
20
-18.025047500000007
10
258.2620005
20
-16.525047500000003
10
275.13800049999998
20
-16.525047500000003
10
275.13800049999992
20
-18.0250485
42
0.41421356237312101
10
275.63800149999997
20
-18.525047500000021
10
281.63800050000003
20
-18.525048499999997
42
0.41421356237313017
10
282.13800150000009
20
-18.025047500000007
10
282.13800050000003
20
-16.525047500000003
10
282.72500050000002
20
-16.52504849999999
42
0.41421356237319906
10
283.22500150000008
20
-16.025047500000007
10
283.22500050000002
20
-3.0250485000000094
42
0.41421356237302837
10
282.72500149999996
20
-2.5250475000000083
10
282.23886550000003
20
-2.5250475000000172
10
282.22500050000002
20
-2.5249515000000056
10
251.17500050000004
20
-2.5249515000000056
10
251.1611345
20
-2.5250475000000172
10
250.6750005000001
20
-2.5250474999999994
42
0.41421356237313406
10
250.17499950000001
20
-3.0250485000000094
10
250.1750005000001
20
-16.025048500000008
42
0.4142135623729884
10
250.67499949999998
20
-16.525047500000003
10
251.2620005
20
-16.525048500000004
10
251.2620005
20
-18.0250485
42
0.41421356237294804
10
251.76199949999997
20
-18.525047500000007
10
257.7620005
20
-18.525048500000032
42
0.4142135623730846
0
LWPOLYLINE
5
108
100
AcDbEntity
8
0
100
AcDbPolyline
90
12
70
1
43
0.0
10
54.625000499999992
20
-16.025048500000008
42
-0.41421356237310281
10
54.125000499999992
20
-16.525048500000004
10
41.125000499999999
20
-16.525048500000011
42
-0.41421356237309764
10
40.625000499999999
20
-16.025048500000008
10
40.624999500000001
20
-3.0250485000000182
42
-0.41421356237310936
10
41.125000499999999
20
-2.5250475000000172
10
41.611134500000006
20
-2.5250475000000172
10
41.625000499999999
20
-2.5249515000000056
10
53.625000499999999
20
-2.5249515000000056
10
53.638865500000001
20
-2.5250485000000289
10
54.125001499999996
20
-2.5250475000000301
42
-0.41421356237311358
10
54.625000500000013
20
-3.0250485000000094
0
LWPOLYLINE
5
109
100
AcDbEntity
8
0
100
AcDbPolyline
90
12
70
1
43
0.0
10
87.462498499999995
20
-40.625047500000022
10
86.9763655
20
-40.625047500000022
10
86.962500499999976
20
-40.624951500000023
10
74.96250049999999
20
-40.624951500000023
10
74.948634499999997
20
-40.625047500000022
10
74.46250049999999
20
-40.625047500000022
42
0.41421356237305862
10
73.96250049999999
20
-41.125047500000008
10
73.96250049999999
20
-54.125048500000034
42
0.41421356237307422
10
74.462500500000004
20
-54.625048500000034
10
87.46250049999999
20
-54.625048500000048
42
0.4142135623730534
10
87.962500499999976
20
-54.125048500000034
10
87.962500500000004
20
-41.125047500000001
42
0.41421356237311063
0
LWPOLYLINE
5
110
100
AcDbEntity
8
0
100
AcDbPolyline
90
12
70
1
43
0.0
10
78.725000499999993
20
-3.0250475000000066
10
78.725000499999993
20
-16.025048500000008
42
0.41421356237310025
10
79.225000499999993
20
-16.525048500000004
10
92.225000499999965
20
-16.525048500000015
42
0.41421356237308854
10
92.725000500000021
20
-16.025048500000008
10
92.725000500000036
20
-3.0250485000000094
42
0.41421356237311974
10
92.22500049999995
20
-2.5250485000000289
10
91.738865500000031
20
-2.5250475000000172
10
91.725000500000021
20
-2.5249515000000056
10
79.725000499999993
20
-2.5249515000000056
10
79.711134500000014
20
-2.5250475000000172
10
79.225000499999993
20
-2.5250475000000083
42
0.41421356237307261
0
LWPOLYLINE
5
111
100
AcDbEntity
8
0
100
AcDbPolyline
90
12
70
1
43
0.0
10
72.67500050000001
20
-2.5249515000000056
10
60.675000499999996
20
-2.5249515000000056
10
60.661134500000017
20
-2.5250475000000172
10
60.17500050000001
20
-2.5250475000000261
42
0.41421356237307583
10
59.675000499999996
20
-3.0250475000000066
10
59.675000499999996
20
-16.025048500000008
42
0.41421356237310542
10
60.17500050000001
20
-16.525048500000015
10
73.175000499999996
20
-16.525048500000004
42
0.4142135623730937
10
73.675001499999993
20
-16.025047500000007
10
73.675000499999996
20
-3.0250485000000094
42
0.41421356237310869
10
73.175000499999996
20
-2.5250485000000289
10
72.688865499999991
20
-2.5250485000000289
0
LWPOLYLINE
5
112
100
AcDbEntity
8
0
100
AcDbPolyline
90
12
70
1
43
0.0
10
83.200000500000016
20
-35.075048500000022
42
-0.41421356237312101
10
82.700000500000016
20
-35.575048500000022
10
69.700000500000016
20
-35.575047500000025
42
-0.41421356237309764
10
69.200000500000016
20
-35.075047500000025
10
69.200001500000013
20
-22.075047499999989
42
-0.41421356237309503
10
69.700000500000016
20
-21.575048499999987
10
70.186134500000009
20
-21.57504850000003
10
70.200000500000002
20
-21.574951500000008
10
82.200000499999987
20
-21.574951500000008
10
82.213865500000026
20
-21.57504850000003
10
82.699999499999976
20
-21.575048500000044
42
-0.41421356237311324
10
83.20000050000003
20
-22.0750475
0
LWPOLYLINE
5
113
100
AcDbEntity
8
0
100
AcDbPolyline
90
12
70
1
43
0.0
10
68.912500500000007
20
-54.125048500000013
42
-0.41421356237313145
10
68.412500500000007
20
-54.625048500000034
10
55.412500499999986
20
-54.625048500000048
42
-0.4142135623730534
10
54.912500499999986
20
-54.125048500000013
10
54.912500500000007
20
-41.125047500000008
42
-0.41421356237311585
10
55.412500499999993
20
-40.625047500000036
10
55.898634499999993
20
-40.625047500000022
10
55.912500499999993
20
-40.624951500000023
10
67.912500500000007
20
-40.624951500000023
10
67.926365499999989
20
-40.625047500000022
10
68.412500500000007
20
-40.625047500000015
42
-0.4142135623730534
10
68.912500500000007
20
-41.125047500000008
0
LWPOLYLINE
5
114
100
AcDbEntity
8
0
100
AcDbPolyline
90
12
70
1
43
0.0
10
88.250000499999999
20
-22.075046499999988
10
88.250000499999999
20
-35.075047500000025
42
0.41421356237310802
10
88.749999500000001
20
-35.575048500000022
10
101.7500005
20
-35.575048500000022
42
0.41421356237309243
10
102.2500015
20
-35.075047500000025
10
102.25000050000003
20
-22.075047499999989
42
0.41421356237311846
10
101.7499995
20
-21.57504850000003
10
101.26386549999999
20
-21.57504850000003
10
101.2500005
20
-21.574951500000008
10
89.250000499999999
20
-21.574951500000008
10
89.23613450000002
20
-21.57504850000003
10
88.750000499999999
20
-21.575048499999987
42
0.41421356237310281
0
LWPOLYLINE
5
115
100
AcDbEntity
8
0
100
AcDbPolyline
90
12
70
1
43
0.0
10
63.650000500000026
20
-21.575047500000014
42
-0.41421356237309764
10
64.150000500000019
20
-22.075047499999989
10
64.150001500000002
20
-35.075047500000025
42
-0.41421356237307161
10
63.650000500000019
20
-35.575048500000001
10
50.650000499999983
20
-35.575047500000061
42
-0.4142135623730846
10
50.150000499999983
20
-35.075047500000025
10
50.150001499999981
20
-22.075047499999989
42
-0.41421356237313145
10
50.65000049999999
20
-21.575048499999987
10
51.13613449999999
20
-21.57504850000003
10
51.15000049999999
20
-21.574951500000008
10
63.150000500000004
20
-21.574951500000008
10
63.163865500000007
20
-21.57504850000003
0
LWPOLYLINE
5
116
100
AcDbEntity
8
0
100
AcDbPolyline
90
12
70
1
43
0.0
10
4.0687505000000002
20
-41.125047500000008
10
4.0687505000000002
20
-54.125048500000013
42
0.414213562373069
10
4.5687504999999895
20
-54.625048500000034
10
23.168750499999998
20
-54.625048500000034
42
0.41421356237311846
10
23.668750499999991
20
-54.125048500000013
10
23.668750499999991
20
-41.125047500000008
42
0.41421356237306384
10
23.168750500000002
20
-40.625047500000022
10
22.682615499999983
20
-40.625047500000022
10
22.668749500000001
20
-40.624951500000023
10
5.9062504999999987
20
-40.624951500000023
10
5.8923844999999986
20
-40.625047500000022
10
4.5687504999999939
20
-40.625047500000029
42
0.41421356237306317
0
LWPOLYLINE
5
117
100
AcDbEntity
8
0
100
AcDbPolyline
90
12
70
1
43
0.0
10
22.075000499999994
20
-16.525048500000008
42
-0.41421356237312495
10
21.575000499999991
20
-16.025048500000008
10
21.575000499999994
20
-3.0250475000000066
42
-0.41421356237310869
10
22.075000499999987
20
-2.5250475000000172
10
22.561134499999991
20
-2.5250475000000172
10
22.575000499999991
20
-2.5249515000000056
10
34.57499949999999
20
-2.5249515000000056
10
34.58886549999999
20
-2.5250475000000172
10
35.075000499999987
20
-2.5250485000000178
42
-0.41421356237308593
10
35.575000500000002
20
-3.0250485000000005
10
35.575001499999992
20
-16.025047500000007
42
-0.41421356237308854
10
35.075000499999994
20
-16.525048500000011
0
LWPOLYLINE
5
118
100
AcDbEntity
8
0
100
AcDbPolyline
90
12
70
1
43
0.0
10
20.301365499999999
20
-21.57504850000003
10
20.287499499999999
20
-21.574951500000008
10
8.2875005000000002
20
-21.574951500000008
10
8.2736345
20
-21.57504850000003
10
7.7875004999999931
20
-21.575048499999994
42
0.41421356237309631
10
7.2875004999999859
20
-22.075046499999988
10
7.2875005000000019
20
-35.075047500000025
42
0.4142135623730866
10
7.7875004999999931
20
-35.575047500000011
10
20.787500499999993
20
-35.575048499999994
42
0.41421356237309764
10
21.287501499999983
20
-35.075047500000039
10
21.28750049999999
20
-22.075047499999989
42
0.41421356237308982
10
20.7875005
20
-21.575047499999993
0
LWPOLYLINE
5
119
100
AcDbEntity
8
0
100
AcDbPolyline
90
12
70
1
43
0.0
10
65.42363450000002
20
-59.675048500000059
10
64.937500500000013
20
-59.675048500000059
42
0.414213562373069
10
64.437500499999985
20
-60.175046500000008
10
64.437500499999999
20
-73.175047500000005
42
0.41421356237303258
10
64.937500500000013
20
-73.675047500000019
10
77.937500499999999
20
-73.675047500000034
42
0.41421356237312623
10
78.437500499999999
20
-73.175047500000005
10
78.437500499999999
20
-60.175048500000052
42
0.41421356237311585
10
77.937500499999999
20
-59.675048500000031
10
77.451365499999994
20
-59.675048500000059
10
77.437500499999999
20
-59.674951500000013
10
65.437500499999999
20
-59.674951500000013
0
CIRCLE
5
120
100
AcDbEntity
8
0
100
AcDbCircle
10
142.86696650000002
20
-97.359861500000008
30
0
40
1.0999999999999943
210
0
220
-0
230
1
0
CIRCLE
5
121
100
AcDbEntity
8
0
100
AcDbCircle
10
45.5269665
20
-97.349861500000003
30
0
40
1.0999999999999985
210
0
220
-0
230
1
0
CIRCLE
5
122
100
AcDbEntity
8
0
100
AcDbCircle
10
295.27696649999996
20
-97.339861500000012
30
0
40
1.0999999999999943
210
0
220
-0
230
1
0
LWPOLYLINE
5
123
100
AcDbEntity
8
0
100
AcDbPolyline
90
12
70
1
43
0.0
10
3.0250004999999902
20
-16.525048500000004
10
16.024999499999986
20
-16.525048500000004
42
0.41421356237309764
10
16.525000500000004
20
-16.025047500000007
10
16.525000499999997
20
-3.0250485000000094
42
0.41421356237310675
10
16.024999499999986
20
-2.5250475000000172
10
15.538865499999996
20
-2.5250475000000172
10
15.52500049999999
20
-2.5249515000000056
10
3.5250004999999973
20
-2.5249515000000056
10
3.5111344999999972
20
-2.5250475000000172
10
3.0250004999999938
20
-2.5250475000000172
42
0.41421356237310086
10
2.5249994999999892
20
-3.0250485000000094
10
2.525000499999992
20
-16.025048500000008
42
0.4142135623730957
0
LWPOLYLINE
5
124
100
AcDbEntity
8
0
100
AcDbPolyline
90
12
70
1
43
0.0
10
36.862500499999996
20
-40.624951500000023
10
36.848634500000003
20
-40.625047500000022
10
36.362500499999996
20
-40.625047500000036
42
0.41421356237310802
10
35.862500500000003
20
-41.125047500000008
10
35.862500499999996
20
-54.125048500000013
42
0.41421356237307422
10
36.362500499999996
20
-54.625048500000034
10
49.362500499999989
20
-54.625048500000034
42
0.41421356237310025
10
49.862500499999989
20
-54.125048500000013
10
49.862500499999989
20
-41.125047500000008
42
0.41421356237306384
10
49.362500499999982
20
-40.625047500000022
10
48.876365499999999
20
-40.625047500000022
10
48.862500499999996
20
-40.624951500000023
0
CIRCLE
5
125
100
AcDbEntity
8
0
100
AcDbCircle
10
295.28696650000001
20
2.1001384999999928
30
0
40
1.0999999999999943
210
0
220
-0
230
1
0
CIRCLE
5
126
100
AcDbEntity
8
0
100
AcDbCircle
10
45.516966499999995
20
2.1001384999999928
30
0
40
1.0999999999999985
210
0
220
-0
230
1
0
CIRCLE
5
127
100
AcDbEntity
8
0
100
AcDbCircle
10
240.2169665000001
20
-97.359861500000008
30
0
40
1.0999999999999943
210
0
220
-0
230
1
0
LWPOLYLINE
5
128
100
AcDbEntity
8
0
100
AcDbPolyline
90
12
70
1
43
0.0
10
18.406250499999999
20
-78.725047499999988
10
17.920115499999998
20
-78.725047499999988
10
17.906249499999998
20
-78.724951500000003
10
5.9062504999999987
20
-78.724951500000003
10
5.8923844999999986
20
-78.725047499999988
10
5.4062504999999916
20
-78.725047499999988
42
0.4142135623730957
10
4.9062504999999845
20
-79.225047500000002
10
4.9062504999999925
20
-92.225048500000014
42
0.41421356237303714
10
5.4062515000000033
20
-92.725047499999988
10
18.406250499999995
20
-92.725048500000028
42
0.41421356237307294
10
18.906250500000006
20
-92.225046499999991
10
18.906250499999999
20
-79.225047499999988
42
0.4142135623730846
0
LWPOLYLINE
5
129
100
AcDbEntity
8
0
100
AcDbPolyline
90
12
70
1
43
0.0
10
83.987500499999982
20
-73.675048500000031
42
-0.41421356237307422
10
83.487499499999984
20
-73.175047500000034
10
83.487499499999998
20
-60.175047500000019
42
-0.41421356237310542
10
83.987500499999982
20
-59.675048500000045
10
84.473634500000003
20
-59.675048500000059
10
84.487499499999998
20
-59.674951500000013
10
96.48750050000001
20
-59.674951500000013
10
96.501365499999977
20
-59.675048500000059
10
96.987501499999979
20
-59.675047499999991
42
-0.41421356237316265
10
97.487500499999982
20
-60.175048500000052
10
97.487500499999996
20
-73.175047500000005
42
-0.41421356237312623
10
96.987500499999996
20
-73.675047500000034
0
LWPOLYLINE
5
130
100
AcDbEntity
8
0
100
AcDbPolyline
90
12
70
1
43
0.0
10
31.100001499999994
20
-22.075047499999989
10
31.1000005
20
-35.075047500000025
42
0.41421356237309243
10
31.60000049999999
20
-35.575047500000032
10
44.600000500000007
20
-35.575048500000008
42
0.41421356237309764
10
45.100000500000021
20
-35.075046500000028
10
45.099999499999996
20
-22.075047499999989
42
0.41421356237308982
10
44.599999500000003
20
-21.575047499999993
10
44.113865500000017
20
-21.57504850000003
10
44.100000500000007
20
-21.574951500000008
10
32.100000499999993
20
-21.574951500000008
10
32.0861345
20
-21.57504850000003
10
31.600000499999993
20
-21.575048500000058
42
0.4142135623730846
0
LWPOLYLINE
5
131
100
AcDbEntity
8
0
100
AcDbPolyline
90
12
70
1
43
0.0
10
45.887500500000002
20
-73.675047500000034
10
58.887500500000002
20
-73.675047500000034
42
0.41421356237312101
10
59.387500500000016
20
-73.175047500000005
10
59.387500500000016
20
-60.175048500000052
42
0.41421356237309503
10
58.887501499999999
20
-59.675047500000019
10
58.401365500000004
20
-59.675048500000059
10
58.387500500000016
20
-59.674951500000013
10
46.387500499999987
20
-59.674951500000013
10
46.373634499999987
20
-59.675048500000059
10
45.887500500000002
20
-59.675048500000045
42
0.41421356237311585
10
45.387500500000009
20
-60.175048500000052
10
45.387500500000009
20
-73.175047500000019
42
0.41421356237310542
0
LWPOLYLINE
5
132
100
AcDbEntity
8
0
100
AcDbPolyline
90
12
70
1
43
0.0
10
150.66250050000002
20
-54.625048500000034
10
163.66250050000002
20
-54.625048500000034
42
0.41421356236779855
10
164.16250050000005
20
-54.12504650000912
10
164.16250050000002
20
-41.125047500000008
42
0.41421356237316787
10
163.66250050000002
20
-40.625047500000022
10
163.1763655
20
-40.625047500000022
10
163.16250050000002
20
-40.624951500000023
10
151.16250050000002
20
-40.624951500000023
10
151.14863449999999
20
-40.625047500000022
10
150.66250050000002
20
-40.625047500000022
42
0.41421356237310025
10
150.16250050000002
20
-41.125047500000029
10
150.16250050000002
20
-54.125048500000034
42
0.41421356237302737
0
LWPOLYLINE
5
133
100
AcDbEntity
8
0
100
AcDbPolyline
90
12
70
1
43
0.0
10
97.774999499999979
20
-3.0250465000000126
42
-0.41421356237312429
10
98.275000499999976
20
-2.5250475000000261
10
98.76113450000004
20
-2.5250475000000172
10
98.775000499999976
20
-2.5249515000000056
10
110.77500049999999
20
-2.5249515000000056
10
110.7888655
20
-2.5250475000000172
10
111.2750005
20
-2.525048500000024
42
-0.41421356237309276
10
111.77500050000005
20
-3.0250485000000271
10
111.77500050000003
20
-16.025048499999972
42
-0.41421356237309631
10
111.2750005
20
-16.525048499999997
10
98.275000499999976
20
-16.525048500000004
42
-0.41421356237308982
10
97.775000499999976
20
-16.025048500000008
0
LWPOLYLINE
5
134
100
AcDbEntity
8
0
100
AcDbPolyline
90
12
70
1
43
0.0
10
112.56250050000004
20
-54.625048500000034
42
-0.41421356237306384
10
112.0625005
20
-54.125048500000013
10
112.0624995
20
-41.125046499999996
42
-0.414213562373069
10
112.56250050000004
20
-40.625047500000022
10
113.04863449999999
20
-40.625047500000022
10
113.06250050000001
20
-40.624951500000023
10
125.06250050000004
20
-40.624951500000023
10
125.07636549999999
20
-40.625047500000022
10
125.56249849999999
20
-40.625047500000051
42
-0.41421356237308982
10
126.0625005
20
-41.125047500000008
10
126.06250050000001
20
-54.125048499999977
42
-0.4142135623730222
10
125.56250050000001
20
-54.625048500000034
0
LWPOLYLINE
5
135
100
AcDbEntity
8
0
100
AcDbPolyline
90
12
70
1
43
0.0
10
183.50000050000006
20
-22.075048500000012
10
183.50000050000006
20
-35.075047500013099
42
0.4142135623654703
10
183.9999985
20
-35.575047499999982
10
197.00000049999997
20
-35.575048500000008
42
0.41421356237304818
10
197.5000015
20
-35.075047500000025
10
197.50000049999997
20
-22.075047499999975
42
0.4142135623730378
10
197.0000005
20
-21.575047500000004
10
196.51386549999998
20
-21.57504850000003
10
196.50000049999994
20
-21.574951500000008
10
184.5000005
20
-21.574951500000008
10
184.48613450000005
20
-21.57504850000003
10
184.00000049999994
20
-21.57504850000003
42
0.414213562373069
0
LWPOLYLINE
5
136
100
AcDbEntity
8
0
100
AcDbPolyline
90
12
70
1
43
0.0
10
127.35000049999999
20
-21.574951500000008
10
127.3361345
20
-21.57504850000003
10
126.85000050000001
20
-21.57504850000003
42
0.41421356237313406
10
126.35000050000002
20
-22.07504850000003
10
126.35000050000001
20
-35.075047500000025
42
0.41421356237312623
10
126.85000050000002
20
-35.575047500000011
10
139.85000050000002
20
-35.575048500000022
42
0.4142135623730846
10
140.35000050000002
20
-35.075048500000037
10
140.35000050000005
20
-22.075047500000036
42
0.41421356237307422
10
139.85000050000002
20
-21.575047499999993
10
139.3638655
20
-21.57504850000003
10
139.35000050000002
20
-21.574951500000008
0
LWPOLYLINE
5
137
100
AcDbEntity
8
0
100
AcDbPolyline
90
12
70
1
43
0.0
10
220.32636550000007
20
-40.625047500000022
10
220.31250049999997
20
-40.624951500000023
10
208.3125005
20
-40.624951500000023
10
208.29863450000005
20
-40.625047500000022
10
207.81250049999997
20
-40.625047500000022
42
0.41421356237313145
10
207.3124995
20
-41.125048500000005
10
207.31250049999997
20
-54.125048499999977
42
0.41421356237315748
10
207.81249950000003
20
-54.625047500000022
10
220.8125005
20
-54.625048500000055
42
0.41421356236772572
10
221.3125005
20
-54.125046500009084
10
221.3125005
20
-41.125047500000008
42
0.41421356237303258
10
220.8125005
20
-40.625047500000022
0
LWPOLYLINE
5
138
100
AcDbEntity
8
0
100
AcDbPolyline
90
12
70
1
43
0.0
10
155.92500050000001
20
-2.5249515000000056
10
155.91113450000006
20
-2.5250475000000172
10
155.42500049999998
20
-2.5250475000000261
42
0.41421356237309276
10
154.92499950000001
20
-3.0250485000000094
10
154.92500050000001
20
-16.025048500000008
42
0.41421356237305212
10
155.42500150000001
20
-16.525047500000003
10
168.42500049999995
20
-16.525048500000004
42
0.41421356237314838
10
168.92500050000001
20
-16.025046500000009
10
168.92500050000001
20
-3.0250484999999916
42
0.41421356237304102
10
168.42500150000001
20
-2.5250475000000172
10
167.93886550000002
20
-2.5250475000000172
10
167.92500050000001
20
-2.5249515000000056
0
LWPOLYLINE
5
139
100
AcDbEntity
8
0
100
AcDbPolyline
90
12
70
1
43
0.0
10
135.8749995
20
-3.0250485000000271
10
135.8750005
20
-16.025048500000008
42
0.41421356237307033
10
136.37500149999997
20
-16.525047500000028
10
149.3750005
20
-16.525048500000004
42
0.41421356237311974
10
149.8750005
20
-16.025048500000008
10
149.87500050000006
20
-3.0250485000000094
42
0.41421356237312656
10
149.37500150000002
20
-2.5250475000000083
10
148.88886550000001
20
-2.5250475000000172
10
148.87500049999997
20
-2.5249515000000056
10
136.87500050000006
20
-2.5249515000000056
10
136.86113449999999
20
-2.5250475000000172
10
136.3750005
20
-2.5250475000000261
42
0.41421356237310575
0
LWPOLYLINE
5
140
100
AcDbEntity
8
0
100
AcDbPolyline
90
12
70
1
43
0.0
10
130.82499949999999
20
-16.025048500000008
10
130.82499950000002
20
-3.025048500000036
42
0.41421356237305795
10
130.32499950000002
20
-2.5250485000000111
10
129.8388655
20
-2.5250475000000172
10
129.82499949999999
20
-2.5249515000000056
10
117.82500050000002
20
-2.5249515000000056
10
117.81113449999999
20
-2.5250475000000172
10
117.3250005
20
-2.5250475000000172
42
0.41421356237308526
10
116.8250005
20
-3.0250475000000066
10
116.8250005
20
-16.025048500000018
42
0.41421356237307555
10
117.3250005
20
-16.525048500000025
10
130.32499949999999
20
-16.525048500000004
42
0.41421356237310675
0
LWPOLYLINE
5
141
100
AcDbEntity
8
0
100
AcDbPolyline
90
12
70
1
43
0.0
10
108.30000050000001
20
-21.574951500000008
10
108.28613450000005
20
-21.57504850000003
10
107.80000050000001
20
-21.575048499999994
42
0.41421356237308204
10
107.30000150000001
20
-22.075047499999989
10
107.30000050000001
20
-35.075047500000025
42
0.4142135623730378
10
107.80000050000001
20
-35.575047499999997
10
120.80000050000001
20
-35.575048499999994
42
0.41421356237307161
10
121.30000149999999
20
-35.075047500000025
10
121.30000050000005
20
-22.075047499999989
42
0.41421356237305862
10
120.7999995
20
-21.57504850000003
10
120.31386549999999
20
-21.57504850000003
10
120.30000050000004
20
-21.574951500000008
0
LWPOLYLINE
5
142
100
AcDbEntity
8
0
100
AcDbPolyline
90
12
70
1
43
0.0
10
201.76250050000007
20
-40.625047500000022
10
201.2763655
20
-40.625047500000022
10
201.26250050000004
20
-40.624951500000023
10
189.26250049999999
20
-40.624951500000023
10
189.24863449999998
20
-40.625047500000022
10
188.76250049999999
20
-40.625047500000022
42
0.4142135623730534
10
188.26249949999999
20
-41.125048500000041
10
188.26250049999996
20
-54.125048500000013
42
0.41421356237318346
10
188.76249950000002
20
-54.625047500000022
10
201.76250050000007
20
-54.625048500000034
42
0.41421356236783496
10
202.26250050000004
20
-54.125046500009134
10
202.26250050000004
20
-41.125047500000008
42
0.41421356237305862
0
LWPOLYLINE
5
143
100
AcDbEntity
8
0
100
AcDbPolyline
90
12
70
1
43
0.0
10
93.51250050000003
20
-54.625047500000022
10
106.5125005
20
-54.625048500000034
42
0.41421356237313145
10
107.0125015
20
-54.125047500000072
10
107.0125005
20
-41.125047500000008
42
0.41421356237315227
10
106.5125005
20
-40.625047500000022
10
106.0263655
20
-40.625047500000022
10
106.01250050000003
20
-40.624951500000023
10
94.012500500000002
20
-40.624951500000023
10
93.99863449999998
20
-40.625047500000022
10
93.51250050000003
20
-40.625047500000022
42
0.41421356237956736
10
93.012499499999976
20
-41.125046500011138
10
93.012499499999976
20
-54.125048500000013
42
0.41421356237309503
0
LWPOLYLINE
5
144
100
AcDbEntity
8
0
100
AcDbPolyline
90
12
70
1
43
0.0
10
269.72499950000008
20
-73.675048500000045
10
282.72500049999996
20
-73.675047500000019
42
0.41421356237314705
10
283.22500050000002
20
-73.175047499999977
10
283.22500050000008
20
-60.175048500000052
42
0.41421356237312623
10
282.72500149999991
20
-59.675047500000034
10
282.23886550000003
20
-59.675048500000059
10
282.22500050000002
20
-59.674951500000013
10
270.22500049999996
20
-59.674951500000013
10
270.21113450000001
20
-59.675048500000059
10
269.72500050000002
20
-59.675048500000031
42
0.41421356237307944
10
269.22500049999996
20
-60.175048500000052
10
269.22500050000002
20
-73.175047500000005
42
0.4142135623730534
0
LWPOLYLINE
5
145
100
AcDbEntity
8
0
100
AcDbPolyline
90
12
70
1
43
0.0
10
144.11250050000001
20
-40.624951500000023
10
132.11250050000001
20
-40.624951500000023
10
132.0986345
20
-40.625047500000022
10
131.61250050000004
20
-40.625047500000022
42
0.41421356237316265
10
131.11250050000001
20
-41.125047500000008
10
131.11250050000001
20
-54.125048500000013
42
0.41421356237312101
10
131.61250050000004
20
-54.625048500000034
10
144.61250050000001
20
-54.625048500000034
42
0.41421356237308982
10
145.11250050000004
20
-54.125048500000013
10
145.11250050000004
20
-41.125047500000008
42
0.41421356237308982
10
144.61249849999999
20
-40.625047500000022
10
144.12636549999999
20
-40.625047500000022
0
LWPOLYLINE
5
146
100
AcDbEntity
8
0
100
AcDbPolyline
90
12
70
1
43
0.0
10
191.75136549999996
20
-59.675048500000059
10
191.7375005000001
20
-59.674951500000013
10
179.73750050000001
20
-59.674951500000013
10
179.72363449999995
20
-59.675048500000059
10
179.23750050000001
20
-59.675048500000059
42
0.41421356237306384
10
178.73750050000007
20
-60.175048500000052
10
178.73750050000001
20
-73.175047500000005
42
0.41421356237301699
10
179.23749850000002
20
-73.675047500000034
10
192.23750050000007
20
-73.675047500000062
42
0.4142135623730846
10
192.73749950000001
20
-73.175046500000022
10
192.73750050000004
20
-60.175048500000052
42
0.41421356237313667
10
192.23750150000001
20
-59.675047500000019
0
LWPOLYLINE
5
147
100
AcDbEntity
8
0
100
AcDbPolyline
90
12
70
1
43
0.0
10
173.97499950000011
20
-3.0250485000000094
10
173.97500049999996
20
-16.025048500000008
42
0.41421356237312495
10
174.47500050000002
20
-16.525048500000004
10
187.47500050000002
20
-16.525048500000004
42
0.41421356237309243
10
187.97500050000002
20
-16.025046500000009
10
187.97500050000008
20
-3.0250485000000094
42
0.41421356237306611
10
187.47500150000008
20
-2.5250475000000083
10
186.98886549999997
20
-2.5250475000000172
10
186.97500050000002
20
-2.5249515000000056
10
174.97500049999999
20
-2.5249515000000056
10
174.96113450000001
20
-2.5250475000000172
10
174.47500050000002
20
-2.5250475000000261
42
0.41421356237313567
0
LWPOLYLINE
5
148
100
AcDbEntity
8
0
100
AcDbPolyline
90
12
70
1
43
0.0
10
256.03125050000006
20
-59.674951500000013
10
244.0312505
20
-59.674951500000013
10
244.01738450000005
20
-59.675048500000059
10
243.53125050000003
20
-59.675048500000059
42
0.41421356237310025
10
243.03125050000006
20
-60.175048500000031
10
243.03125050000006
20
-73.175047500013136
42
0.41421356236543644
10
243.5312485
20
-73.675047500000076
10
256.53125049999994
20
-73.675047500000019
42
0.41421356236666435
10
257.03124950000006
20
-73.175046500011106
10
257.0312505
20
-60.175048500000052
42
0.41421356237310542
10
256.5312505
20
-59.675048500000031
10
256.04511550000007
20
-59.675048500000059
0
LWPOLYLINE
5
149
100
AcDbEntity
8
0
100
AcDbPolyline
90
12
70
1
43
0.0
10
140.63750150000001
20
-60.175047500000019
42
-0.41421356237304818
10
141.13750049999999
20
-59.675048500000059
10
141.62363449999998
20
-59.675048500000059
10
141.63750050000002
20
-59.674951500000013
10
153.63750049999999
20
-59.674951500000013
10
153.6513655
20
-59.675048500000059
10
154.13750050000002
20
-59.675048500000059
42
-0.4142135623730846
10
154.63750050000004
20
-60.175048500000031
10
154.63750049999999
20
-73.175047500000048
42
-0.4142135623730534
10
154.13750050000002
20
-73.675047500000034
10
141.13750049999999
20
-73.675047500000034
42
-0.4142135623730534
10
140.63750050000002
20
-73.175047500000048
0
LWPOLYLINE
5
150
100
AcDbEntity
8
0
100
AcDbPolyline
90
12
70
1
43
0.0
10
288.77499950000004
20
-73.675048500000045
10
301.77500049999998
20
-73.675047500000019
42
0.41421356237313145
10
302.27500050000003
20
-73.175047500000048
10
302.27500050000003
20
-60.175048499988968
42
0.41421356236665913
10
301.77500150000003
20
-59.675047500000019
10
301.28886550000004
20
-59.675048500000059
10
301.27500050000003
20
-59.674951500000013
10
289.27500049999998
20
-59.674951500000013
10
289.26113450000003
20
-59.675048500000059
10
288.77500049999998
20
-59.675048500000059
42
0.41421356237310025
10
288.27500050000003
20
-60.175048500000052
10
288.27500049999998
20
-73.175047500011061
42
0.4142135623665863
0
LWPOLYLINE
5
151
100
AcDbEntity
8
0
100
AcDbPolyline
90
12
70
1
43
0.0
10
211.28750150000002
20
-59.675047500000048
42
-0.41421356236650825
10
211.78750050000005
20
-60.175048499988968
10
211.78750050000005
20
-73.175047500000005
42
-0.41421356237294937
10
211.28750050000019
20
-73.675047500000034
10
198.28749850000003
20
-73.675047500000048
42
-0.41421356237313145
10
197.78750050000008
20
-73.175047500000005
10
197.78750050000008
20
-60.175048500000052
42
-0.41421356237306384
10
198.28750050000002
20
-59.675048500000059
10
198.77363449999996
20
-59.675048500000059
10
198.78750050000002
20
-59.674951500000013
10
210.78750050000011
20
-59.674951500000013
10
210.80136549999997
20
-59.675048500000059
0
LWPOLYLINE
5
152
100
AcDbEntity
8
0
100
AcDbPolyline
90
12
70
1
43
0.0
10
116.03749950000002
20
-59.675047500000048
10
115.5513655
20
-59.675048500000059
10
115.53750049999999
20
-59.674951500000013
10
103.5374995
20
-59.674951500000013
10
103.5236345
20
-59.675048500000059
10
103.03750049999999
20
-59.675048500000031
42
0.4142135623730378
10
102.5374995
20
-60.175047500000019
10
102.53750049999999
20
-73.175047500000005
42
0.41421356237312623
10
103.03750049999999
20
-73.675047500000034
10
116.03750050000001
20
-73.675047500000034
42
0.4142135623730846
10
116.53750050000001
20
-73.175047500000048
10
116.53750050000005
20
-60.175048500000031
42
0.4142135623730534
0
LWPOLYLINE
5
153
100
AcDbEntity
8
0
100
AcDbPolyline
90
12
70
1
43
0.0
10
135.5875005
20
-73.175047500000048
42
-0.41421356237307944
10
135.0875005
20
-73.675047500000034
10
122.08750049999999
20
-73.675047500000034
42
-0.4142135623730534
10
121.5875005
20
-73.175047500000048
10
121.58749949999999
20
-60.175047500000019
42
-0.41421356237310542
10
122.08750049999999
20
-59.675048500000059
10
122.5736345
20
-59.675048500000059
10
122.58749950000001
20
-59.674951500000013
10
134.58750049999998
20
-59.674951500000013
10
134.60136549999999
20
-59.675048500000059
10
135.08749949999998
20
-59.675047500000026
42
-0.41421356237311063
10
135.58750049999998
20
-60.175048500000031
0
LWPOLYLINE
5
154
100
AcDbEntity
8
0
100
AcDbPolyline
90
12
70
1
43
0.0
10
230.33750150000003
20
-59.675047500000048
10
229.85136550000007
20
-59.675048500000059
10
229.83750049999998
20
-59.674951500000013
10
217.83750050000003
20
-59.674951500000013
10
217.82363449999997
20
-59.675048500000059
10
217.33750049999998
20
-59.67504850000001
42
0.41421356237310025
10
216.83750050000009
20
-60.175048500000052
10
216.8375005
20
-73.175047500000005
42
0.41421356237306384
10
217.33749850000004
20
-73.675047500000034
10
230.33750050000003
20
-73.675047500000034
42
0.4142135623730378
10
230.83750049999998
20
-73.175047500000005
10
230.83750050000003
20
-60.175048500000052
42
0.41421356237308982
0
LWPOLYLINE
5
155
100
AcDbEntity
8
0
100
AcDbPolyline
90
12
70
1
43
0.0
10
263.18886550000002
20
-78.725047499999988
10
263.17500050000007
20
-78.724951500000003
10
251.17500050000004
20
-78.724951500000003
10
251.1611345
20
-78.725047499999988
10
250.67500050000007
20
-78.725047499999988
42
0.41421356237309503
10
250.17499950000007
20
-79.225048500000028
10
250.1750005000001
20
-92.225048500000014
42
0.41421356237301177
10
250.67500149999995
20
-92.725047500000031
10
263.67500050000001
20
-92.725048500000042
42
0.4142135623731783
10
264.17500150000001
20
-92.225047500000002
10
264.17500050000007
20
-79.225047500000002
42
0.41421356237312623
10
263.67500050000001
20
-78.725047499999974
0
LWPOLYLINE
5
156
100
AcDbEntity
8
0
100
AcDbPolyline
90
12
70
1
43
0.0
10
184.46875050000003
20
-91.225048500000014
10
184.46875050000003
20
-77.225048500000014
42
0.41421356237315227
10
183.9687515
20
-76.725047500000002
10
183.48261549999995
20
-76.725047500000016
10
183.4687505
20
-76.724951500000017
10
178.4687505
20
-76.724951500000017
10
178.45488449999999
20
-76.725047500000016
10
177.96875049999997
20
-76.725048500000028
42
0.41421356237307422
10
177.4687505
20
-77.225048500000014
10
177.4687505
20
-91.225048500000014
42
0.41421356237309503
10
177.96875049999997
20
-91.725048500000071
10
183.96875050000006
20
-91.725048500000028
42
0.41421356237310542
0
LWPOLYLINE
5
157
100
AcDbEntity
8
0
100
AcDbPolyline
90
12
70
1
43
0.0
10
66.031250500000013
20
-78.725047499999988
10
65.545115499999994
20
-78.725047499999988
10
65.531250499999999
20
-78.724951500000003
10
53.531250499999992
20
-78.724951500000003
10
53.517384499999991
20
-78.725047499999988
10
53.031250499999992
20
-78.725047499999988
42
0.41421356237307944
10
52.531250499999999
20
-79.225047500000002
10
52.531250499999999
20
-92.225048500000014
42
0.41421356237306384
10
53.031250499999985
20
-92.725048500000028
10
66.031250500000013
20
-92.725048500000042
42
0.41421356237313145
10
66.531250499999999
20
-92.225046499999991
10
66.531250500000013
20
-79.225047500000002
42
0.41421356237308982
0
LWPOLYLINE
5
158
100
AcDbEntity
8
0
100
AcDbPolyline
90
12
70
1
43
0.0
10
29.218749499999994
20
-92.725047499999988
42
-0.41421356237312884
10
28.718750499999995
20
-92.225048500000014
10
28.718749499999987
20
-79.225046500000005
42
-0.41421356237307683
10
29.218750499999992
20
-78.72504749999996
10
29.704884499999995
20
-78.725047499999988
10
29.718750499999995
20
-78.724951500000003
10
41.718750500000006
20
-78.724951500000003
10
41.732615499999994
20
-78.725047499999988
10
42.218750499999999
20
-78.725047499999988
42
-0.41421356237307944
10
42.718750499999999
20
-79.225047499999988
10
42.718750500000013
20
-92.225046499999991
42
-0.41421356237307422
10
42.218750500000006
20
-92.725048500000028
0
LWPOLYLINE
5
159
100
AcDbEntity
8
0
100
AcDbPolyline
90
12
70
1
43
0.0
10
235.10000050000002
20
-21.575047500000004
10
234.6138655
20
-21.57504850000003
10
234.60000050000005
20
-21.574951500000008
10
222.60000050000002
20
-21.574951500000008
10
222.58613449999999
20
-21.57504850000003
10
222.10000050000002
20
-21.575048500000005
42
0.41421356237307161
10
221.60000050000008
20
-22.075048500000012
10
221.60000050000008
20
-35.075047500000025
42
0.41421356237309764
10
222.10000050000005
20
-35.575047499999997
10
235.10000049999999
20
-35.575048500000022
42
0.4142135623731783
10
235.60000150000008
20
-35.075047500000025
10
235.60000049999999
20
-22.075047499999975
42
0.4142135623730378
0
LWPOLYLINE
5
160
100
AcDbEntity
8
0
100
AcDbPolyline
90
12
70
1
43
0.0
10
212.57499950000005
20
-16.525047500000021
10
225.57500050000002
20
-16.525048500000015
42
0.41421356237306384
10
226.07500150000007
20
-16.025047500000007
10
226.07500049999999
20
-3.0250485000000094
42
0.41421356237307261
10
225.5750015000001
20
-2.5250475000000172
10
225.0888655
20
-2.5250475000000172
10
225.07500050000004
20
-2.5249515000000056
10
213.07500050000002
20
-2.5249515000000056
10
213.06113449999998
20
-2.5250475000000172
10
212.57500050000004
20
-2.5250475000000083
42
0.41421356237310381
10
212.07499949999999
20
-3.0250484999999649
10
212.07500050000007
20
-16.025048500000008
42
0.41421356237299095
0
CIRCLE
5
161
100
AcDbEntity
8
0
100
AcDbCircle
10
240.2269665
20
2.0901384999999895
30
0
40
1.0999999999999943
210
0
220
-0
230
1
0
LWPOLYLINE
5
162
100
AcDbEntity
8
0
100
AcDbPolyline
90
12
70
1
43
0.0
10
203.04999850000002
20
-35.575047499999982
10
216.05000050000001
20
-35.575048500000008
42
0.41421356237303519
10
216.55000150000001
20
-35.075047499999989
10
216.55000049999998
20
-22.075047499999989
42
0.41421356237301959
10
216.05000050000001
20
-21.575047500000004
10
215.56386549999999
20
-21.57504850000003
10
215.55000050000004
20
-21.574951500000008
10
203.55000050000001
20
-21.574951500000008
10
203.53613449999997
20
-21.57504850000003
10
203.05000050000004
20
-21.575048500000051
42
0.4142135623730222
10
202.55000050000007
20
-22.075048500000012
10
202.55000050000007
20
-35.075047500000025
42
0.41421356237316526
0
LWPOLYLINE
5
163
100
AcDbEntity
8
0
100
AcDbPolyline
90
12
70
1
43
0.0
10
219.21874950000006
20
-79.225048500000028
42
-0.41421356237314183
10
219.7187505
20
-78.725047499999988
10
220.20488450000002
20
-78.725047499999988
10
220.2187505
20
-78.724951500000003
10
232.2187505
20
-78.724951500000003
10
232.23261550000004
20
-78.725047499999988
10
232.7187505
20
-78.725047499999974
42
-0.41421356237316787
10
233.21875050000003
20
-79.225047500000002
10
233.2187515
20
-92.225047500000002
42
-0.41421356237309503
10
232.7187505
20
-92.725048500000028
10
219.7187505
20
-92.725048500000071
42
-0.41421356237312623
10
219.2187505
20
-92.225048500000014
0
LWPOLYLINE
5
164
100
AcDbEntity
8
0
100
AcDbPolyline
90
12
70
1
43
0.0
10
289.27500049999998
20
-78.724951500000003
10
289.26113450000003
20
-78.725047499999988
10
288.77500050000003
20
-78.725047499999988
42
0.41421356237314183
10
288.27499950000004
20
-79.225048500000028
10
288.27500050000003
20
-92.225048500000014
42
0.41421356237299095
10
288.77500150000003
20
-92.725047500000016
10
301.77500050000003
20
-92.725048500000057
42
0.41421356237313667
10
302.27500050000003
20
-92.225048500000014
10
302.27500050000003
20
-79.225047500000002
42
0.41421356237316787
10
301.77500049999998
20
-78.725047499999988
10
301.28886550000004
20
-78.725047499999988
10
301.27500050000003
20
-78.724951500000003
0
LWPOLYLINE
5
165
100
AcDbEntity
8
0
100
AcDbPolyline
90
12
70
1
43
0.0
10
77.968749500000001
20
-91.725047500000002
10
83.968750500000027
20
-91.725048499999971
42
0.4142135623730534
10
84.468750499999999
20
-91.225046499999991
10
84.468750500000013
20
-77.225048500000014
42
0.41421356237309503
10
83.968749500000001
20
-76.725047500000016
10
83.48261549999998
20
-76.725047500000016
10
83.468750499999999
20
-76.724951500000017
10
78.468750499999999
20
-76.724951500000017
10
78.45488450000002
20
-76.725047500000016
10
77.968750499999999
20
-76.725048500000028
42
0.41421356237312623
10
77.468750499999999
20
-77.225046500000033
10
77.468750500000013
20
-91.225048500000014
42
0.41421356237312623
0
LWPOLYLINE
5
166
100
AcDbEntity
8
0
100
AcDbPolyline
90
12
70
1
43
0.0
10
136.98261550000001
20
-78.725047499999988
10
136.9687505
20
-78.724951500000003
10
124.9687505
20
-78.724951500000003
10
124.95488449999999
20
-78.725047499999988
10
124.46875050000001
20
-78.725047500000016
42
0.41421356237312101
10
123.9687495
20
-79.225046500000005
10
123.96875050000004
20
-92.225048500000014
42
0.4142135623730846
10
124.4687515
20
-92.725047499999974
10
137.46875049999997
20
-92.725048500000028
42
0.41421356237306384
10
137.9687505
20
-92.225046499999991
10
137.9687505
20
-79.225047500000002
42
0.41421356237305862
10
137.4687495
20
-78.725048500000014
0
LWPOLYLINE
5
167
100
AcDbEntity
8
0
100
AcDbPolyline
90
12
70
1
43
0.0
10
283.22500050000002
20
-92.225048500000014
10
283.22500050000002
20
-79.225047500000002
42
0.41421356237307944
10
282.72500049999996
20
-78.725047499999974
10
282.23886550000003
20
-78.725047499999988
10
282.22500050000002
20
-78.724951500000003
10
270.22500049999996
20
-78.724951500000003
10
270.21113450000001
20
-78.725047499999988
10
269.72500049999996
20
-78.725047499999988
42
0.41421356237302737
10
269.22499950000008
20
-79.225048500000028
10
269.22500050000002
20
-92.225048500000014
42
0.41421356237312623
10
269.72500150000002
20
-92.725047499999988
10
282.72500050000002
20
-92.725048500000014
42
0.41421356237304302
0
LWPOLYLINE
5
168
100
AcDbEntity
8
0
100
AcDbPolyline
90
12
70
1
43
0.0
10
196.39238449999999
20
-78.725047499999988
10
195.9062505
20
-78.725047499999988
42
0.41421356237314183
10
195.4062495
20
-79.225048500000028
10
195.4062505
20
-92.225048500000014
42
0.41421356237306384
10
195.9062515
20
-92.725047499999974
10
208.90625049999997
20
-92.725048500000028
42
0.41421356237309503
10
209.40625150000002
20
-92.225047500000002
10
209.40625049999994
20
-79.225047500000002
42
0.41421356237307944
10
208.90625049999997
20
-78.725047499999988
10
208.42011550000001
20
-78.725047499999988
10
208.4062505
20
-78.724951500000003
10
196.40625049999997
20
-78.724951500000003
0
CIRCLE
5
169
100
AcDbEntity
8
0
100
AcDbCircle
10
142.88696649999997
20
2.1101384999999873
30
0
40
1.0999999999999943
210
0
220
-0
230
1
0
LWPOLYLINE
5
170
100
AcDbEntity
8
0
100
AcDbPolyline
90
12
70
1
43
0.0
10
177.46386549999997
20
-21.57504850000003
10
177.45000050000002
20
-21.574951500000008
10
165.45000049999999
20
-21.574951500000008
10
165.43613450000004
20
-21.57504850000003
10
164.95000049999999
20
-21.57504850000004
42
0.4142135623730846
10
164.45000050000002
20
-22.075048500000012
10
164.45000050000002
20
-35.075047500000011
42
0.41421356237316265
10
164.94999849999999
20
-35.575047499999997
10
177.95000050000002
20
-35.575048499999994
42
0.41421356236784279
10
178.45000050000004
20
-35.075046500009094
10
178.45000050000004
20
-22.075047499999965
42
0.41421356237312362
10
177.95000049999999
20
-21.575047499999993
0
LWPOLYLINE
5
171
100
AcDbEntity
8
0
100
AcDbPolyline
90
12
70
1
43
0.0
10
146.4000005
20
-21.574951500000008
10
146.3861345
20
-21.57504850000003
10
145.90000049999998
20
-21.57504850000004
42
0.41421356237308721
10
145.4000005
20
-22.075048500000047
10
145.40000049999998
20
-35.075047500000025
42
0.41421356237307422
10
145.90000049999998
20
-35.575047499999997
10
158.9000005
20
-35.575048500000022
42
0.41421356237307161
10
159.4000005
20
-35.075048500000022
10
159.4000005
20
-22.075047499999989
42
0.4142135623730846
10
158.9000005
20
-21.575047500000004
10
158.41386550000001
20
-21.57504850000003
10
158.40000049999998
20
-21.574951500000008
0
LWPOLYLINE
5
172
100
AcDbEntity
8
0
100
AcDbPolyline
90
12
70
1
43
0.0
10
170.19863449999997
20
-40.625047500000022
10
169.71250050000003
20
-40.625047500000022
42
0.41421356237313145
10
169.21249950000004
20
-41.125048500000005
10
169.21250049999995
20
-54.125048500000034
42
0.41421356237316787
10
169.71249950000001
20
-54.625047500000022
10
182.71250050000003
20
-54.625048500000034
42
0.41421356237300661
10
183.21250050000003
20
-54.12504650000001
10
183.21250050000006
20
-41.125047500000008
42
0.41421356237298057
10
182.71250050000006
20
-40.625047500000008
10
182.22636549999999
20
-40.625047500000022
10
182.21250050000003
20
-40.624951500000023
10
170.21250050000006
20
-40.624951500000023
0
LWPOLYLINE
5
173
100
AcDbEntity
8
0
100
AcDbPolyline
90
12
70
1
43
0.0
10
206.52500150000003
20
-2.525047500000035
42
-0.41421356236659668
10
207.0250005
20
-3.0250484999889604
10
207.02500149999997
20
-16.025047500000067
42
-0.41421356237310675
10
206.52500049999998
20
-16.525048500000032
10
193.52500049999998
20
-16.525048499999954
42
-0.41421356237308071
10
193.02500049999998
20
-16.025048500000008
10
193.02499950000001
20
-3.0250485000000005
42
-0.41421356237313633
10
193.5250005
20
-2.5250475000000261
10
194.01113449999997
20
-2.5250475000000172
10
194.0250005
20
-2.5249515000000056
10
206.02500050000003
20
-2.5249515000000056
10
206.03886549999999
20
-2.5250475000000172
0
LWPOLYLINE
5
174
100
AcDbEntity
8
0
100
AcDbPolyline
90
12
70
1
43
0.0
10
160.67363450000002
20
-59.675048500000059
10
160.18750050000008
20
-59.675048500000031
42
0.41421356237314705
10
159.68750050000003
20
-60.175048500000052
10
159.68750049999997
20
-73.175047499999991
42
0.41421356237311585
10
160.18750050000006
20
-73.675047500000034
10
173.18750050000006
20
-73.675047500000034
42
0.41421356236661233
10
173.68749950000009
20
-73.175046500011064
10
173.68750050000003
20
-60.175048499988989
42
0.41421356236661233
10
173.1875015
20
-59.675047500000019
10
172.70136549999995
20
-59.675048500000059
10
172.6875005
20
-59.674951500000013
10
160.6875005
20
-59.674951500000013
0
LWPOLYLINE
5
175
100
AcDbEntity
8
0
100
AcDbPolyline
90
28
70
1
43
0.0
10
5.40625
20
-73.674999999999997
10
5.9932504999999967
20
-73.674999999999997
10
5.9932504999999967
20
-75.175047500000019
42
0.41421356237309309
10
6.4932494999999868
20
-75.675046500000022
10
12.493250499999993
20
-75.675047500000048
42
0.41421356237310542
10
12.993250500000002
20
-75.175047500000019
10
12.9932505
20
-73.674999999999997
10
14.924358639308883
20
-73.674999999999997
42
0.0034460531121846025
10
14.931250499999997
20
-73.675047500000034
10
27.931250499999997
20
-73.675047500000062
42
0.0034460531129175795
10
27.938142360692865
20
-73.674999999999997
10
29.8692505
20
-73.674999999999997
10
29.8692505
20
-75.175047500000019
42
0.41421356237310281
10
30.369249499999995
20
-75.675046500000022
10
36.369250500000007
20
-75.675047500000048
42
0.41421356237310802
10
36.869250499999993
20
-75.175047500000019
10
36.869250499999993
20
-73.674999999999997
10
39.837499999999999
20
-73.674999999999997
42
0.41421356237311324
10
40.337500000000006
20
-73.174999999999997
10
40.337500000000006
20
-60.174999999999997
42
0.41421356237309243
10
39.837499999999999
20
-59.675000000000004
10
27.438182499994923
20
-59.675000000000004
10
27.431249500000003
20
-59.674951500000013
10
15.431250500000004
20
-59.674951500000013
10
15.424317500005071
20
-59.675000000000004
10
5.40625
20
-59.675000000000004
42
0.4142135623730957
10
4.9062500000000018
20
-60.174999999999997
10
4.90625
20
-73.174999999999997
42
0.41421356237309437
0
LWPOLYLINE
5
176
100
AcDbEntity
8
0
100
AcDbPolyline
90
48
70
1
43
0.0
10
279.84375000000006
20
-53.038000000000011
42
-0.15083291208377475
10
279.75675129962752
20
-53.319833153667197
10
279.75675150000001
20
-56.125047500000008
42
-0.41421356237312623
10
279.25675050000007
20
-56.625048500000034
10
271.50944696603483
20
-56.625048500000055
42
-0.53119881636637489
10
271.04634185763354
20
-55.937954338711542
10
271.04634185763354
20
-54.570247139205669
42
-0.11869693185807074
10
270.81875050000002
20
-54.625048500000055
10
257.81875050000002
20
-54.625048500000034
42
-0.0034821392917495034
10
257.81178647474286
20
-54.625
10
255.88075139285377
20
-54.625
10
255.88075150000003
20
-56.125047500000051
42
-0.41421356237313145
10
255.38075050000003
20
-56.625048500000034
10
249.38074950000001
20
-56.625047500000036
42
-0.41421356237319906
10
248.88075049999998
20
-56.125048500000041
10
248.88075050000003
20
-54.625
10
245.91250000000002
20
-54.624999999999986
42
-0.41421356237312101
10
245.41250000000002
20
-54.125000000000007
10
245.41250000000005
20
-41.125
42
-0.4142135623730222
10
245.91250000000002
20
-40.625
10
258.31174528125308
20
-40.625
10
258.31875050000008
20
-40.624951500000023
10
266.84375
20
-40.624951500000023
10
266.84375
20
-35.575048500000037
10
264.96249849999998
20
-35.575048500000037
42
-0.41421356237302998
10
264.46249950000004
20
-35.075047500000025
10
264.46249949999998
20
-22.075048500000012
42
-0.41421356237311324
10
264.96249950000004
20
-21.575048500000065
10
265.44863450000003
20
-21.57504850000003
10
265.46249950000004
20
-21.574951500000008
10
277.46250050000003
20
-21.574951500000008
10
277.47636550000004
20
-21.57504850000003
10
277.96249950000004
20
-21.575048500000062
42
-0.41421356237311846
10
278.46250050000003
20
-22.075047499999989
10
278.46250050000003
20
-22.661999999999999
10
279.34375
20
-22.661999999999978
42
-0.41421356237310281
10
279.84375000000006
20
-23.161999999999999
10
279.84375000000006
20
-29.161999999999999
42
-0.41421356237304563
10
279.34375
20
-29.661999999999999
10
278.46250050000003
20
-29.662000000000003
10
278.46250050000003
20
-31.100000000000001
10
280.34375
20
-31.100000000000001
42
-0.41421356237313145
10
280.84375
20
-31.600000000000001
10
280.84375000000006
20
-44.600000000000001
42
-0.41421356237307422
10
280.34375
20
-45.099999999999994
10
279.75675071249657
20
-45.100000000000009
10
279.7567508307942
20
-46.756166159300662
42
-0.15083333742316393
10
279.84375000000006
20
-47.038000000000011
0
ENDSEC
0
SECTION
2
OBJECTS
0
DICTIONARY
5
C
100
AcDbDictionary
3
ACAD_GROUP
350
D
3
ACAD_MLINESTYLE
350
17
0
DICTIONARY
5
D
100
AcDbDictionary
0
DICTIONARY
5
1A
330
C
100
AcDbDictionary
0
DICTIONARY
5
17
100
AcDbDictionary
0
ENDSEC
0
EOF
